<?xml version="1.0" standalone="no"?>
<!DOCTYPE svg PUBLIC "-//W3C//DTD SVG 1.1//EN" "http://www.w3.org/Graphics/SVG/1.1/DTD/svg11.dtd" >
<svg xmlns="http://www.w3.org/2000/svg">
<metadata></metadata>
<defs>
<font id="proba_prosemibold" horiz-adv-x="462" >
<font-face units-per-em="2048" ascent="1536" descent="-512" />
<missing-glyph horiz-adv-x="471" />
<glyph unicode="ff" horiz-adv-x="1241" d="M63 745v177h119v284q0 160 92.5 254t251.5 94q71 0 115 -20v-186q-27 16 -70 16q-71 0 -113 -43.5t-42 -114.5v-284h313v284q0 160 93 254t253 94q71 0 115 -20v-186q-27 16 -72 16q-70 0 -111.5 -43.5t-41.5 -114.5v-284h225v-177h-225v-745h-236v745h-313v-745h-234 v745h-119z" />
<glyph unicode="fi" horiz-adv-x="1075" d="M63 745v177h119v284q0 160 92.5 254t251.5 94q71 0 115 -20v-186q-27 16 -70 16q-71 0 -113 -43.5t-42 -114.5v-284h540v-922h-227v745h-313v-745h-234v745h-119zM707 1198q0 57 39.5 96t95.5 39q57 0 96 -39t39 -96t-39 -96t-96 -39q-56 0 -95.5 39t-39.5 96z" />
<glyph unicode="ffi" horiz-adv-x="1622" d="M63 745v177h119v284q0 160 92.5 254t251.5 94q71 0 115 -20v-186q-27 16 -70 16q-71 0 -113 -43.5t-42 -114.5v-284h313v284q0 160 93 254t253 94q71 0 115 -20v-186q-27 16 -72 16q-70 0 -111.5 -43.5t-41.5 -114.5v-284h538v-922h-225v745h-313v-745h-236v745h-313 v-745h-234v745h-119zM1255 1198q0 57 39.5 96t96.5 39t96 -39t39 -96t-39 -96t-96 -39t-96.5 39t-39.5 96z" />
<glyph unicode="fj" horiz-adv-x="1075" d="M63 745v177h119v284q0 160 92.5 254t251.5 94q71 0 115 -20v-186q-27 16 -70 16q-71 0 -113 -43.5t-42 -114.5v-284h540v-1196q0 -113 -61 -180.5t-174 -67.5q-63 0 -86 10v147q42 0 68 26t26 71v1013h-313v-745h-234v745h-119zM707 1198q0 57 39.5 96t95.5 39 q57 0 96 -39t39 -96t-39 -96t-96 -39q-56 0 -95.5 39t-39.5 96z" />
<glyph unicode="&#x457;&#x457;" horiz-adv-x="927" d="M-68 1153q0 54 37 90.5t90 36.5q54 0 90.5 -36.5t36.5 -90.5q0 -53 -36.5 -90t-90.5 -37q-53 0 -90 37t-37 90zM119 0v922h225v-922h-225zM336 1153q0 55 37 92t90 37q55 0 92 -37t37 -92q0 -53 -37 -90t-92 -37q-53 0 -90 37t-37 90zM582 0v922h227v-922h-227zM739 1153 q0 55 36.5 92t90.5 37t90.5 -37t36.5 -92q0 -53 -36.5 -90t-90.5 -37t-90.5 37t-36.5 90z" />
<glyph unicode="&#x456;&#x457;" horiz-adv-x="927" d="M96 1198q0 57 39 96t96 39t96.5 -39t39.5 -96t-39.5 -96t-96.5 -39t-96 39t-39 96zM119 0v922h225v-922h-225zM428 1153q0 54 36 90.5t89 36.5q54 0 90.5 -36.5t36.5 -90.5q0 -53 -36.5 -90t-90.5 -37q-52 0 -88.5 37t-36.5 90zM582 0v922h227v-922h-227zM739 1153 q0 55 36.5 92t90.5 37t90.5 -37t36.5 -92q0 -53 -36.5 -90t-90.5 -37t-90.5 37t-36.5 90z" />
<glyph unicode="&#x2019;&#x457;" horiz-adv-x="669" d="M45 1001q88 95 111 170q-47 9 -77 46t-30 86q0 57 39 96t96 39q52 0 93.5 -36.5t41.5 -115.5q0 -158 -202 -356zM326 0v922h225v-922h-225zM481 1153q0 55 37 92t90 37q56 0 92.5 -37t36.5 -92q0 -53 -37 -90t-92 -37q-52 0 -89.5 37t-37.5 90z" />
<glyph unicode="&#x407;&#x407;" horiz-adv-x="944" d="M-63 1636q0 54 36 90.5t90 36.5q53 0 90 -36.5t37 -90.5q0 -52 -37 -89.5t-90 -37.5q-54 0 -90 37t-36 90zM119 0v1434h233v-1434h-233zM344 1636q0 54 37 91.5t90 37.5q55 0 92 -37.5t37 -91.5q0 -53 -37 -90t-92 -37q-53 0 -90 37.5t-37 89.5zM592 0v1434h233v-1434 h-233zM754 1636q0 54 37 91.5t90 37.5q54 0 91.5 -37.5t37.5 -91.5q0 -53 -37.5 -90t-91.5 -37q-53 0 -90 37.5t-37 89.5z" />
<glyph unicode="ffj" horiz-adv-x="1622" d="M63 745v177h119v284q0 160 92.5 254t251.5 94q71 0 115 -20v-186q-27 16 -70 16q-71 0 -113 -43.5t-42 -114.5v-284h313v284q0 160 93 254t253 94q71 0 115 -20v-186q-27 16 -72 16q-70 0 -111.5 -43.5t-41.5 -114.5v-284h538v-1196q0 -113 -60.5 -180.5t-172.5 -67.5 q-64 0 -86 10v147q42 0 68 26t26 71v1013h-313v-745h-236v745h-313v-745h-234v745h-119zM1255 1198q0 57 39.5 96t96.5 39t96 -39t39 -96t-39 -96t-96 -39t-96.5 39t-39.5 96z" />
<glyph unicode=" "  horiz-adv-x="471" />
<glyph unicode="&#x09;" horiz-adv-x="471" />
<glyph unicode="&#xa0;" horiz-adv-x="471" />
<glyph unicode="!" d="M96 117q0 57 39 96t96 39t96.5 -39t39.5 -96t-39.5 -96t-96.5 -39t-96 39t-39 96zM119 418v1016h225v-1016h-225z" />
<glyph unicode="&#x22;" horiz-adv-x="768" d="M119 922v512h192v-512h-192zM457 922v512h190v-512h-190z" />
<glyph unicode="#" horiz-adv-x="1271" d="M70 326v176h161l64 430h-164v176h188l50 326h225l-49 -326h295l49 326h227l-49 -326h137v-176h-162l-65 -430h164v-176h-189l-49 -326h-225l47 326h-295l-47 -326h-227l49 326h-135zM457 502h295l63 430h-295z" />
<glyph unicode="$" horiz-adv-x="1126" d="M76 190l143 144q123 -126 279 -141v432q-39 15 -62 24t-59.5 26t-59 30.5t-53.5 34.5t-50 42t-40 49.5t-32.5 59t-19 69.5t-7.5 82q0 166 100 281t283 127v188h125v-192q213 -31 362 -180l-145 -144q-40 40 -98 71.5t-119 43.5v-414q158 -62 225 -106q167 -108 172 -296 v-13q0 -166 -105 -285t-292 -137v-191h-125v189q-243 21 -422 206zM356 1049q0 -59 36.5 -100t105.5 -75v361q-70 -20 -106 -73.5t-36 -112.5zM623 203q74 23 113.5 80.5t39.5 119.5q0 58 -39.5 97.5t-113.5 74.5v-372z" />
<glyph unicode="%" horiz-adv-x="1835" d="M70 1083q0 164 103 266.5t269 102.5q167 0 271 -102.5t104 -266.5q0 -163 -104 -264.5t-271 -101.5q-166 0 -269 101.5t-103 264.5zM268 1083q0 -88 49 -144t125 -56t125 56t49 144q0 89 -49 146t-125 57t-125 -57t-49 -146zM420 0l770 1434h225l-768 -1434h-227z M1018 348q0 164 104 266.5t271 102.5q166 0 270 -102.5t104 -266.5q0 -163 -104 -264.5t-270 -101.5q-167 0 -271 101.5t-104 264.5zM1219 348q0 -88 49 -144.5t125 -56.5t125 56.5t49 144.5q0 89 -48.5 146t-125.5 57t-125.5 -57t-48.5 -146z" />
<glyph unicode="&#x26;" horiz-adv-x="1210" d="M80 428q0 238 199 348q-150 93 -150 285q0 174 116.5 282.5t305.5 108.5t305.5 -108.5t116.5 -282.5h-234q0 85 -52.5 137.5t-135.5 52.5t-136 -52.5t-53 -137.5t53 -140t136 -55h53v-188h-53q-104 0 -170 -70.5t-66 -179.5t66 -177.5t170 -68.5t169.5 68.5t65.5 177.5 v250h-120v188h477v-188h-121v-250q0 -198 -130.5 -322t-340.5 -124t-340.5 124t-130.5 322z" />
<glyph unicode="'" horiz-adv-x="430" d="M119 922v512h192v-512h-192z" />
<glyph unicode="(" horiz-adv-x="600" d="M96 512q0 303 56.5 542.5t153.5 369.5t216 130v-165q-77 0 -134.5 -249t-57.5 -628t57.5 -628t134.5 -249v-165q-119 0 -216 130t-153.5 369.5t-56.5 542.5z" />
<glyph unicode=")" horiz-adv-x="600" d="M76 -365q51 0 94.5 109t70.5 312t27 456t-27 456t-70.5 312t-94.5 109v165q120 0 217 -130.5t153 -369.5t56 -542t-56 -542t-153 -369.5t-217 -130.5v165z" />
<glyph unicode="*" horiz-adv-x="923" d="M72 1092l51 155l256 -82v269h164v-269l256 84l53 -155l-258 -86l160 -220l-136 -96l-155 219l-160 -219l-131 96l156 220z" />
<glyph unicode="+" horiz-adv-x="870" d="M96 496v174h252v252h174v-252h252v-174h-252v-252h-174v252h-252z" />
<glyph unicode="," d="M92 -184q87 90 111 170q-46 9 -76.5 45.5t-30.5 85.5q0 57 39 96t96 39q54 0 95 -36t41 -116q0 -93 -56 -180t-145 -176z" />
<glyph unicode="-" horiz-adv-x="696" d="M96 461v176h504v-176h-504z" />
<glyph unicode="." d="M96 117q0 57 39 96t96 39t96.5 -39t39.5 -96t-39.5 -96t-96.5 -39t-96 39t-39 96z" />
<glyph unicode="/" horiz-adv-x="1153" d="M78 -102l770 1638h227l-770 -1638h-227z" />
<glyph unicode="0" horiz-adv-x="1150" d="M90 717q0 216 60.5 383t171 259.5t253.5 92.5t253.5 -92.5t171.5 -259.5t61 -383t-61 -383t-171.5 -259.5t-253.5 -92.5t-253.5 92.5t-171 259.5t-60.5 383zM324 717q0 -238 69.5 -386.5t181.5 -148.5t182 148.5t70 386.5t-70 386t-182 148t-181.5 -148t-69.5 -386z" />
<glyph unicode="1" horiz-adv-x="692" d="M63 1198v176l451 70v-1444h-225v1237z" />
<glyph unicode="2" horiz-adv-x="1069" d="M70 987q0 207 127.5 336t332.5 129q204 0 331.5 -129t127.5 -336q0 -201 -143 -344l-451 -450h594v-193h-909v186l608 609q66 66 66 192q0 117 -62.5 189.5t-161.5 72.5q-100 0 -162.5 -72.5t-62.5 -189.5h-235z" />
<glyph unicode="3" horiz-adv-x="1099" d="M80 428h233q0 -109 66 -177.5t170 -68.5t169.5 68.5t65.5 177.5t-65.5 179.5t-169.5 70.5h-94v188h94q83 0 135.5 55t52.5 140t-52.5 137.5t-135.5 52.5t-136 -52.5t-53 -137.5h-233q0 173 117.5 282t304.5 109q189 0 305.5 -108.5t116.5 -282.5q0 -192 -150 -285 q199 -110 199 -348q0 -198 -130.5 -322t-340.5 -124t-339.5 123.5t-129.5 322.5z" />
<glyph unicode="4" horiz-adv-x="1150" d="M70 256v100l630 1078h228v-985h119v-193h-111v-256h-225v256h-641zM352 449h367v647z" />
<glyph unicode="5" horiz-adv-x="1095" d="M70 430h227q0 -109 64.5 -177.5t168.5 -68.5q99 0 161.5 72.5t62.5 189.5q0 128 -72.5 207.5t-189.5 79.5q-122 0 -197 -78l-164 56l80 723h668v-193h-467l-39 -332q58 25 131 25q218 0 351.5 -134.5t133.5 -353.5q0 -207 -127.5 -335.5t-331.5 -128.5q-205 0 -332.5 124 t-127.5 324z" />
<glyph unicode="6" horiz-adv-x="1085" d="M80 457q0 117 35.5 238t106.5 247.5t156.5 245.5t207.5 264l194 -111q-216 -250 -336 -473q46 19 103 19q204 0 331.5 -123.5t127.5 -327.5q0 -203 -127.5 -328.5t-337.5 -125.5q-208 0 -334.5 127t-126.5 348zM313 438q0 -114 64 -185t166 -71q101 0 165 71t64 185 t-64 185t-165 71q-102 0 -166 -71t-64 -185z" />
<glyph unicode="7" horiz-adv-x="1095" d="M90 1241v193h916v-66l-484 -1368h-239l430 1241h-623z" />
<glyph unicode="8" horiz-adv-x="1101" d="M80 428q0 239 194 348q-145 92 -145 285q0 174 116.5 282.5t305.5 108.5t305.5 -108.5t116.5 -282.5q0 -192 -150 -285q199 -110 199 -348q0 -198 -130.5 -322t-340.5 -124t-340.5 124t-130.5 322zM315 428q0 -109 66 -177.5t170 -68.5t169.5 68.5t65.5 177.5 t-65.5 177.5t-169.5 68.5t-170 -68.5t-66 -177.5zM362 1061q0 -85 53 -138t136 -53t135.5 53t52.5 138t-52.5 137.5t-135.5 52.5t-136 -52.5t-53 -137.5z" />
<glyph unicode="9" horiz-adv-x="1085" d="M80 997q0 203 127.5 329t337.5 126q208 0 334.5 -127t126.5 -348q0 -117 -35.5 -238t-106.5 -247.5t-156.5 -245.5t-207.5 -264l-195 110q216 250 336 473q-43 -18 -102 -18q-204 0 -331.5 123t-127.5 327zM313 995q0 -114 64 -185t166 -71q101 0 165 71t64 185t-64 185 t-165 71q-102 0 -166 -71t-64 -185z" />
<glyph unicode=":" d="M96 117q0 57 39 96t96 39t96.5 -39t39.5 -96t-39.5 -96t-96.5 -39t-96 39t-39 96zM96 805q0 57 39 96t96 39t96.5 -39t39.5 -96t-39.5 -96t-96.5 -39t-96 39t-39 96z" />
<glyph unicode=";" d="M92 -184q87 90 111 170q-46 9 -76.5 45.5t-30.5 85.5q0 57 39 96t96 39q54 0 95 -36t41 -116q0 -93 -56 -180t-145 -176zM96 805q0 57 39 96t96 39t96.5 -39t39.5 -96t-39.5 -96t-96.5 -39t-96 39t-39 96z" />
<glyph unicode="&#x3c;" horiz-adv-x="839" d="M51 614l596 398l129 -129l-409 -269l409 -268l-129 -129z" />
<glyph unicode="=" horiz-adv-x="940" d="M96 268v174h748v-174h-748zM96 633v176h748v-176h-748z" />
<glyph unicode="&#x3e;" horiz-adv-x="839" d="M59 346l410 268l-410 269l129 129l596 -398l-596 -397z" />
<glyph unicode="?" horiz-adv-x="978" d="M59 1296q186 156 412 156q195 0 311.5 -109t116.5 -270q0 -60 -17.5 -108.5t-45 -81t-61 -61t-66.5 -56t-60.5 -57.5t-45 -73.5t-17.5 -96.5v-121h-226v121q0 72 17 132t44 100.5t59.5 73.5t65 59t59.5 50t44 53t17 62q0 69 -53 125.5t-148 56.5q-70 0 -139 -27.5 t-121 -72.5zM338 117q0 57 39 96t96 39t96 -39t39 -96t-39 -96t-96 -39t-96 39t-39 96z" />
<glyph unicode="@" horiz-adv-x="2129" d="M80 461q0 218 72 402.5t201 314t313 202t403 72.5q218 0 403 -71t311 -194t196.5 -290.5t70.5 -357.5q0 -122 -30 -220t-77.5 -159.5t-111 -103t-127 -58t-129.5 -16.5q-88 0 -155.5 29t-102.5 83q-115 -112 -285 -112q-193 0 -311.5 132.5t-118.5 346.5t137 346.5 t359 132.5q134 0 241 -46.5t170 -131.5v-463q0 -58 34 -87.5t81 -29.5q78 0 135.5 82t57.5 248q0 214 -93.5 382t-264 262.5t-390.5 94.5q-223 0 -395 -99t-266.5 -279t-94.5 -412q0 -174 55 -321t154 -250.5t241.5 -161.5t313.5 -58q168 0 321.5 56t252.5 159l141 -141 q-126 -133 -314.5 -203.5t-406.5 -70.5q-220 0 -405 72.5t-313.5 202t-200.5 314t-72 402.5zM836 461q0 -124 72 -201.5t188 -77.5q119 0 188 72v428q-72 57 -192 57q-114 0 -185 -77t-71 -201z" />
<glyph unicode="A" horiz-adv-x="1560" d="M33 0l637 1434h219l637 -1434h-271l-151 344h-651l-148 -344h-272zM537 553h483l-240 577z" />
<glyph unicode="B" horiz-adv-x="1134" d="M121 0v1434h436q182 0 293 -102.5t111 -274.5q0 -95 -37.5 -172t-104.5 -123q101 -46 159 -140.5t58 -218.5q0 -184 -118.5 -293.5t-313.5 -109.5h-483zM362 201h232q94 0 151.5 60.5t57.5 160.5q0 98 -57.5 158.5t-151.5 60.5h-232v-440zM362 842h179q83 0 134.5 53 t51.5 141q0 89 -51.5 143t-134.5 54h-179v-391z" />
<glyph unicode="C" horiz-adv-x="1419" d="M90 717q0 216 91.5 383t258 259.5t381.5 92.5q161 0 297 -53.5t234 -151.5l-150 -149q-139 145 -368 145q-223 0 -362.5 -146.5t-139.5 -379.5t139.5 -380t362.5 -147q227 0 368 144l150 -148q-98 -98 -234 -151t-297 -53q-215 0 -381.5 92.5t-258 259.5t-91.5 383z" />
<glyph unicode="D" horiz-adv-x="1427" d="M121 0v1434h485q217 0 383.5 -88t258 -251t91.5 -378t-91.5 -378t-258 -251t-383.5 -88h-485zM362 201h244q219 0 354.5 142t135.5 374t-135.5 374t-354.5 142h-244v-1032z" />
<glyph unicode="E" horiz-adv-x="989" d="M121 0v1434h778v-193h-545v-426h482v-192h-482v-430h555v-193h-788z" />
<glyph unicode="F" horiz-adv-x="944" d="M121 0v1434h753v-193h-520v-426h455v-192h-455v-623h-233z" />
<glyph unicode="G" horiz-adv-x="1472" d="M90 717q0 216 91.5 383t258 259.5t381.5 92.5q161 0 297 -53.5t234 -151.5l-150 -149q-139 145 -368 145q-223 0 -362.5 -146.5t-139.5 -379.5t139.5 -380t362.5 -147q163 0 282 78v324h-295v192h531v-598q-98 -98 -234 -151t-297 -53q-215 0 -381.5 92.5t-258 259.5 t-91.5 383z" />
<glyph unicode="H" horiz-adv-x="1400" d="M121 0v1434h233v-619h690v619h236v-1434h-236v623h-690v-623h-233z" />
<glyph unicode="I" horiz-adv-x="471" d="M119 0v1434h233v-1434h-233z" />
<glyph unicode="J" horiz-adv-x="921" d="M70 98l149 150q58 -58 148 -58q89 0 145.5 58.5t56.5 152.5v1033h234v-1033q0 -187 -119 -303t-307 -116q-91 0 -171 30.5t-136 85.5z" />
<glyph unicode="K" horiz-adv-x="1263" d="M119 0v1434h233v-684l533 684h295l-543 -697l592 -737h-301l-576 723v-723h-233z" />
<glyph unicode="L" horiz-adv-x="946" d="M121 0v1434h233v-1241h523v-193h-756z" />
<glyph unicode="M" horiz-adv-x="1630" d="M121 0v1434h174l520 -791l520 791h174v-1434h-233v956l-418 -655h-86l-418 655v-956h-233z" />
<glyph unicode="N" horiz-adv-x="1449" d="M121 0v1434h149l824 -985v985h235v-1434h-151l-824 985v-985h-233z" />
<glyph unicode="O" horiz-adv-x="1642" d="M90 717q0 216 91.5 383t258 259.5t381.5 92.5t381.5 -92.5t258 -259.5t91.5 -383t-91.5 -383t-258 -259.5t-381.5 -92.5t-381.5 92.5t-258 259.5t-91.5 383zM332 717q0 -233 136 -380t353 -147t353.5 147t136.5 380t-136.5 379.5t-353.5 146.5t-353 -146.5t-136 -379.5z " />
<glyph unicode="P" horiz-adv-x="1083" d="M121 0v1434h422q203 0 326.5 -114.5t123.5 -305.5t-123.5 -305.5t-326.5 -114.5h-181v-594h-241zM362 795h181q94 0 151.5 60.5t57.5 158.5t-57.5 158.5t-151.5 60.5h-181v-438z" />
<glyph unicode="Q" horiz-adv-x="1642" d="M90 717q0 216 91.5 383t258 259.5t381.5 92.5t381.5 -92.5t258 -259.5t91.5 -383q0 -264 -139 -455l160 -160l-148 -149l-161 162q-185 -133 -443 -133q-215 0 -381.5 92.5t-258 259.5t-91.5 383zM332 717q0 -234 135.5 -380.5t353.5 -146.5q179 0 291 76l-207 209 l146 146l186 -187q74 128 74 283q0 233 -136.5 379.5t-353.5 146.5q-218 0 -353.5 -146t-135.5 -380z" />
<glyph unicode="R" horiz-adv-x="1120" d="M121 0v1434h440q203 0 327 -114.5t124 -305.5q0 -144 -72.5 -247t-200.5 -146l342 -621h-266l-305 594h-148v-594h-241zM362 795h199q94 0 151.5 60.5t57.5 158.5t-57.5 158.5t-151.5 60.5h-199v-438z" />
<glyph unicode="S" horiz-adv-x="1126" d="M76 190l143 144q63 -65 147.5 -104.5t168.5 -39.5q60 0 108 20t76 52t42.5 68.5t14.5 72.5q0 55 -36.5 95.5t-94.5 67t-128.5 51.5t-141.5 58.5t-129 77.5t-94.5 118t-36.5 171q0 175 111 292.5t311 117.5q127 0 244 -49t204 -137l-145 -144q-48 50 -126 85.5t-151 35.5 q-101 0 -154 -60.5t-53 -133.5q0 -50 28.5 -89t75 -64t106.5 -51t122 -47.5t122 -56.5t106.5 -76t75 -107.5t28.5 -149.5q0 -87 -30.5 -163.5t-87.5 -135.5t-146 -93t-199 -34q-279 0 -481 208z" />
<glyph unicode="T" horiz-adv-x="1138" d="M70 1241v193h999v-193h-383v-1241h-233v1241h-383z" />
<glyph unicode="U" horiz-adv-x="1345" d="M121 528v906h233v-906q0 -150 88.5 -244t227.5 -94q143 0 232 93.5t89 244.5v906h234v-906q0 -244 -153.5 -395t-401.5 -151q-247 0 -398 150.5t-151 395.5z" />
<glyph unicode="V" horiz-adv-x="1560" d="M33 1434h278l469 -1125l469 1125h277l-637 -1434h-219z" />
<glyph unicode="W" horiz-adv-x="2265" d="M33 1434h274l363 -1065l342 1065h241l342 -1065l363 1065h272l-518 -1434h-235l-347 1024l-342 -1024h-235z" />
<glyph unicode="X" horiz-adv-x="1505" d="M35 0l545 727l-529 707h303l398 -545l397 545h303l-528 -707l546 -727h-301l-417 569l-416 -569h-301z" />
<glyph unicode="Y" horiz-adv-x="1390" d="M33 1434h270l391 -615l391 615h271l-545 -846v-588h-236v590z" />
<glyph unicode="Z" horiz-adv-x="1282" d="M90 0v68l756 1173h-746v193h1090v-66l-756 -1175h758v-193h-1102z" />
<glyph unicode="[" horiz-adv-x="612" d="M119 -512v2048h418v-176h-193v-1696h193v-176h-418z" />
<glyph unicode="\" horiz-adv-x="1153" d="M78 1536h227l770 -1638h-227z" />
<glyph unicode="]" horiz-adv-x="612" d="M76 -336h192v1696h-192v176h418v-2048h-418v176z" />
<glyph unicode="^" horiz-adv-x="899" d="M51 1024l400 397l397 -397l-113 -113l-284 285l-287 -285z" />
<glyph unicode="_" horiz-adv-x="921" d="M0 -205h922v-176h-922v176z" />
<glyph unicode="`" horiz-adv-x="548" d="M76 1309l112 112l285 -284l-113 -113z" />
<glyph unicode="a" horiz-adv-x="944" d="M74 246q0 98 61.5 169t158.5 104.5t216 33.5q37 0 61 -4v67q0 54 -39.5 97t-111.5 43q-48 0 -99.5 -20t-80.5 -50l-121 121q136 133 321 133q164 0 261.5 -93t97.5 -231v-399q0 -32 16.5 -51t44.5 -19v-147q-20 -10 -78 -10q-131 0 -186 102q-107 -110 -254 -110 q-125 0 -196.5 77.5t-71.5 186.5zM301 270q0 -40 29 -72t88 -32q40 0 82.5 16.5t70.5 50.5v166q-24 7 -49 7q-94 0 -157.5 -37.5t-63.5 -98.5z" />
<glyph unicode="b" horiz-adv-x="1105" d="M119 160v1376h225v-657q103 61 234 61q200 0 324 -132.5t124 -346.5t-136.5 -346.5t-357.5 -132.5q-136 0 -243 46.5t-170 131.5zM344 240q67 -58 193 -58q114 0 185 77.5t71 201.5t-69.5 201t-182.5 77q-128 0 -197 -88v-411z" />
<glyph unicode="c" horiz-adv-x="960" d="M80 461q0 214 132 346.5t347 132.5q206 0 344 -141l-139 -137q-68 77 -193 77q-114 0 -186 -77t-72 -201t72 -201.5t186 -77.5q125 0 193 78l139 -139q-136 -139 -344 -139q-215 0 -347 132.5t-132 346.5z" />
<glyph unicode="d" horiz-adv-x="1105" d="M80 461q0 214 129.5 346.5t341.5 132.5q119 0 211 -47v643h225v-1536h-225v66q-111 -84 -252 -84q-193 0 -311.5 132.5t-118.5 346.5zM313 461q0 -124 72 -201.5t186 -77.5q123 0 191 74v416q-70 67 -191 67q-114 0 -186 -77t-72 -201z" />
<glyph unicode="e" horiz-adv-x="1032" d="M80 467q0 210 124 341.5t326 131.5q208 0 319.5 -144t111.5 -403h-642q18 -98 85.5 -154.5t177.5 -56.5q128 0 200 78l136 -139q-136 -139 -353 -139t-351 133t-134 352zM319 549h416q-14 93 -63.5 144.5t-134.5 51.5q-87 0 -145 -53t-73 -143z" />
<glyph unicode="f" horiz-adv-x="692" d="M63 745v177h119v284q0 160 92.5 254t251.5 94q71 0 115 -20v-186q-27 16 -70 16q-71 0 -113 -43.5t-42 -114.5v-284h225v-177h-225v-745h-234v745h-119z" />
<glyph unicode="g" horiz-adv-x="1062" d="M29 -231q0 165 194 243q-102 55 -102 154q0 96 108 153q-68 42 -103.5 114t-35.5 159q0 157 108 252.5t281 95.5q161 0 266 -84q71 84 164 84q38 0 56 -4v-178q-21 6 -43 6q-43 0 -80 -43q22 -58 22 -123q0 -154 -107 -249t-282 -95q-66 0 -100.5 -22.5t-34.5 -59.5 t45.5 -59.5t122.5 -22.5q205 0 332 -82.5t127 -216.5q0 -93 -63.5 -166.5t-176 -114t-252.5 -40.5q-202 0 -324 83t-122 216zM264 -231q0 -59 56 -94t153 -35q109 0 184.5 41.5t75.5 105.5q0 58 -62 93.5t-163 35.5q-109 0 -176.5 -40.5t-67.5 -106.5zM317 598 q0 -74 46 -121t118 -47t118 47t46 121q0 73 -46 119.5t-118 46.5t-118 -46.5t-46 -119.5z" />
<glyph unicode="h" horiz-adv-x="1058" d="M119 0v1536h225v-682q106 86 250 86q157 0 250.5 -107.5t93.5 -283.5v-549h-225v549q0 85 -49.5 137.5t-128.5 52.5q-122 0 -191 -75v-664h-225z" />
<glyph unicode="i" d="M96 1198q0 57 39 96t96 39t96.5 -39t39.5 -96t-39.5 -96t-96.5 -39t-96 39t-39 96zM119 0v922h225v-922h-225z" />
<glyph unicode="j" d="M23 -365q43 0 69.5 26t26.5 71v1190h225v-1196q0 -113 -60.5 -180.5t-172.5 -67.5q-63 0 -88 10v147zM96 1198q0 57 39 96t96 39t96.5 -39t39.5 -96t-39.5 -96t-96.5 -39t-96 39t-39 96z" />
<glyph unicode="k" horiz-adv-x="987" d="M119 0v1536h225v-991l301 377h266l-352 -430l391 -492h-264l-342 436v-436h-225z" />
<glyph unicode="l" horiz-adv-x="522" d="M119 238v1298h225v-1292q0 -45 29 -71t76 -26v-147q-23 -10 -95 -10q-113 0 -174 67.5t-61 180.5z" />
<glyph unicode="m" horiz-adv-x="1554" d="M119 0v922h225v-68q106 86 250 86q157 0 237 -123q123 123 308 123q137 0 217 -94.5t80 -249.5v-596h-226v596q0 63 -36 103t-93 40q-122 0 -196 -61q6 -40 6 -82v-596h-227v596q0 63 -35.5 103t-93.5 40q-122 0 -191 -75v-664h-225z" />
<glyph unicode="n" horiz-adv-x="1056" d="M119 0v922h225v-68q106 86 250 86q157 0 250.5 -107.5t93.5 -283.5v-549h-225v549q0 85 -49.5 137.5t-128.5 52.5q-122 0 -191 -75v-664h-225z" />
<glyph unicode="o" horiz-adv-x="1130" d="M80 461q0 214 134 346.5t351 132.5t351.5 -132.5t134.5 -346.5t-134.5 -346.5t-351.5 -132.5t-351 132.5t-134 346.5zM313 461q0 -125 70 -202t182 -77t182 77t70 202q0 124 -69.5 201t-182.5 77t-182.5 -77t-69.5 -201z" />
<glyph unicode="p" horiz-adv-x="1105" d="M119 -512v1434h225v-68q109 86 254 86q192 0 311 -132.5t119 -346.5t-130 -346.5t-339 -132.5q-119 0 -215 49v-543h-225zM344 250q68 -68 191 -68q115 0 186.5 77t71.5 202q0 124 -71 201t-187 77q-122 0 -191 -75v-414z" />
<glyph unicode="q" horiz-adv-x="1105" d="M80 461q0 214 136 346.5t357 132.5q136 0 243.5 -46.5t170.5 -131.5v-1274h-225v553q-100 -59 -234 -59q-200 0 -324 132.5t-124 346.5zM313 461q0 -125 70 -202t182 -77q127 0 197 86v414q-72 57 -193 57q-115 0 -185.5 -76.5t-70.5 -201.5z" />
<glyph unicode="r" horiz-adv-x="712" d="M119 0v922h225v-95q101 109 223 109q18 0 58 -4v-197q-29 10 -74 10q-65 0 -118.5 -31t-88.5 -85v-629h-225z" />
<glyph unicode="s" horiz-adv-x="792" d="M66 117l137 139q34 -39 80.5 -63.5t91.5 -24.5q58 0 88.5 32.5t30.5 71.5q0 29 -22 51t-57 37t-77.5 30.5t-85 37t-77.5 49.5t-57 74t-22 106q0 119 79 201t222 82q88 0 167 -31.5t136 -89.5l-137 -137q-27 28 -68 49t-79 21q-47 0 -69.5 -27.5t-22.5 -62.5t29.5 -62 t73 -43t95 -39.5t95 -50t73 -76.5t29.5 -117q0 -123 -88 -207.5t-240 -84.5q-94 0 -178.5 35.5t-146.5 99.5z" />
<glyph unicode="t" horiz-adv-x="681" d="M61 745v177h109v204h233v-204h207v-177h-207v-426q0 -66 37.5 -106.5t100.5 -40.5q42 0 69 16v-186q-44 -20 -112 -20q-152 0 -240 90.5t-88 246.5v426h-109z" />
<glyph unicode="u" horiz-adv-x="1071" d="M119 391v531h233v-531q0 -92 53 -150.5t136 -58.5q84 0 136 58t52 151v531h223v-531q0 -183 -115 -296t-302 -113q-185 0 -300.5 113t-115.5 296z" />
<glyph unicode="v" horiz-adv-x="1081" d="M25 922h251l265 -639l264 639h252l-412 -922h-209z" />
<glyph unicode="w" horiz-adv-x="1613" d="M25 922h260l207 -646l202 646h226l202 -646l207 646h260l-350 -922h-235l-197 602l-197 -602h-235z" />
<glyph unicode="x" horiz-adv-x="1075" d="M35 0l354 471l-338 451h262l224 -308l223 308h260l-336 -451l354 -471h-258l-243 330l-242 -330h-260z" />
<glyph unicode="y" horiz-adv-x="1081" d="M25 922h251l267 -648l262 648h252l-649 -1434h-252l280 512z" />
<glyph unicode="z" horiz-adv-x="970" d="M90 0v68l455 677h-447v177h783v-66l-455 -680h455v-176h-791z" />
<glyph unicode="{" horiz-adv-x="632" d="M70 424v168q53 0 92 86t39 217v188q0 207 103.5 339t260.5 132v-165q-54 0 -92.5 -87t-38.5 -219v-188q0 -132 -46 -232.5t-126 -154.5q80 -54 126 -154.5t46 -232.5v-180q0 -132 38.5 -219t92.5 -87v-165q-157 0 -260.5 132t-103.5 339v180q0 131 -39 217t-92 86z" />
<glyph unicode="|" d="M119 -512v2048h225v-2048h-225z" />
<glyph unicode="}" horiz-adv-x="632" d="M70 -365q53 0 92 87.5t39 218.5v180q0 133 45 233t125 154q-80 54 -125 154t-45 233v188q0 131 -39 218.5t-92 87.5v165q157 0 260.5 -132t103.5 -339v-188q0 -132 38.5 -217.5t92.5 -85.5v-168q-54 0 -92.5 -85.5t-38.5 -217.5v-180q0 -207 -103.5 -339t-260.5 -132v165 z" />
<glyph unicode="~" horiz-adv-x="884" d="M51 498q0 107 71.5 176t174.5 69q51 0 95 -18t69.5 -40t59.5 -40t67 -18q42 0 71 30t29 76h146q0 -108 -70.5 -177t-175.5 -69q-52 0 -96 18.5t-69 41t-58 41t-66 18.5q-44 0 -73 -29.5t-29 -78.5h-146z" />
<glyph unicode="&#xa1;" d="M96 805q0 57 39 96t96 39t96.5 -39t39.5 -96t-39.5 -96t-96.5 -39t-96 39t-39 96zM119 504h225v-1016h-225v1016z" />
<glyph unicode="&#xa2;" horiz-adv-x="960" d="M80 461q0 192 108.5 320t290.5 153v192h125v-188q175 -15 299 -139l-139 -137q-59 66 -160 75v-555q104 13 160 78l139 -139q-119 -122 -299 -137v-189h-125v193q-182 25 -290.5 152.5t-108.5 320.5zM313 461q0 -97 44.5 -166.5t121.5 -97.5v526q-77 -26 -121.5 -96 t-44.5 -166z" />
<glyph unicode="&#xa3;" horiz-adv-x="1062" d="M59 0q0 96 43 166.5t117 103.5v359h-149v176h149v227q0 187 119 303.5t307 116.5q92 0 172 -31t137 -86l-149 -149q-57 57 -150 57q-89 0 -144.5 -58.5t-55.5 -152.5v-227h336v-176h-336v-357q35 -13 82.5 -40.5t86 -44.5t74.5 -17q46 0 75.5 29.5t29.5 76.5h178 q0 -133 -78.5 -213.5t-200.5 -80.5q-57 0 -111 20t-89 43.5t-78 43.5t-80 20q-47 0 -75.5 -29.5t-28.5 -79.5h-181z" />
<glyph unicode="&#xa4;" horiz-adv-x="1126" d="M70 246l170 170q-50 83 -50 198q0 114 50 197l-170 172l123 125l176 -174q87 49 194 49q108 0 195 -49l176 174l123 -125l-172 -172q53 -83 53 -197q0 -115 -53 -198l172 -170l-125 -125l-174 174q-87 -49 -195 -49q-107 0 -194 49l-174 -174zM391 614q0 -89 47.5 -144.5 t124.5 -55.5t125.5 55.5t48.5 144.5t-48.5 145t-125.5 56q-76 0 -124 -56t-48 -145z" />
<glyph unicode="&#xa5;" horiz-adv-x="1390" d="M33 1434h270l391 -615l391 615h271l-545 -846v-39h260v-125h-260v-133h260v-125h-260v-166h-236v166h-260v125h260v133h-260v125h260v41z" />
<glyph unicode="&#xa6;" d="M119 410h225v-922h-225v922zM119 614v922h225v-922h-225z" />
<glyph unicode="&#xa7;" horiz-adv-x="878" d="M61 -391l144 143q67 -80 184 -80q77 0 126.5 48.5t49.5 123.5q0 96 -65 164l-410 412l150 149l415 -415q144 -144 144 -310q0 -167 -113.5 -270.5t-296.5 -103.5q-202 0 -328 139zM80 1077q0 167 113 271t296 104q198 0 328 -139l-143 -144q-67 80 -185 80 q-77 0 -126.5 -48.5t-49.5 -123.5q0 -98 66 -164l409 -411l-149 -150l-416 416q-143 143 -143 309z" />
<glyph unicode="&#xa8;" horiz-adv-x="901" d="M117 1169q0 53 37.5 90t89.5 37q54 0 90.5 -37t36.5 -90q0 -54 -36.5 -90.5t-90.5 -36.5q-53 0 -90 36.5t-37 90.5zM510 1169q0 54 37 91.5t90 37.5q55 0 92 -37.5t37 -91.5t-37 -90.5t-92 -36.5q-53 0 -90 36.5t-37 90.5z" />
<glyph unicode="&#xa9;" horiz-adv-x="1642" d="M90 717q0 216 91.5 383t258 259.5t381.5 92.5t381.5 -92.5t258 -259.5t91.5 -383t-91.5 -383t-258 -259.5t-381.5 -92.5t-381.5 92.5t-258 259.5t-91.5 383zM258 717q0 -269 156.5 -437.5t406.5 -168.5t406.5 168.5t156.5 437.5t-156.5 437.5t-406.5 168.5t-406.5 -168.5 t-156.5 -437.5zM471 717q0 164 102.5 266t266.5 102q165 0 264 -104l-82 -80q-67 70 -176 70q-106 0 -173 -71t-67 -183t67 -183t173 -71q113 0 176 69l82 -79q-100 -105 -264 -105t-266.5 102.5t-102.5 266.5z" />
<glyph unicode="&#xaa;" horiz-adv-x="540" d="M49 1061q0 81 69 126.5t169 45.5q9 0 20.5 -1t14.5 -1v31q0 28 -21 50.5t-59 22.5q-27 0 -54.5 -11t-42.5 -28l-71 72q76 76 180 76q91 0 146 -52.5t55 -129.5v-211q0 -37 32 -37v-88q-18 -6 -47 -6q-73 0 -102 57q-59 -62 -141 -62q-68 0 -108 43t-40 103zM184 1077 q0 -22 14 -37.5t44 -15.5q52 0 80 35v84q-8 2 -29 2q-45 0 -77 -18.5t-32 -49.5z" />
<glyph unicode="&#xab;" horiz-adv-x="962" d="M51 512l359 356l112 -112l-246 -244l246 -244l-112 -112zM414 512l356 356l113 -112l-244 -244l244 -244l-113 -112z" />
<glyph unicode="&#xac;" horiz-adv-x="1024" d="M96 526v176h832v-405h-176v229h-656z" />
<glyph unicode="&#xad;" horiz-adv-x="696" d="M96 461v176h504v-176h-504z" />
<glyph unicode="&#xae;" horiz-adv-x="1642" d="M90 717q0 216 91.5 383t258 259.5t381.5 92.5t381.5 -92.5t258 -259.5t91.5 -383t-91.5 -383t-258 -259.5t-381.5 -92.5t-381.5 92.5t-258 259.5t-91.5 383zM258 717q0 -269 156.5 -437.5t406.5 -168.5t406.5 168.5t156.5 437.5t-156.5 437.5t-406.5 168.5t-406.5 -168.5 t-156.5 -437.5zM594 356v717h227q104 0 168 -58t64 -155q0 -71 -35 -121.5t-98 -74.5l170 -308h-150l-145 291h-66v-291h-135zM729 758h92q43 0 70 28t27 74t-27 74.5t-70 28.5h-92v-205z" />
<glyph unicode="&#xaf;" horiz-adv-x="735" d="M100 1087v134h535v-134h-535z" />
<glyph unicode="&#xb0;" horiz-adv-x="587" d="M80 1225q0 98 59.5 158.5t155.5 60.5q97 0 156 -60.5t59 -158.5q0 -100 -59 -160.5t-156 -60.5q-96 0 -155.5 61t-59.5 160zM190 1223q0 -47 29.5 -77t75.5 -30q47 0 76.5 30t29.5 77q0 49 -30 78.5t-76 29.5t-75.5 -29.5t-29.5 -78.5z" />
<glyph unicode="&#xb1;" horiz-adv-x="870" d="M96 39v174h678v-174h-678zM96 528v177h252v249h174v-249h252v-177h-252v-252h-174v252h-252z" />
<glyph unicode="&#xb2;" horiz-adv-x="577" d="M53 1208q0 104 65 170t169 66t168.5 -65.5t64.5 -170.5q0 -95 -74 -172l-215 -213h289v-106h-463v102l301 301q31 31 31 88q0 55 -28.5 89t-73.5 34q-46 0 -75.5 -34t-29.5 -89h-129z" />
<glyph unicode="&#xb3;" horiz-adv-x="593" d="M59 934h129q0 -52 30.5 -83.5t78.5 -31.5t78.5 31.5t30.5 83.5q0 50 -31 82.5t-78 32.5h-47v104h47q38 0 62 25.5t24 64.5q0 40 -24 64t-62 24t-62 -24t-24 -64h-131q0 89 60.5 145t156.5 56q97 0 157 -56t60 -145q0 -93 -72 -139q95 -56 95 -170q0 -101 -66.5 -164 t-173.5 -63q-106 0 -172 63t-66 164z" />
<glyph unicode="&#xb4;" horiz-adv-x="548" d="M76 1137l284 284l113 -112l-285 -285z" />
<glyph unicode="&#xb5;" horiz-adv-x="1071" d="M23 -262q43 0 69.5 25.5t26.5 70.5v1088h233v-531q0 -92 53 -150.5t136 -58.5q84 0 136 58t52 151v531h223v-531q0 -183 -115 -296t-302 -113q-107 0 -191 38v-192q0 -113 -60.5 -180.5t-172.5 -67.5q-63 0 -88 10v148z" />
<glyph unicode="&#xb6;" horiz-adv-x="1275" d="M90 1030q0 183 119.5 293.5t314.5 110.5h260v-1434h-217v627h-43q-195 0 -314.5 110t-119.5 293zM940 0v1434h217v-1434h-217z" />
<glyph unicode="&#xb7;" d="M96 512q0 57 39 96t96 39t96.5 -39t39.5 -96t-39.5 -96t-96.5 -39t-96 39t-39 96z" />
<glyph unicode="&#xb8;" horiz-adv-x="555" d="M137 -399l68 67q29 -26 67 -26q39 0 63.5 23t24.5 61q0 40 -33 65t-102 25v184h92v-111q63 -14 100.5 -57.5t37.5 -110.5q0 -77 -51.5 -125.5t-131.5 -48.5q-81 0 -135 54z" />
<glyph unicode="&#xb9;" horiz-adv-x="395" d="M51 1307v96l238 37v-723h-125v608z" />
<glyph unicode="&#xba;" horiz-adv-x="643" d="M53 1180q0 118 74.5 191t194.5 73t194 -73t74 -191q0 -119 -74 -192t-194 -73t-194.5 73.5t-74.5 191.5zM190 1180q0 -66 36.5 -106t95.5 -40t95 40t36 106q0 65 -36.5 105t-94.5 40q-59 0 -95.5 -40.5t-36.5 -104.5z" />
<glyph unicode="&#xbb;" horiz-adv-x="962" d="M76 268l243 244l-243 244l112 112l357 -356l-357 -356zM438 268l244 244l-244 244l113 112l356 -356l-356 -356z" />
<glyph unicode="&#xbc;" horiz-adv-x="1308" d="M51 1307v96l238 37v-723h-125v608zM176 0l770 1434h160l-770 -1434h-160zM741 125v53l314 539h123v-486h59v-106h-53v-125h-125v125h-318zM897 231h168v299z" />
<glyph unicode="&#xbd;" horiz-adv-x="1419" d="M51 1307v96l238 37v-723h-125v608zM176 0l770 1434h160l-770 -1434h-160zM895 492q0 105 65 170t170 65q103 0 167.5 -65.5t64.5 -169.5q0 -99 -74 -173l-213 -213h287v-106h-463v102l303 301q31 31 31 89q0 55 -29 88.5t-74 33.5q-46 0 -75 -33.5t-29 -88.5h-131z" />
<glyph unicode="&#xbe;" horiz-adv-x="1363" d="M59 934h129q0 -52 30.5 -83.5t78.5 -31.5t78.5 31.5t30.5 83.5q0 50 -31 82.5t-78 32.5h-47v104h47q38 0 62 25.5t24 64.5q0 40 -24 64t-62 24t-62 -24t-24 -64h-131q0 89 60.5 145t156.5 56q97 0 157 -56t60 -145q0 -93 -72 -139q95 -56 95 -170q0 -101 -66.5 -164 t-173.5 -63q-106 0 -172 63t-66 164zM274 0l768 1434h160l-768 -1434h-160zM795 125v53l313 539h125v-486h59v-106h-55v-125h-125v125h-317zM950 231h168v299z" />
<glyph unicode="&#xbf;" horiz-adv-x="978" d="M80 -152q0 60 17 108.5t44.5 81t60.5 61t66.5 56t61 58t44.5 74t17 96.5v121h227v-121q0 -72 -17 -132t-43.5 -100.5t-59 -73.5t-65.5 -59t-59.5 -50t-43.5 -53t-17 -62q0 -70 52.5 -126.5t148.5 -56.5q69 0 137.5 28t120.5 73l146 -146q-181 -155 -410 -155 q-195 0 -311.5 108.5t-116.5 269.5zM369 805q0 57 39.5 96t95.5 39q57 0 96 -39t39 -96t-39 -96t-96 -39q-56 0 -95.5 39t-39.5 96z" />
<glyph unicode="&#xc0;" horiz-adv-x="1560" d="M33 0l637 1434h219l637 -1434h-271l-151 344h-651l-148 -344h-272zM537 553h483l-240 577zM541 1776l112 112l285 -284l-113 -113z" />
<glyph unicode="&#xc1;" horiz-adv-x="1560" d="M33 0l637 1434h219l637 -1434h-271l-151 344h-651l-148 -344h-272zM537 553h483l-240 577zM623 1604l284 284l113 -112l-285 -285z" />
<glyph unicode="&#xc2;" horiz-adv-x="1560" d="M33 0l637 1434h219l637 -1434h-271l-151 344h-651l-148 -344h-272zM496 1604l284 284l285 -284l-113 -113l-172 172l-172 -172zM537 553h483l-240 577z" />
<glyph unicode="&#xc3;" horiz-adv-x="1560" d="M33 0l637 1434h219l637 -1434h-271l-151 344h-651l-148 -344h-272zM473 1546q0 90 55 146.5t140 56.5q42 0 76 -14.5t51.5 -31.5t42.5 -31.5t51 -14.5q34 0 56 23.5t22 60.5h118q0 -92 -54.5 -148.5t-141.5 -56.5q-42 0 -75 14.5t-50.5 31.5t-42 31.5t-51.5 14.5 q-34 0 -56 -23t-22 -59h-119zM537 553h483l-240 577z" />
<glyph unicode="&#xc4;" horiz-adv-x="1560" d="M33 0l637 1434h219l637 -1434h-271l-151 344h-651l-148 -344h-272zM455 1636q0 54 37 90.5t90 36.5q54 0 90.5 -36.5t36.5 -90.5q0 -53 -36.5 -90t-90.5 -37q-52 0 -89.5 37.5t-37.5 89.5zM537 553h483l-240 577zM850 1636q0 54 36.5 91.5t88.5 37.5q55 0 92 -37.5 t37 -91.5q0 -53 -37 -90t-92 -37q-52 0 -88.5 37t-36.5 90z" />
<glyph unicode="&#xc5;" horiz-adv-x="1560" d="M33 0l637 1434h219l637 -1434h-271l-151 344h-651l-148 -344h-272zM537 553h483l-240 577zM594 1667q0 86 51.5 138.5t134.5 52.5q85 0 136 -52.5t51 -138.5t-51 -139t-136 -53q-83 0 -134.5 53t-51.5 139zM688 1665q0 -43 25.5 -68.5t66.5 -25.5q42 0 68 26t26 68 t-27 69t-67 27q-41 0 -66.5 -26.5t-25.5 -69.5z" />
<glyph unicode="&#xc6;" horiz-adv-x="1595" d="M33 0l637 1434h843v-193h-499v-426h436v-192h-436v-430h510v-193h-744v344h-327l-148 -344h-272zM537 553h243v582z" />
<glyph unicode="&#xc7;" horiz-adv-x="1419" d="M90 717q0 216 91.5 383t258 259.5t381.5 92.5q161 0 297 -53.5t234 -151.5l-150 -149q-139 145 -368 145q-223 0 -362.5 -146.5t-139.5 -379.5t139.5 -380t362.5 -147q227 0 368 144l150 -148q-190 -190 -488 -202v-95q63 -14 100 -57.5t37 -110.5q0 -78 -50 -126 t-132 -48q-81 0 -135 54l68 67q29 -26 67 -26q39 0 63.5 23t24.5 61q0 40 -33 65t-102 25v168q-307 15 -494.5 216.5t-187.5 516.5z" />
<glyph unicode="&#xc8;" horiz-adv-x="989" d="M121 0v1434h778v-193h-545v-426h482v-192h-482v-430h555v-193h-788zM270 1776l113 112l285 -284l-113 -113z" />
<glyph unicode="&#xc9;" horiz-adv-x="989" d="M121 0v1434h778v-193h-545v-426h482v-192h-482v-430h555v-193h-788zM352 1604l285 284l113 -112l-285 -285z" />
<glyph unicode="&#xca;" horiz-adv-x="989" d="M121 0v1434h778v-193h-545v-426h482v-192h-482v-430h555v-193h-788zM225 1604l285 284l285 -284l-113 -113l-172 172l-172 -172z" />
<glyph unicode="&#xcb;" horiz-adv-x="989" d="M121 0v1434h778v-193h-545v-426h482v-192h-482v-430h555v-193h-788zM184 1636q0 54 37 90.5t90 36.5q54 0 90.5 -36.5t36.5 -90.5q0 -53 -36.5 -90t-90.5 -37q-53 0 -90 37.5t-37 89.5zM580 1636q0 54 36.5 91.5t90.5 37.5t90.5 -37.5t36.5 -91.5q0 -53 -36.5 -90 t-90.5 -37t-90.5 37t-36.5 90z" />
<glyph unicode="&#xcc;" horiz-adv-x="471" d="M-2 1776l113 112l284 -284l-112 -113zM119 0v1434h233v-1434h-233z" />
<glyph unicode="&#xcd;" horiz-adv-x="471" d="M80 1604l285 284l112 -112l-284 -285zM119 0v1434h233v-1434h-233z" />
<glyph unicode="&#xce;" horiz-adv-x="471" d="M-47 1604l285 284l282 -284l-112 -113l-170 172l-172 -172zM119 0v1434h233v-1434h-233z" />
<glyph unicode="&#xcf;" horiz-adv-x="471" d="M-63 1636q0 54 36 90.5t90 36.5q53 0 90 -36.5t37 -90.5q0 -52 -37 -89.5t-90 -37.5q-54 0 -90 37t-36 90zM119 0v1434h233v-1434h-233zM283 1636q0 54 36.5 91.5t90.5 37.5t90.5 -37.5t36.5 -91.5q0 -53 -36.5 -90t-90.5 -37t-90.5 37t-36.5 90z" />
<glyph unicode="&#xd0;" horiz-adv-x="1439" d="M72 629v176h94v629h452q329 0 530.5 -196t201.5 -521t-201.5 -521t-530.5 -196h-452v629h-94zM408 201h210q218 0 354 142t136 374t-136 374t-354 142h-210v-428h288v-176h-288v-428z" />
<glyph unicode="&#xd1;" horiz-adv-x="1449" d="M121 0v1434h149l824 -985v985h235v-1434h-151l-824 985v-985h-233zM418 1546q0 90 54.5 146.5t139.5 56.5q42 0 75.5 -14.5t51.5 -31.5t43 -31.5t52 -14.5q34 0 55.5 23.5t21.5 60.5h119q0 -92 -54.5 -148.5t-141.5 -56.5q-42 0 -75.5 14.5t-51 31.5t-42 31.5t-51.5 14.5 q-34 0 -55.5 -22.5t-21.5 -59.5h-119z" />
<glyph unicode="&#xd2;" horiz-adv-x="1642" d="M90 717q0 216 91.5 383t258 259.5t381.5 92.5t381.5 -92.5t258 -259.5t91.5 -383t-91.5 -383t-258 -259.5t-381.5 -92.5t-381.5 92.5t-258 259.5t-91.5 383zM332 717q0 -233 136 -380t353 -147t353.5 147t136.5 380t-136.5 379.5t-353.5 146.5t-353 -146.5t-136 -379.5z M582 1776l112 112l285 -284l-113 -113z" />
<glyph unicode="&#xd3;" horiz-adv-x="1642" d="M90 717q0 216 91.5 383t258 259.5t381.5 92.5t381.5 -92.5t258 -259.5t91.5 -383t-91.5 -383t-258 -259.5t-381.5 -92.5t-381.5 92.5t-258 259.5t-91.5 383zM332 717q0 -233 136 -380t353 -147t353.5 147t136.5 380t-136.5 379.5t-353.5 146.5t-353 -146.5t-136 -379.5z M664 1604l284 284l113 -112l-285 -285z" />
<glyph unicode="&#xd4;" horiz-adv-x="1642" d="M90 717q0 216 91.5 383t258 259.5t381.5 92.5t381.5 -92.5t258 -259.5t91.5 -383t-91.5 -383t-258 -259.5t-381.5 -92.5t-381.5 92.5t-258 259.5t-91.5 383zM332 717q0 -233 136 -380t353 -147t353.5 147t136.5 380t-136.5 379.5t-353.5 146.5t-353 -146.5t-136 -379.5z M537 1604l284 284l285 -284l-113 -113l-172 172l-172 -172z" />
<glyph unicode="&#xd5;" horiz-adv-x="1642" d="M90 717q0 216 91.5 383t258 259.5t381.5 92.5t381.5 -92.5t258 -259.5t91.5 -383t-91.5 -383t-258 -259.5t-381.5 -92.5t-381.5 92.5t-258 259.5t-91.5 383zM332 717q0 -233 136 -380t353 -147t353.5 147t136.5 380t-136.5 379.5t-353.5 146.5t-353 -146.5t-136 -379.5z M514 1546q0 90 55 146.5t140 56.5q42 0 76 -14.5t52 -31.5t43 -31.5t52 -14.5q32 0 54 24t22 60h120q0 -91 -55 -148t-141 -57q-43 0 -76.5 14.5t-50.5 31.5t-41.5 31.5t-52.5 14.5q-34 0 -55 -22.5t-21 -59.5h-121z" />
<glyph unicode="&#xd6;" horiz-adv-x="1642" d="M90 717q0 216 91.5 383t258 259.5t381.5 92.5t381.5 -92.5t258 -259.5t91.5 -383t-91.5 -383t-258 -259.5t-381.5 -92.5t-381.5 92.5t-258 259.5t-91.5 383zM332 717q0 -233 136 -380t353 -147t353.5 147t136.5 380t-136.5 379.5t-353.5 146.5t-353 -146.5t-136 -379.5z M496 1636q0 54 37 90.5t90 36.5q54 0 90.5 -36.5t36.5 -90.5q0 -53 -36.5 -90t-90.5 -37q-53 0 -90 37.5t-37 89.5zM891 1636q0 54 36.5 91.5t90.5 37.5t90.5 -37.5t36.5 -91.5q0 -53 -36.5 -90t-90.5 -37t-90.5 37t-36.5 90z" />
<glyph unicode="&#xd7;" horiz-adv-x="870" d="M94 365l217 217l-217 215l125 125l217 -217l215 217l125 -125l-217 -215l217 -217l-125 -125l-215 217l-217 -217z" />
<glyph unicode="&#xd8;" horiz-adv-x="1642" d="M78 -18l192 227q-180 199 -180 508q0 216 91.5 383t258 259.5t381.5 92.5q230 0 412 -111l94 111h238l-195 -227q182 -204 182 -508q0 -216 -91.5 -383t-258 -259.5t-381.5 -92.5q-237 0 -413 110l-95 -110h-235zM332 717q0 -192 92 -326l663 778q-120 74 -266 74 q-217 0 -353 -146.5t-136 -379.5zM553 264q115 -74 268 -74q217 0 353.5 147t136.5 380q0 188 -94 325z" />
<glyph unicode="&#xd9;" horiz-adv-x="1345" d="M121 528v906h233v-906q0 -150 88.5 -244t227.5 -94q143 0 232 93.5t89 244.5v906h234v-906q0 -244 -153.5 -395t-401.5 -151q-247 0 -398 150.5t-151 395.5zM432 1776l113 112l284 -284l-112 -113z" />
<glyph unicode="&#xda;" horiz-adv-x="1345" d="M121 528v906h233v-906q0 -150 88.5 -244t227.5 -94q143 0 232 93.5t89 244.5v906h234v-906q0 -244 -153.5 -395t-401.5 -151q-247 0 -398 150.5t-151 395.5zM514 1604l285 284l112 -112l-284 -285z" />
<glyph unicode="&#xdb;" horiz-adv-x="1345" d="M121 528v906h233v-906q0 -150 88.5 -244t227.5 -94q143 0 232 93.5t89 244.5v906h234v-906q0 -244 -153.5 -395t-401.5 -151q-247 0 -398 150.5t-151 395.5zM389 1604l283 284l284 -284l-112 -113l-172 172l-170 -172z" />
<glyph unicode="&#xdc;" horiz-adv-x="1345" d="M121 528v906h233v-906q0 -150 88.5 -244t227.5 -94q143 0 232 93.5t89 244.5v906h234v-906q0 -244 -153.5 -395t-401.5 -151q-247 0 -398 150.5t-151 395.5zM348 1636q0 54 36.5 90.5t90.5 36.5q53 0 90 -36.5t37 -90.5q0 -52 -37 -89.5t-90 -37.5q-54 0 -90.5 37 t-36.5 90zM741 1636q0 54 37 91.5t90 37.5q54 0 91.5 -37.5t37.5 -91.5q0 -53 -37.5 -90t-91.5 -37q-52 0 -89.5 37.5t-37.5 89.5z" />
<glyph unicode="&#xdd;" horiz-adv-x="1390" d="M33 1434h270l391 -615l391 615h271l-545 -846v-588h-236v590zM537 1604l284 284l113 -112l-285 -285z" />
<glyph unicode="&#xde;" horiz-adv-x="1083" d="M121 0v1434h241v-277h181q203 0 326.5 -115t123.5 -307q0 -190 -123.5 -305t-326.5 -115h-181v-315h-241zM362 516h181q94 0 151.5 60.5t57.5 158.5q0 100 -57.5 160.5t-151.5 60.5h-181v-440z" />
<glyph unicode="&#xdf;" horiz-adv-x="1249" d="M119 0v1139q0 186 122.5 300.5t319.5 114.5q200 0 323.5 -114.5t123.5 -298.5q0 -128 -59 -225.5t-161 -143.5q0 -48 21.5 -82.5t55.5 -56.5t75.5 -41.5t83 -43t75.5 -54t55.5 -83t21.5 -122.5q0 -128 -88 -217.5t-238 -89.5q-95 0 -180.5 35.5t-147.5 99.5l137 139 q34 -39 80.5 -63.5t91.5 -24.5q58 0 88.5 34.5t30.5 76.5q0 34 -21.5 60t-56 44.5t-75.5 37.5t-82.5 45t-76 59.5t-56 89.5t-21.5 128v179q94 0 152.5 60t58.5 155q0 97 -58.5 157t-152.5 60q-92 0 -150.5 -60t-58.5 -155v-1139h-233z" />
<glyph unicode="&#xe0;" horiz-adv-x="944" d="M74 246q0 98 61.5 169t158.5 104.5t216 33.5q37 0 61 -4v67q0 54 -39.5 97t-111.5 43q-48 0 -99.5 -20t-80.5 -50l-121 121q136 133 321 133q164 0 261.5 -93t97.5 -231v-399q0 -32 16.5 -51t44.5 -19v-147q-20 -10 -78 -10q-131 0 -186 102q-107 -110 -254 -110 q-125 0 -196.5 77.5t-71.5 186.5zM193 1309l112 112l285 -284l-113 -113zM301 270q0 -40 29 -72t88 -32q40 0 82.5 16.5t70.5 50.5v166q-24 7 -49 7q-94 0 -157.5 -37.5t-63.5 -98.5z" />
<glyph unicode="&#xe1;" horiz-adv-x="944" d="M74 246q0 98 61.5 169t158.5 104.5t216 33.5q37 0 61 -4v67q0 54 -39.5 97t-111.5 43q-48 0 -99.5 -20t-80.5 -50l-121 121q136 133 321 133q164 0 261.5 -93t97.5 -231v-399q0 -32 16.5 -51t44.5 -19v-147q-20 -10 -78 -10q-131 0 -186 102q-107 -110 -254 -110 q-125 0 -196.5 77.5t-71.5 186.5zM283 1137l284 284l113 -112l-285 -285zM301 270q0 -40 29 -72t88 -32q40 0 82.5 16.5t70.5 50.5v166q-24 7 -49 7q-94 0 -157.5 -37.5t-63.5 -98.5z" />
<glyph unicode="&#xe2;" horiz-adv-x="944" d="M74 246q0 98 61.5 169t158.5 104.5t216 33.5q37 0 61 -4v67q0 54 -39.5 97t-111.5 43q-48 0 -99.5 -20t-80.5 -50l-121 121q136 133 321 133q164 0 261.5 -93t97.5 -231v-399q0 -32 16.5 -51t44.5 -19v-147q-20 -10 -78 -10q-131 0 -186 102q-107 -110 -254 -110 q-125 0 -196.5 77.5t-71.5 186.5zM164 1137l285 284l284 -284l-112 -113l-172 172l-173 -172zM301 270q0 -40 29 -72t88 -32q40 0 82.5 16.5t70.5 50.5v166q-24 7 -49 7q-94 0 -157.5 -37.5t-63.5 -98.5z" />
<glyph unicode="&#xe3;" horiz-adv-x="944" d="M74 246q0 98 61.5 169t158.5 104.5t216 33.5q37 0 61 -4v67q0 54 -39.5 97t-111.5 43q-48 0 -99.5 -20t-80.5 -50l-121 121q136 133 321 133q164 0 261.5 -93t97.5 -231v-399q0 -32 16.5 -51t44.5 -19v-147q-20 -10 -78 -10q-131 0 -186 102q-107 -110 -254 -110 q-125 0 -196.5 77.5t-71.5 186.5zM154 1079q0 90 54.5 146.5t139.5 56.5q42 0 76 -14.5t52 -31.5t43 -31.5t52 -14.5q32 0 54 23.5t22 58.5h121q0 -90 -55 -146.5t-142 -56.5q-43 0 -76.5 14.5t-50.5 31.5t-41.5 31.5t-52.5 14.5q-33 0 -54.5 -23t-21.5 -59h-120zM301 270 q0 -40 29 -72t88 -32q40 0 82.5 16.5t70.5 50.5v166q-24 7 -49 7q-94 0 -157.5 -37.5t-63.5 -98.5z" />
<glyph unicode="&#xe4;" horiz-adv-x="944" d="M74 246q0 98 61.5 169t158.5 104.5t216 33.5q37 0 61 -4v67q0 54 -39.5 97t-111.5 43q-48 0 -99.5 -20t-80.5 -50l-121 121q136 133 321 133q164 0 261.5 -93t97.5 -231v-399q0 -32 16.5 -51t44.5 -19v-147q-20 -10 -78 -10q-131 0 -186 102q-107 -110 -254 -110 q-125 0 -196.5 77.5t-71.5 186.5zM135 1169q0 53 36.5 90t90.5 37q52 0 88.5 -37t36.5 -90q0 -54 -36 -90.5t-89 -36.5q-54 0 -90.5 36.5t-36.5 90.5zM301 270q0 -40 29 -72t88 -32q40 0 82.5 16.5t70.5 50.5v166q-24 7 -49 7q-94 0 -157.5 -37.5t-63.5 -98.5zM528 1169 q0 54 36.5 91.5t90.5 37.5t91.5 -37.5t37.5 -91.5t-37.5 -90.5t-91.5 -36.5t-90.5 36.5t-36.5 90.5z" />
<glyph unicode="&#xe5;" horiz-adv-x="944" d="M74 246q0 98 61.5 169t158.5 104.5t216 33.5q37 0 61 -4v67q0 54 -39.5 97t-111.5 43q-48 0 -99.5 -20t-80.5 -50l-121 121q136 133 321 133q164 0 261.5 -93t97.5 -231v-399q0 -32 16.5 -51t44.5 -19v-147q-20 -10 -78 -10q-131 0 -186 102q-107 -110 -254 -110 q-125 0 -196.5 77.5t-71.5 186.5zM264 1198q0 86 52 139.5t135 53.5q84 0 135 -53t51 -140q0 -86 -50.5 -138t-135.5 -52q-84 0 -135.5 52t-51.5 138zM301 270q0 -40 29 -72t88 -32q40 0 82.5 16.5t70.5 50.5v166q-24 7 -49 7q-94 0 -157.5 -37.5t-63.5 -98.5zM358 1198 q0 -42 26.5 -69t66.5 -27q41 0 67.5 26.5t26.5 69.5q0 42 -27 69t-67 27t-66.5 -27t-26.5 -69z" />
<glyph unicode="&#xe6;" horiz-adv-x="1449" d="M74 246q0 98 61.5 169t158.5 104.5t216 33.5q37 0 61 -4v67q0 54 -39.5 97t-111.5 43q-48 0 -99.5 -20t-80.5 -50l-121 121q136 133 321 133q148 0 240 -82q114 82 268 82q207 0 318.5 -144t111.5 -403h-579v-131q67 -80 200 -80q131 0 203 78l133 -139 q-136 -139 -352 -139q-233 0 -362 141q-52 -67 -125.5 -104t-153.5 -37q-125 0 -196.5 77.5t-71.5 186.5zM301 270q0 -40 29 -72t88 -32q39 0 81.5 18.5t71.5 53.5v161q-24 7 -49 7q-94 0 -157.5 -37.5t-63.5 -98.5zM793 674q6 -54 6 -58v-67h354q-14 92 -64 144t-135 52 q-103 0 -161 -71z" />
<glyph unicode="&#xe7;" horiz-adv-x="960" d="M80 461q0 214 132 346.5t347 132.5q206 0 344 -141l-139 -137q-68 77 -193 77q-114 0 -186 -77t-72 -201t72 -201.5t186 -77.5q125 0 193 78l139 -139q-122 -125 -309 -137v-95q63 -14 100 -57.5t37 -110.5q0 -78 -51 -126t-131 -48q-81 0 -135 54l67 67q29 -26 68 -26 t63.5 23t24.5 61q0 40 -33 65t-102 25v168q-192 19 -307 148.5t-115 328.5z" />
<glyph unicode="&#xe8;" horiz-adv-x="1032" d="M80 467q0 210 124 341.5t326 131.5q208 0 319.5 -144t111.5 -403h-642q18 -98 85.5 -154.5t177.5 -56.5q128 0 200 78l136 -139q-136 -139 -353 -139t-351 133t-134 352zM293 1309l113 112l284 -284l-112 -113zM319 549h416q-14 93 -63.5 144.5t-134.5 51.5 q-87 0 -145 -53t-73 -143z" />
<glyph unicode="&#xe9;" horiz-adv-x="1032" d="M80 467q0 210 124 341.5t326 131.5q208 0 319.5 -144t111.5 -403h-642q18 -98 85.5 -154.5t177.5 -56.5q128 0 200 78l136 -139q-136 -139 -353 -139t-351 133t-134 352zM319 549h416q-14 93 -63.5 144.5t-134.5 51.5q-87 0 -145 -53t-73 -143zM371 1137l284 284 l113 -112l-285 -285z" />
<glyph unicode="&#xea;" horiz-adv-x="1032" d="M80 467q0 210 124 341.5t326 131.5q208 0 319.5 -144t111.5 -403h-642q18 -98 85.5 -154.5t177.5 -56.5q128 0 200 78l136 -139q-136 -139 -353 -139t-351 133t-134 352zM248 1137l284 284l283 -284l-113 -113l-170 172l-172 -172zM319 549h416q-14 93 -63.5 144.5 t-134.5 51.5q-87 0 -145 -53t-73 -143z" />
<glyph unicode="&#xeb;" horiz-adv-x="1032" d="M80 467q0 210 124 341.5t326 131.5q208 0 319.5 -144t111.5 -403h-642q18 -98 85.5 -154.5t177.5 -56.5q128 0 200 78l136 -139q-136 -139 -353 -139t-351 133t-134 352zM209 1169q0 53 36.5 90t90.5 37q52 0 89.5 -37t37.5 -90q0 -54 -37 -90.5t-90 -36.5 q-54 0 -90.5 36.5t-36.5 90.5zM319 549h416q-14 93 -63.5 144.5t-134.5 51.5q-87 0 -145 -53t-73 -143zM602 1169q0 54 37 91.5t90 37.5q54 0 91.5 -37.5t37.5 -91.5t-37.5 -90.5t-91.5 -36.5q-53 0 -90 36.5t-37 90.5z" />
<glyph unicode="&#xec;" d="M-8 1309l112 112l285 -284l-113 -113zM119 0v922h225v-922h-225z" />
<glyph unicode="&#xed;" d="M74 1137l284 284l113 -112l-285 -285zM119 0v922h225v-922h-225z" />
<glyph unicode="&#xee;" d="M-53 1137l284 284l285 -284l-113 -113l-172 172l-172 -172zM119 0v922h225v-922h-225z" />
<glyph unicode="&#xef;" d="M-68 1169q0 53 37 90t90 37q54 0 90.5 -37t36.5 -90q0 -54 -36.5 -90.5t-90.5 -36.5q-53 0 -90 36.5t-37 90.5zM119 0v922h225v-922h-225zM274 1169q0 54 37 91.5t90 37.5q55 0 92 -37.5t37 -91.5t-37 -90.5t-92 -36.5q-53 0 -90 36.5t-37 90.5z" />
<glyph unicode="&#xf0;" horiz-adv-x="1130" d="M80 465q0 215 134 345t347 130q57 0 109 -18q-63 106 -164 237l-170 -94l-86 149l141 82l-129 148l203 110q107 -123 125 -145l162 92l88 -151l-138 -78q172 -238 260.5 -426.5t88.5 -362.5q0 -233 -133 -367t-351 -134q-219 0 -353 133t-134 350zM313 461 q0 -125 70 -202t182 -77t182 77t70 202q0 124 -69.5 201t-182.5 77t-182.5 -77t-69.5 -201z" />
<glyph unicode="&#xf1;" horiz-adv-x="1056" d="M119 0v922h225v-68q106 86 250 86q157 0 250.5 -107.5t93.5 -283.5v-549h-225v549q0 85 -49.5 137.5t-128.5 52.5q-122 0 -191 -75v-664h-225zM211 1079q0 90 55.5 146.5t139.5 56.5q42 0 76 -14.5t52 -31.5t43 -31.5t52 -14.5q33 0 54.5 23t21.5 59h120 q0 -90 -54.5 -146.5t-141.5 -56.5q-42 0 -75.5 14.5t-51 31.5t-42 31.5t-52.5 14.5q-33 0 -54.5 -23t-21.5 -59h-121z" />
<glyph unicode="&#xf2;" horiz-adv-x="1130" d="M80 461q0 214 134 346.5t351 132.5t351.5 -132.5t134.5 -346.5t-134.5 -346.5t-351.5 -132.5t-351 132.5t-134 346.5zM313 461q0 -125 70 -202t182 -77t182 77t70 202q0 124 -69.5 201t-182.5 77t-182.5 -77t-69.5 -201zM326 1309l112 112l285 -284l-113 -113z" />
<glyph unicode="&#xf3;" horiz-adv-x="1130" d="M80 461q0 214 134 346.5t351 132.5t351.5 -132.5t134.5 -346.5t-134.5 -346.5t-351.5 -132.5t-351 132.5t-134 346.5zM313 461q0 -125 70 -202t182 -77t182 77t70 202q0 124 -69.5 201t-182.5 77t-182.5 -77t-69.5 -201zM408 1137l284 284l113 -112l-285 -285z" />
<glyph unicode="&#xf4;" horiz-adv-x="1130" d="M80 461q0 214 134 346.5t351 132.5t351.5 -132.5t134.5 -346.5t-134.5 -346.5t-351.5 -132.5t-351 132.5t-134 346.5zM281 1137l284 284l285 -284l-113 -113l-172 172l-172 -172zM313 461q0 -125 70 -202t182 -77t182 77t70 202q0 124 -69.5 201t-182.5 77t-182.5 -77 t-69.5 -201z" />
<glyph unicode="&#xf5;" horiz-adv-x="1130" d="M80 461q0 214 134 346.5t351 132.5t351.5 -132.5t134.5 -346.5t-134.5 -346.5t-351.5 -132.5t-351 132.5t-134 346.5zM258 1079q0 90 55 146.5t140 56.5q42 0 76 -14.5t52 -31.5t43 -31.5t52 -14.5q32 0 54 23.5t22 58.5h120q0 -90 -55.5 -146.5t-140.5 -56.5 q-43 0 -76.5 14.5t-50.5 31.5t-41.5 31.5t-52.5 14.5q-34 0 -55 -22.5t-21 -59.5h-121zM313 461q0 -125 70 -202t182 -77t182 77t70 202q0 124 -69.5 201t-182.5 77t-182.5 -77t-69.5 -201z" />
<glyph unicode="&#xf6;" horiz-adv-x="1130" d="M80 461q0 214 134 346.5t351 132.5t351.5 -132.5t134.5 -346.5t-134.5 -346.5t-351.5 -132.5t-351 132.5t-134 346.5zM240 1169q0 53 37 90t90 37q54 0 90.5 -37t36.5 -90q0 -54 -36.5 -90.5t-90.5 -36.5q-53 0 -90 36.5t-37 90.5zM313 461q0 -125 70 -202t182 -77 t182 77t70 202q0 124 -69.5 201t-182.5 77t-182.5 -77t-69.5 -201zM635 1169q0 54 36.5 91.5t90.5 37.5t90.5 -37.5t36.5 -91.5t-36.5 -90.5t-90.5 -36.5t-90.5 36.5t-36.5 90.5z" />
<glyph unicode="&#xf7;" horiz-adv-x="1024" d="M96 469v176h832v-176h-832zM389 225q0 53 35.5 88t87.5 35t86.5 -35t34.5 -88q0 -52 -34.5 -87.5t-86.5 -35.5t-87.5 36t-35.5 87zM389 889q0 53 35.5 88t87.5 35t86.5 -35t34.5 -88t-34.5 -88t-86.5 -35t-87.5 35t-35.5 88z" />
<glyph unicode="&#xf8;" horiz-adv-x="1130" d="M78 -18l117 151q-115 131 -115 328q0 214 134 346.5t351 132.5q122 0 215 -43l45 59h228l-125 -161q123 -132 123 -334q0 -214 -134.5 -346.5t-351.5 -132.5q-123 0 -225 45l-35 -45h-227zM297 461q0 -81 33 -152l329 430q-49 17 -94 17q-120 0 -194 -81.5t-74 -213.5z M461 184q46 -18 104 -18q120 0 194.5 81.5t74.5 213.5q0 90 -39 160z" />
<glyph unicode="&#xf9;" horiz-adv-x="1071" d="M119 391v531h233v-531q0 -92 53 -150.5t136 -58.5q84 0 136 58t52 151v531h223v-531q0 -183 -115 -296t-302 -113q-185 0 -300.5 113t-115.5 296zM295 1309l113 112l284 -284l-112 -113z" />
<glyph unicode="&#xfa;" horiz-adv-x="1071" d="M119 391v531h233v-531q0 -92 53 -150.5t136 -58.5q84 0 136 58t52 151v531h223v-531q0 -183 -115 -296t-302 -113q-185 0 -300.5 113t-115.5 296zM377 1137l285 284l112 -112l-285 -285z" />
<glyph unicode="&#xfb;" horiz-adv-x="1071" d="M119 391v531h233v-531q0 -92 53 -150.5t136 -58.5q84 0 136 58t52 151v531h223v-531q0 -183 -115 -296t-302 -113q-185 0 -300.5 113t-115.5 296zM250 1137l285 284l284 -284l-112 -113l-172 172l-173 -172z" />
<glyph unicode="&#xfc;" horiz-adv-x="1071" d="M119 391v531h233v-531q0 -92 53 -150.5t136 -58.5q84 0 136 58t52 151v531h223v-531q0 -183 -115 -296t-302 -113q-185 0 -300.5 113t-115.5 296zM211 1169q0 53 36.5 90t90.5 37q52 0 88.5 -37t36.5 -90q0 -54 -36 -90.5t-89 -36.5q-54 0 -90.5 36.5t-36.5 90.5z M604 1169q0 54 36.5 91.5t90.5 37.5t91.5 -37.5t37.5 -91.5t-37.5 -90.5t-91.5 -36.5t-90.5 36.5t-36.5 90.5z" />
<glyph unicode="&#xfd;" horiz-adv-x="1081" d="M25 922h251l267 -648l262 648h252l-649 -1434h-252l280 512zM383 1137l285 284l112 -112l-284 -285z" />
<glyph unicode="&#xfe;" horiz-adv-x="1105" d="M119 -512v2048h225v-682q109 86 254 86q192 0 311 -132.5t119 -346.5t-130 -346.5t-339 -132.5q-119 0 -215 49v-543h-225zM344 250q68 -68 191 -68q115 0 186.5 77t71.5 202q0 124 -71 201t-187 77q-122 0 -191 -75v-414z" />
<glyph unicode="&#xff;" horiz-adv-x="1081" d="M25 922h251l267 -648l262 648h252l-649 -1434h-252l280 512zM217 1169q0 53 36.5 90t90.5 37q52 0 89.5 -37t37.5 -90q0 -54 -37 -90.5t-90 -36.5q-54 0 -90.5 36.5t-36.5 90.5zM610 1169q0 54 36.5 91.5t90.5 37.5t91.5 -37.5t37.5 -91.5t-37.5 -90.5t-91.5 -36.5 t-90.5 36.5t-36.5 90.5z" />
<glyph unicode="&#x100;" horiz-adv-x="1560" d="M33 0l637 1434h219l637 -1434h-271l-151 344h-651l-148 -344h-272zM512 1554v136h535v-136h-535zM537 553h483l-240 577z" />
<glyph unicode="&#x101;" horiz-adv-x="944" d="M74 246q0 98 61.5 169t158.5 104.5t216 33.5q37 0 61 -4v67q0 54 -39.5 97t-111.5 43q-48 0 -99.5 -20t-80.5 -50l-121 121q136 133 321 133q164 0 261.5 -93t97.5 -231v-399q0 -32 16.5 -51t44.5 -19v-147q-20 -10 -78 -10q-131 0 -186 102q-107 -110 -254 -110 q-125 0 -196.5 77.5t-71.5 186.5zM182 1087v134h535v-134h-535zM301 270q0 -40 29 -72t88 -32q40 0 82.5 16.5t70.5 50.5v166q-24 7 -49 7q-94 0 -157.5 -37.5t-63.5 -98.5z" />
<glyph unicode="&#x102;" horiz-adv-x="1560" d="M33 0l637 1434h219l637 -1434h-271l-151 344h-651l-148 -344h-272zM469 1649l111 110q77 -80 200 -80q127 0 199 78l113 -110q-122 -131 -312 -131q-184 0 -311 133zM537 553h483l-240 577z" />
<glyph unicode="&#x103;" horiz-adv-x="944" d="M74 246q0 98 61.5 169t158.5 104.5t216 33.5q37 0 61 -4v67q0 54 -39.5 97t-111.5 43q-48 0 -99.5 -20t-80.5 -50l-121 121q136 133 321 133q164 0 261.5 -93t97.5 -231v-399q0 -32 16.5 -51t44.5 -19v-147q-20 -10 -78 -10q-131 0 -186 102q-107 -110 -254 -110 q-125 0 -196.5 77.5t-71.5 186.5zM139 1180l111 112q77 -80 201 -80q125 0 200 78l111 -110q-122 -131 -311 -131q-184 0 -312 131zM301 270q0 -40 29 -72t88 -32q40 0 82.5 16.5t70.5 50.5v166q-24 7 -49 7q-94 0 -157.5 -37.5t-63.5 -98.5z" />
<glyph unicode="&#x104;" horiz-adv-x="1560" d="M33 0l637 1434h219l637 -1434h-166q-17 -31 -17 -72q0 -49 28 -76.5t73 -27.5t74 26l73 -73q-55 -58 -145 -58q-92 0 -149.5 57.5t-57.5 151.5q0 41 16 72l-151 344h-651l-148 -344h-272zM537 553h483l-240 577z" />
<glyph unicode="&#x105;" horiz-adv-x="944" d="M74 246q0 98 61.5 169t158.5 104.5t216 33.5q37 0 61 -4v67q0 54 -39.5 97t-111.5 43q-48 0 -99.5 -20t-80.5 -50l-121 121q136 133 321 133q164 0 261.5 -93t97.5 -231v-399q0 -32 16.5 -51t44.5 -19v-147q-20 -8 -49 -8q-10 -30 -10 -64q0 -49 27.5 -76.5t72.5 -27.5 t74 26l74 -73q-55 -58 -148 -58q-91 0 -149 58t-58 151q0 33 17 72q-73 19 -115 92q-107 -110 -254 -110q-125 0 -196.5 77.5t-71.5 186.5zM301 270q0 -40 29 -72t88 -32q40 0 82.5 16.5t70.5 50.5v166q-24 7 -49 7q-94 0 -157.5 -37.5t-63.5 -98.5z" />
<glyph unicode="&#x106;" horiz-adv-x="1419" d="M90 717q0 216 91.5 383t258 259.5t381.5 92.5q161 0 297 -53.5t234 -151.5l-150 -149q-139 145 -368 145q-223 0 -362.5 -146.5t-139.5 -379.5t139.5 -380t362.5 -147q227 0 368 144l150 -148q-98 -98 -234 -151t-297 -53q-215 0 -381.5 92.5t-258 259.5t-91.5 383z M618 1608l285 284l113 -112l-285 -285z" />
<glyph unicode="&#x107;" horiz-adv-x="960" d="M80 461q0 214 132 346.5t347 132.5q206 0 344 -141l-139 -137q-68 77 -193 77q-114 0 -186 -77t-72 -201t72 -201.5t186 -77.5q125 0 193 78l139 -139q-136 -139 -344 -139q-215 0 -347 132.5t-132 346.5zM369 1137l284 284l113 -112l-285 -285z" />
<glyph unicode="&#x108;" horiz-adv-x="1419" d="M90 717q0 216 91.5 383t258 259.5t381.5 92.5q161 0 297 -53.5t234 -151.5l-150 -149q-139 145 -368 145q-223 0 -362.5 -146.5t-139.5 -379.5t139.5 -380t362.5 -147q227 0 368 144l150 -148q-98 -98 -234 -151t-297 -53q-215 0 -381.5 92.5t-258 259.5t-91.5 383z M496 1604l284 284l285 -284l-113 -113l-172 172l-172 -172z" />
<glyph unicode="&#x109;" horiz-adv-x="960" d="M80 461q0 214 132 346.5t347 132.5q206 0 344 -141l-139 -137q-68 77 -193 77q-114 0 -186 -77t-72 -201t72 -201.5t186 -77.5q125 0 193 78l139 -139q-136 -139 -344 -139q-215 0 -347 132.5t-132 346.5zM240 1137l282 284l285 -284l-113 -113l-172 172l-170 -172z" />
<glyph unicode="&#x10a;" horiz-adv-x="1419" d="M90 717q0 216 91.5 383t258 259.5t381.5 92.5q161 0 297 -53.5t234 -151.5l-150 -149q-139 145 -368 145q-223 0 -362.5 -146.5t-139.5 -379.5t139.5 -380t362.5 -147q227 0 368 144l150 -148q-98 -98 -234 -151t-297 -53q-215 0 -381.5 92.5t-258 259.5t-91.5 383z M645 1665q0 57 39 96t96 39t96 -39t39 -96t-39 -96t-96 -39t-96 39t-39 96z" />
<glyph unicode="&#x10b;" horiz-adv-x="960" d="M80 461q0 214 132 346.5t347 132.5q206 0 344 -141l-139 -137q-68 77 -193 77q-114 0 -186 -77t-72 -201t72 -201.5t186 -77.5q125 0 193 78l139 -139q-136 -139 -344 -139q-215 0 -347 132.5t-132 346.5zM383 1198q0 57 39 96t96 39t96 -39t39 -96t-39 -96t-96 -39 t-96 39t-39 96z" />
<glyph unicode="&#x10c;" horiz-adv-x="1419" d="M90 717q0 216 91.5 383t258 259.5t381.5 92.5q161 0 297 -53.5t234 -151.5l-150 -149q-139 145 -368 145q-223 0 -362.5 -146.5t-139.5 -379.5t139.5 -380t362.5 -147q227 0 368 144l150 -148q-98 -98 -234 -151t-297 -53q-215 0 -381.5 92.5t-258 259.5t-91.5 383z M489 1776l113 112l170 -172l172 172l113 -112l-285 -285z" />
<glyph unicode="&#x10d;" horiz-adv-x="960" d="M80 461q0 214 132 346.5t347 132.5q206 0 344 -141l-139 -137q-68 77 -193 77q-114 0 -186 -77t-72 -201t72 -201.5t186 -77.5q125 0 193 78l139 -139q-136 -139 -344 -139q-215 0 -347 132.5t-132 346.5zM238 1309l112 112l170 -172l172 172l113 -112l-285 -285z" />
<glyph unicode="&#x10e;" horiz-adv-x="1427" d="M121 0v1434h485q217 0 383.5 -88t258 -251t91.5 -378t-91.5 -378t-258 -251t-383.5 -88h-485zM362 201h244q219 0 354.5 142t135.5 374t-135.5 374t-354.5 142h-244v-1032zM410 1776l112 112l172 -172l170 172l113 -112l-283 -285z" />
<glyph unicode="&#x10f;" horiz-adv-x="1433" d="M80 461q0 214 129.5 346.5t341.5 132.5q119 0 211 -47v643h225v-1536h-225v66q-111 -84 -252 -84q-193 0 -311.5 132.5t-118.5 346.5zM313 461q0 -124 72 -201.5t186 -77.5q123 0 191 74v416q-70 67 -191 67q-114 0 -186 -77t-72 -201zM1130 1120q86 86 111 168 q-46 9 -76 45.5t-30 85.5q0 57 39 96t96 39q52 0 93.5 -36t41.5 -115q0 -93 -56 -179t-147 -177z" />
<glyph unicode="&#x110;" horiz-adv-x="1439" d="M72 629v176h94v629h452q329 0 530.5 -196t201.5 -521t-201.5 -521t-530.5 -196h-452v629h-94zM408 201h210q218 0 354 142t136 374t-136 374t-354 142h-210v-428h288v-176h-288v-428z" />
<glyph unicode="&#x111;" horiz-adv-x="1157" d="M80 461q0 214 129.5 346.5t341.5 132.5q117 0 211 -51v252h-248v174h248v221h225v-221h109v-174h-109v-1141h-225v68q-109 -86 -252 -86q-193 0 -311.5 132.5t-118.5 346.5zM313 461q0 -124 72 -201.5t186 -77.5q126 0 191 74v416q-70 67 -191 67q-114 0 -186 -77 t-72 -201z" />
<glyph unicode="&#x112;" horiz-adv-x="989" d="M121 0v1434h778v-193h-545v-426h482v-192h-482v-430h555v-193h-788zM242 1554v136h534v-136h-534z" />
<glyph unicode="&#x113;" horiz-adv-x="1032" d="M80 467q0 210 124 341.5t326 131.5q208 0 319.5 -144t111.5 -403h-642q18 -98 85.5 -154.5t177.5 -56.5q128 0 200 78l136 -139q-136 -139 -353 -139t-351 133t-134 352zM262 1087v134h535v-134h-535zM319 549h416q-14 93 -63.5 144.5t-134.5 51.5q-87 0 -145 -53 t-73 -143z" />
<glyph unicode="&#x114;" horiz-adv-x="989" d="M121 0v1434h778v-193h-545v-426h482v-192h-482v-430h555v-193h-788zM199 1649l110 110q77 -80 201 -80q127 0 199 78l112 -110q-122 -131 -311 -131q-184 0 -311 133z" />
<glyph unicode="&#x115;" horiz-adv-x="1032" d="M80 467q0 210 124 341.5t326 131.5q208 0 319.5 -144t111.5 -403h-642q18 -98 85.5 -154.5t177.5 -56.5q128 0 200 78l136 -139q-136 -139 -353 -139t-351 133t-134 352zM221 1180l111 112q77 -80 200 -80q126 0 201 78l111 -110q-122 -131 -312 -131q-183 0 -311 131z M319 549h416q-14 93 -63.5 144.5t-134.5 51.5q-87 0 -145 -53t-73 -143z" />
<glyph unicode="&#x116;" horiz-adv-x="989" d="M121 0v1434h778v-193h-545v-426h482v-192h-482v-430h555v-193h-788zM375 1665q0 57 39 96t96 39t96 -39t39 -96t-39 -96t-96 -39t-96 39t-39 96z" />
<glyph unicode="&#x117;" horiz-adv-x="1032" d="M80 467q0 210 124 341.5t326 131.5q208 0 319.5 -144t111.5 -403h-642q18 -98 85.5 -154.5t177.5 -56.5q128 0 200 78l136 -139q-136 -139 -353 -139t-351 133t-134 352zM319 549h416q-14 93 -63.5 144.5t-134.5 51.5q-87 0 -145 -53t-73 -143zM397 1198q0 57 39 96 t96 39t96.5 -39t39.5 -96t-39.5 -96t-96.5 -39t-96 39t-39 96z" />
<glyph unicode="&#x118;" horiz-adv-x="989" d="M121 0v1434h778v-193h-545v-426h482v-192h-482v-430h555v-193h-204q-17 -31 -17 -72q0 -49 27.5 -76.5t72.5 -27.5t74 26l74 -73q-55 -58 -148 -58q-91 0 -148.5 58t-57.5 151q0 35 16 72h-477z" />
<glyph unicode="&#x119;" horiz-adv-x="1032" d="M80 467q0 210 124 341.5t326 131.5q208 0 319.5 -144t111.5 -403h-642q18 -98 85.5 -154.5t177.5 -56.5q128 0 200 78l136 -139q-88 -91 -213 -121q-17 -31 -17 -72q0 -49 27.5 -76.5t72.5 -27.5q48 0 74 26l76 -73q-58 -58 -147 -58q-92 0 -149.5 57.5t-57.5 151.5 q0 33 8 54h-27q-217 0 -351 133t-134 352zM319 549h416q-14 93 -63.5 144.5t-134.5 51.5q-87 0 -145 -53t-73 -143z" />
<glyph unicode="&#x11a;" horiz-adv-x="989" d="M121 0v1434h778v-193h-545v-426h482v-192h-482v-430h555v-193h-788zM225 1776l113 112l172 -172l172 172l113 -112l-285 -285z" />
<glyph unicode="&#x11b;" horiz-adv-x="1032" d="M80 467q0 210 124 341.5t326 131.5q208 0 319.5 -144t111.5 -403h-642q18 -98 85.5 -154.5t177.5 -56.5q128 0 200 78l136 -139q-136 -139 -353 -139t-351 133t-134 352zM246 1309l112 112l172 -172l172 172l113 -112l-285 -285zM319 549h416q-14 93 -63.5 144.5 t-134.5 51.5q-87 0 -145 -53t-73 -143z" />
<glyph unicode="&#x11c;" horiz-adv-x="1472" d="M90 717q0 216 91.5 383t258 259.5t381.5 92.5q161 0 297 -53.5t234 -151.5l-150 -149q-139 145 -368 145q-223 0 -362.5 -146.5t-139.5 -379.5t139.5 -380t362.5 -147q163 0 282 78v324h-295v192h531v-598q-98 -98 -234 -151t-297 -53q-215 0 -381.5 92.5t-258 259.5 t-91.5 383zM535 1604l284 284l285 -284l-113 -113l-172 172l-172 -172z" />
<glyph unicode="&#x11d;" horiz-adv-x="1062" d="M29 -231q0 165 194 243q-102 55 -102 154q0 96 108 153q-68 42 -103.5 114t-35.5 159q0 157 108 252.5t281 95.5q161 0 266 -84q71 84 164 84q38 0 56 -4v-178q-21 6 -43 6q-43 0 -80 -43q22 -58 22 -123q0 -154 -107 -249t-282 -95q-66 0 -100.5 -22.5t-34.5 -59.5 t45.5 -59.5t122.5 -22.5q205 0 332 -82.5t127 -216.5q0 -93 -63.5 -166.5t-176 -114t-252.5 -40.5q-202 0 -324 83t-122 216zM190 1137l285 284l285 -284l-113 -113l-172 172l-172 -172zM264 -231q0 -59 56 -94t153 -35q109 0 184.5 41.5t75.5 105.5q0 58 -62 93.5 t-163 35.5q-109 0 -176.5 -40.5t-67.5 -106.5zM317 598q0 -74 46 -121t118 -47t118 47t46 121q0 73 -46 119.5t-118 46.5t-118 -46.5t-46 -119.5z" />
<glyph unicode="&#x11e;" horiz-adv-x="1472" d="M90 717q0 216 91.5 383t258 259.5t381.5 92.5q161 0 297 -53.5t234 -151.5l-150 -149q-139 145 -368 145q-223 0 -362.5 -146.5t-139.5 -379.5t139.5 -380t362.5 -147q163 0 282 78v324h-295v192h531v-598q-98 -98 -234 -151t-297 -53q-215 0 -381.5 92.5t-258 259.5 t-91.5 383zM506 1649l112 110q73 -80 199 -80t201 78l110 -110q-122 -131 -311 -131q-184 0 -311 133z" />
<glyph unicode="&#x11f;" horiz-adv-x="1062" d="M29 -231q0 165 194 243q-102 55 -102 154q0 96 108 153q-68 42 -103.5 114t-35.5 159q0 157 108 252.5t281 95.5q161 0 266 -84q71 84 164 84q38 0 56 -4v-178q-21 6 -43 6q-43 0 -80 -43q22 -58 22 -123q0 -154 -107 -249t-282 -95q-66 0 -100.5 -22.5t-34.5 -59.5 t45.5 -59.5t122.5 -22.5q205 0 332 -82.5t127 -216.5q0 -93 -63.5 -166.5t-176 -114t-252.5 -40.5q-202 0 -324 83t-122 216zM168 1180l111 112q77 -80 200 -80q126 0 201 78l111 -110q-122 -131 -312 -131q-183 0 -311 131zM264 -231q0 -59 56 -94t153 -35 q109 0 184.5 41.5t75.5 105.5q0 58 -62 93.5t-163 35.5q-109 0 -176.5 -40.5t-67.5 -106.5zM317 598q0 -74 46 -121t118 -47t118 47t46 121q0 73 -46 119.5t-118 46.5t-118 -46.5t-46 -119.5z" />
<glyph unicode="&#x120;" horiz-adv-x="1472" d="M90 717q0 216 91.5 383t258 259.5t381.5 92.5q161 0 297 -53.5t234 -151.5l-150 -149q-139 145 -368 145q-223 0 -362.5 -146.5t-139.5 -379.5t139.5 -380t362.5 -147q163 0 282 78v324h-295v192h531v-598q-98 -98 -234 -151t-297 -53q-215 0 -381.5 92.5t-258 259.5 t-91.5 383zM682 1665q0 57 39 96t96 39t96 -39t39 -96t-39 -96t-96 -39t-96 39t-39 96z" />
<glyph unicode="&#x121;" horiz-adv-x="1062" d="M29 -231q0 165 194 243q-102 55 -102 154q0 96 108 153q-68 42 -103.5 114t-35.5 159q0 157 108 252.5t281 95.5q161 0 266 -84q71 84 164 84q38 0 56 -4v-178q-21 6 -43 6q-43 0 -80 -43q22 -58 22 -123q0 -154 -107 -249t-282 -95q-66 0 -100.5 -22.5t-34.5 -59.5 t45.5 -59.5t122.5 -22.5q205 0 332 -82.5t127 -216.5q0 -93 -63.5 -166.5t-176 -114t-252.5 -40.5q-202 0 -324 83t-122 216zM264 -231q0 -59 56 -94t153 -35q109 0 184.5 41.5t75.5 105.5q0 58 -62 93.5t-163 35.5q-109 0 -176.5 -40.5t-67.5 -106.5zM317 598 q0 -74 46 -121t118 -47t118 47t46 121q0 73 -46 119.5t-118 46.5t-118 -46.5t-46 -119.5zM342 1198q0 57 39 96t96 39t96 -39t39 -96t-39 -96t-96 -39t-96 39t-39 96z" />
<glyph unicode="&#x122;" horiz-adv-x="1472" d="M90 717q0 216 91.5 383t258 259.5t381.5 92.5q161 0 297 -53.5t234 -151.5l-150 -149q-139 145 -368 145q-223 0 -362.5 -146.5t-139.5 -379.5t139.5 -380t362.5 -147q163 0 282 78v324h-295v192h531v-598q-98 -98 -234 -151t-297 -53q-215 0 -381.5 92.5t-258 259.5 t-91.5 383zM682 -444q75 79 90 141q-38 6 -62 36t-24 70q0 46 32 77.5t79 31.5q42 0 75 -29.5t33 -93.5q0 -129 -166 -291z" />
<glyph unicode="&#x123;" horiz-adv-x="1062" d="M29 -231q0 165 194 243q-102 55 -102 154q0 96 108 153q-68 42 -103.5 114t-35.5 159q0 157 108 252.5t281 95.5q161 0 266 -84q71 84 164 84q38 0 56 -4v-178q-21 6 -43 6q-43 0 -80 -43q22 -58 22 -123q0 -154 -107 -249t-282 -95q-66 0 -100.5 -22.5t-34.5 -59.5 t45.5 -59.5t122.5 -22.5q205 0 332 -82.5t127 -216.5q0 -93 -63.5 -166.5t-176 -114t-252.5 -40.5q-202 0 -324 83t-122 216zM264 -231q0 -59 56 -94t153 -35q109 0 184.5 41.5t75.5 105.5q0 58 -62 93.5t-163 35.5q-109 0 -176.5 -40.5t-67.5 -106.5zM317 598 q0 -74 46 -121t118 -47t118 47t46 121q0 73 -46 119.5t-118 46.5t-118 -46.5t-46 -119.5zM373 1143q0 131 166 293l59 -60q-73 -73 -92 -139q38 -7 63 -38t25 -69q0 -47 -32.5 -78.5t-78.5 -31.5q-44 0 -77 29.5t-33 93.5z" />
<glyph unicode="&#x124;" horiz-adv-x="1400" d="M121 0v1434h233v-619h690v619h236v-1434h-236v623h-690v-623h-233zM416 1604l284 284l285 -284l-113 -113l-172 172l-172 -172z" />
<glyph unicode="&#x125;" horiz-adv-x="1058" d="M119 0v1536h225v-682q106 86 250 86q157 0 250.5 -107.5t93.5 -283.5v-549h-225v549q0 85 -49.5 137.5t-128.5 52.5q-122 0 -191 -75v-664h-225zM295 1638l283 285l284 -285l-112 -112l-172 172l-170 -172z" />
<glyph unicode="&#x126;" horiz-adv-x="1433" d="M70 1032v174h108v228h234v-228h592v228h235v-228h125v-174h-125v-1032h-235v623h-592v-623h-234v1032h-108zM412 815h592v217h-592v-217z" />
<glyph unicode="&#x127;" horiz-adv-x="1110" d="M61 1155v176h109v205h225v-205h318v-176h-318v-299q108 84 248 84q159 0 252.5 -107.5t93.5 -283.5v-549h-225v549q0 85 -49.5 137.5t-128.5 52.5q-122 0 -191 -75v-664h-225v1155h-109z" />
<glyph unicode="&#x128;" horiz-adv-x="471" d="M-70 1546q0 90 55 146.5t140 56.5q42 0 76 -14.5t51.5 -31.5t42.5 -31.5t51 -14.5q34 0 56 23.5t22 60.5h121q0 -91 -56 -148t-143 -57q-42 0 -75 14.5t-50.5 31.5t-42 31.5t-51.5 14.5q-34 0 -56 -23t-22 -59h-119zM119 0v1434h233v-1434h-233z" />
<glyph unicode="&#x129;" d="M-76 1079q0 90 55.5 146.5t141.5 56.5q41 0 74.5 -14.5t51.5 -31.5t43 -31.5t52 -14.5q34 0 56 23.5t22 58.5h119q0 -90 -55 -146.5t-142 -56.5q-42 0 -75 14.5t-50.5 31.5t-42 31.5t-51.5 14.5q-34 0 -56 -23t-22 -59h-121zM119 0v922h225v-922h-225z" />
<glyph unicode="&#x12a;" horiz-adv-x="471" d="M-31 1554v136h535v-136h-535zM119 0v1434h233v-1434h-233z" />
<glyph unicode="&#x12b;" d="M-35 1087v134h535v-134h-535zM119 0v922h225v-922h-225z" />
<glyph unicode="&#x12c;" horiz-adv-x="471" d="M-74 1649l111 110q77 -80 201 -80q126 0 198 78l113 -110q-122 -131 -311 -131q-185 0 -312 133zM119 0v1434h233v-1434h-233z" />
<glyph unicode="&#x12d;" d="M-80 1180l113 112q73 -80 198 -80q126 0 201 78l111 -110q-122 -131 -312 -131q-183 0 -311 131zM119 0v922h225v-922h-225z" />
<glyph unicode="&#x12e;" horiz-adv-x="471" d="M102 -72q0 39 17 72v1434h233v-1434h-127q-18 -32 -18 -72q0 -48 28 -76t72 -28q47 0 76 26l74 -73q-58 -58 -148 -58q-91 0 -149 58t-58 151z" />
<glyph unicode="&#x12f;" d="M96 1198q0 57 39 96t96 39t96.5 -39t39.5 -96t-39.5 -96t-96.5 -39t-96 39t-39 96zM102 -72q0 39 17 72h106q-18 -32 -18 -72q0 -48 28 -76t72 -28q47 0 76 26l74 -73q-58 -58 -148 -58q-91 0 -149 58t-58 151zM119 0v922h225v-922h-225z" />
<glyph unicode="&#x130;" horiz-adv-x="471" d="M100 1665q0 57 39.5 96t96.5 39t96 -39t39 -96t-39 -96t-96 -39t-96.5 39t-39.5 96zM119 0v1434h233v-1434h-233z" />
<glyph unicode="&#x131;" d="M119 0v922h225v-922h-225z" />
<glyph unicode="&#x132;" horiz-adv-x="1011" d="M121 512v922h233v-922h-233zM160 98l149 150q58 -58 150 -58q89 0 144.5 58.5t55.5 152.5v1033h234v-1033q0 -187 -118.5 -303t-305.5 -116q-190 0 -309 116z" />
<glyph unicode="&#x133;" horiz-adv-x="927" d="M96 1198q0 57 39 96t96 39t96.5 -39t39.5 -96t-39.5 -96t-96.5 -39t-96 39t-39 96zM119 0v922h225v-922h-225zM487 -365q43 0 69 26t26 71v1190h227v-1196q0 -113 -61.5 -180.5t-174.5 -67.5q-63 0 -86 10v147zM561 1198q0 57 39 96t96 39t96 -39t39 -96t-39 -96t-96 -39 t-96 39t-39 96z" />
<glyph unicode="&#x134;" horiz-adv-x="921" d="M70 98l149 150q58 -58 148 -58q89 0 145.5 58.5t56.5 152.5v1033h234v-1033q0 -187 -119 -303t-307 -116q-91 0 -171 30.5t-136 85.5zM401 1604l285 284l283 -284l-113 -113l-170 172l-172 -172z" />
<glyph unicode="&#x135;" d="M-53 1137l284 284l285 -284l-113 -113l-172 172l-172 -172zM23 -365q43 0 69.5 26t26.5 71v1190h225v-1196q0 -113 -60.5 -180.5t-172.5 -67.5q-63 0 -88 10v147z" />
<glyph unicode="&#x136;" horiz-adv-x="1263" d="M119 0v1434h233v-684l533 684h295l-543 -697l592 -737h-301l-576 723v-723h-233zM520 -444q72 75 90 141q-38 6 -63 36t-25 70q0 46 32.5 77.5t78.5 31.5q44 0 77 -29.5t33 -93.5q0 -130 -165 -291z" />
<glyph unicode="&#x137;" horiz-adv-x="987" d="M119 0v1536h225v-991l301 377h266l-352 -430l391 -492h-264l-342 436v-436h-225zM381 -444q75 79 90 141q-37 6 -61.5 36t-24.5 70q0 46 32 77.5t79 31.5q42 0 75 -29.5t33 -93.5q0 -127 -164 -291z" />
<glyph unicode="&#x139;" horiz-adv-x="946" d="M121 0v1434h233v-1241h523v-193h-756zM274 1604l285 284l113 -112l-285 -285z" />
<glyph unicode="&#x13a;" horiz-adv-x="522" d="M63 1683l285 283l113 -113l-285 -282zM119 238v1298h225v-1292q0 -45 29 -71t76 -26v-147q-23 -10 -95 -10q-113 0 -174 67.5t-61 180.5z" />
<glyph unicode="&#x13b;" horiz-adv-x="946" d="M121 0v1434h233v-1241h523v-193h-756zM385 -444q75 79 90 141q-37 6 -61.5 36t-24.5 70q0 46 32 77.5t79 31.5q42 0 75 -29.5t33 -93.5q0 -127 -164 -291z" />
<glyph unicode="&#x13c;" horiz-adv-x="522" d="M119 238v1298h225v-1292q0 -45 29 -71t76 -26v-147q-23 -10 -95 -10q-113 0 -174 67.5t-61 180.5zM170 -444q75 79 90 141q-37 6 -61.5 36t-24.5 70q0 46 32 77.5t79 31.5q42 0 75 -29.5t33 -93.5q0 -127 -164 -291z" />
<glyph unicode="&#x13d;" horiz-adv-x="946" d="M-45 1776l113 112l172 -172l170 172l112 -112l-282 -285zM121 0v1434h233v-1241h523v-193h-756z" />
<glyph unicode="&#x13e;" horiz-adv-x="825" d="M119 238v1298h225v-1292q0 -45 29 -71t76 -26v-147q-23 -10 -95 -10q-113 0 -174 67.5t-61 180.5zM516 1120q86 86 111 168q-46 9 -76.5 45.5t-30.5 85.5q0 57 39 96t96 39q33 0 62 -12.5t51.5 -48t22.5 -90.5q0 -93 -56 -179t-147 -177z" />
<glyph unicode="&#x13f;" horiz-adv-x="946" d="M121 0v1434h233v-1241h523v-193h-756zM582 666q0 57 39 96t96 39t96 -39t39 -96t-39 -96.5t-96 -39.5t-96 39.5t-39 96.5z" />
<glyph unicode="&#x140;" horiz-adv-x="817" d="M119 238v1298h225v-1292q0 -45 29 -71t76 -26v-147q-23 -10 -95 -10q-113 0 -174 67.5t-61 180.5zM506 666q0 57 39 96t96 39t96 -39t39 -96t-39 -96.5t-96 -39.5t-96 39.5t-39 96.5z" />
<glyph unicode="&#x141;" horiz-adv-x="1044" d="M8 451l211 213v770h236v-588l159 160l113 -113l-272 -272v-428h522v-193h-758v438l-98 -100z" />
<glyph unicode="&#x142;" horiz-adv-x="673" d="M6 537l205 206v793h225v-618l113 110l113 -113l-226 -223v-448q0 -45 29 -71t76 -26v-147q-23 -10 -95 -10q-113 0 -174 67.5t-61 180.5v280l-92 -94z" />
<glyph unicode="&#x143;" horiz-adv-x="1449" d="M121 0v1434h149l824 -985v985h235v-1434h-151l-824 985v-985h-233zM567 1604l283 284l113 -112l-283 -285z" />
<glyph unicode="&#x144;" horiz-adv-x="1056" d="M119 0v922h225v-68q106 86 250 86q157 0 250.5 -107.5t93.5 -283.5v-549h-225v549q0 85 -49.5 137.5t-128.5 52.5q-122 0 -191 -75v-664h-225zM371 1137l284 284l113 -112l-285 -285z" />
<glyph unicode="&#x145;" horiz-adv-x="1449" d="M121 0v1434h149l824 -985v985h235v-1434h-151l-824 985v-985h-233zM612 -444q72 75 90 141q-38 6 -62 36t-24 70q0 46 32 77.5t79 31.5q43 0 76 -29.5t33 -93.5q0 -129 -166 -291z" />
<glyph unicode="&#x146;" horiz-adv-x="1056" d="M119 0v922h225v-68q106 86 250 86q157 0 250.5 -107.5t93.5 -283.5v-549h-225v549q0 85 -49.5 137.5t-128.5 52.5q-122 0 -191 -75v-664h-225zM416 -444q72 75 90 141q-38 6 -63 36t-25 70q0 46 32 77.5t78 31.5q44 0 77.5 -29.5t33.5 -93.5q0 -129 -166 -291z" />
<glyph unicode="&#x147;" horiz-adv-x="1449" d="M121 0v1434h149l824 -985v985h235v-1434h-151l-824 985v-985h-233zM440 1776l113 112l170 -172l172 172l113 -112l-285 -285z" />
<glyph unicode="&#x148;" horiz-adv-x="1056" d="M119 0v922h225v-68q106 86 250 86q157 0 250.5 -107.5t93.5 -283.5v-549h-225v549q0 85 -49.5 137.5t-128.5 52.5q-122 0 -191 -75v-664h-225zM244 1309l112 112l172 -172l172 172l113 -112l-285 -285z" />
<glyph unicode="&#x14a;" horiz-adv-x="1449" d="M121 0v1434h149l824 -985v985h235v-1708q0 -112 -65 -180t-179 -68q-63 0 -86 10v147q42 0 68.5 26t26.5 71v364l-740 889v-985h-233z" />
<glyph unicode="&#x14b;" horiz-adv-x="1056" d="M119 0v922h225v-68q106 86 250 86q157 0 250.5 -107.5t93.5 -283.5v-823q0 -113 -61.5 -180.5t-174.5 -67.5q-61 0 -86 10v147q43 0 70 26t27 71v817q0 85 -49.5 137.5t-128.5 52.5q-122 0 -191 -75v-664h-225z" />
<glyph unicode="&#x14c;" horiz-adv-x="1642" d="M90 717q0 216 91.5 383t258 259.5t381.5 92.5t381.5 -92.5t258 -259.5t91.5 -383t-91.5 -383t-258 -259.5t-381.5 -92.5t-381.5 92.5t-258 259.5t-91.5 383zM332 717q0 -233 136 -380t353 -147t353.5 147t136.5 380t-136.5 379.5t-353.5 146.5t-353 -146.5t-136 -379.5z M553 1554v136h534v-136h-534z" />
<glyph unicode="&#x14d;" horiz-adv-x="1130" d="M80 461q0 214 134 346.5t351 132.5t351.5 -132.5t134.5 -346.5t-134.5 -346.5t-351.5 -132.5t-351 132.5t-134 346.5zM297 1087v134h534v-134h-534zM313 461q0 -125 70 -202t182 -77t182 77t70 202q0 124 -69.5 201t-182.5 77t-182.5 -77t-69.5 -201z" />
<glyph unicode="&#x14e;" horiz-adv-x="1642" d="M90 717q0 216 91.5 383t258 259.5t381.5 92.5t381.5 -92.5t258 -259.5t91.5 -383t-91.5 -383t-258 -259.5t-381.5 -92.5t-381.5 92.5t-258 259.5t-91.5 383zM332 717q0 -233 136 -380t353 -147t353.5 147t136.5 380t-136.5 379.5t-353.5 146.5t-353 -146.5t-136 -379.5z M510 1649l111 110q77 -80 200 -80q127 0 199 78l113 -110q-122 -131 -312 -131q-184 0 -311 133z" />
<glyph unicode="&#x14f;" horiz-adv-x="1130" d="M80 461q0 214 134 346.5t351 132.5t351.5 -132.5t134.5 -346.5t-134.5 -346.5t-351.5 -132.5t-351 132.5t-134 346.5zM254 1180l111 112q77 -80 200 -80q127 0 199 78l113 -110q-122 -131 -312 -131q-183 0 -311 131zM313 461q0 -125 70 -202t182 -77t182 77t70 202 q0 124 -69.5 201t-182.5 77t-182.5 -77t-69.5 -201z" />
<glyph unicode="&#x150;" horiz-adv-x="1642" d="M90 717q0 216 91.5 383t258 259.5t381.5 92.5t381.5 -92.5t258 -259.5t91.5 -383t-91.5 -383t-258 -259.5t-381.5 -92.5t-381.5 92.5t-258 259.5t-91.5 383zM332 717q0 -233 136 -380t353 -147t353.5 147t136.5 380t-136.5 379.5t-353.5 146.5t-353 -146.5t-136 -379.5z M498 1604l282 284l113 -112l-283 -285zM829 1604l285 284l113 -112l-285 -285z" />
<glyph unicode="&#x151;" horiz-adv-x="1130" d="M80 461q0 214 134 346.5t351 132.5t351.5 -132.5t134.5 -346.5t-134.5 -346.5t-351.5 -132.5t-351 132.5t-134 346.5zM242 1137l282 284l113 -112l-283 -285zM313 461q0 -125 70 -202t182 -77t182 77t70 202q0 124 -69.5 201t-182.5 77t-182.5 -77t-69.5 -201zM573 1137 l285 284l113 -112l-285 -285z" />
<glyph unicode="&#x152;" horiz-adv-x="1820" d="M90 717q0 216 91.5 383t258 259.5t381.5 92.5q77 0 180 -18h738v-193h-506v-426h442v-192h-442v-430h516v-193h-745q-103 -18 -183 -18q-215 0 -381.5 92.5t-258 259.5t-91.5 383zM332 717q0 -233 136 -380t353 -147q99 0 178 33v987q-91 33 -178 33q-217 0 -353 -146.5 t-136 -379.5z" />
<glyph unicode="&#x153;" horiz-adv-x="1675" d="M80 461q0 214 134 346.5t351 132.5q185 0 314 -104q120 104 295 104q207 0 318.5 -144t111.5 -403h-641q18 -98 85 -154.5t177 -56.5q127 0 202 78l134 -139q-136 -139 -353 -139q-194 0 -321 108q-127 -108 -322 -108q-217 0 -351 132.5t-134 346.5zM313 461 q0 -125 70 -202t182 -77q122 0 191 88q-33 82 -33 197q0 98 31 186q-70 86 -189 86q-113 0 -182.5 -77t-69.5 -201zM963 549h415q-14 93 -63.5 144.5t-134.5 51.5q-87 0 -144.5 -53t-72.5 -143z" />
<glyph unicode="&#x154;" horiz-adv-x="1120" d="M121 0v1434h440q203 0 327 -114.5t124 -305.5q0 -144 -72.5 -247t-200.5 -146l342 -621h-266l-305 594h-148v-594h-241zM362 795h199q94 0 151.5 60.5t57.5 158.5t-57.5 158.5t-151.5 60.5h-199v-438zM385 1604l285 284l112 -112l-284 -285z" />
<glyph unicode="&#x155;" horiz-adv-x="712" d="M119 0v922h225v-95q101 109 223 109q18 0 58 -4v-197q-29 10 -74 10q-65 0 -118.5 -31t-88.5 -85v-629h-225zM223 1137l285 284l113 -112l-285 -285z" />
<glyph unicode="&#x156;" horiz-adv-x="1120" d="M121 0v1434h440q203 0 327 -114.5t124 -305.5q0 -144 -72.5 -247t-200.5 -146l342 -621h-266l-305 594h-148v-594h-241zM362 795h199q94 0 151.5 60.5t57.5 158.5t-57.5 158.5t-151.5 60.5h-199v-438zM449 -444q72 75 90 141q-38 6 -62 36t-24 70q0 46 31 77.5t77 31.5 q44 0 77.5 -29.5t33.5 -93.5q0 -129 -166 -291z" />
<glyph unicode="&#x157;" horiz-adv-x="712" d="M119 0v922h225v-95q101 109 223 109q18 0 58 -4v-197q-29 10 -74 10q-65 0 -118.5 -31t-88.5 -85v-629h-225zM119 -444q72 75 90 141q-38 6 -63 36t-25 70q0 46 32 77.5t78 31.5q44 0 77.5 -29.5t33.5 -93.5q0 -129 -166 -291z" />
<glyph unicode="&#x158;" horiz-adv-x="1120" d="M121 0v1434h440q203 0 327 -114.5t124 -305.5q0 -144 -72.5 -247t-200.5 -146l342 -621h-266l-305 594h-148v-594h-241zM258 1776l113 112l172 -172l172 172l112 -112l-284 -285zM362 795h199q94 0 151.5 60.5t57.5 158.5t-57.5 158.5t-151.5 60.5h-199v-438z" />
<glyph unicode="&#x159;" horiz-adv-x="712" d="M96 1309l113 112l172 -172l172 172l113 -112l-285 -285zM119 0v922h225v-95q101 109 223 109q18 0 58 -4v-197q-29 10 -74 10q-65 0 -118.5 -31t-88.5 -85v-629h-225z" />
<glyph unicode="&#x15a;" horiz-adv-x="1126" d="M76 190l143 144q63 -65 147.5 -104.5t168.5 -39.5q60 0 108 20t76 52t42.5 68.5t14.5 72.5q0 55 -36.5 95.5t-94.5 67t-128.5 51.5t-141.5 58.5t-129 77.5t-94.5 118t-36.5 171q0 175 111 292.5t311 117.5q127 0 244 -49t204 -137l-145 -144q-48 50 -126 85.5t-151 35.5 q-101 0 -154 -60.5t-53 -133.5q0 -50 28.5 -89t75 -64t106.5 -51t122 -47.5t122 -56.5t106.5 -76t75 -107.5t28.5 -149.5q0 -87 -30.5 -163.5t-87.5 -135.5t-146 -93t-199 -34q-279 0 -481 208zM383 1604l285 284l112 -112l-284 -285z" />
<glyph unicode="&#x15b;" horiz-adv-x="792" d="M66 117l137 139q34 -39 80.5 -63.5t91.5 -24.5q58 0 88.5 32.5t30.5 71.5q0 29 -22 51t-57 37t-77.5 30.5t-85 37t-77.5 49.5t-57 74t-22 106q0 119 79 201t222 82q88 0 167 -31.5t136 -89.5l-137 -137q-27 28 -68 49t-79 21q-47 0 -69.5 -27.5t-22.5 -62.5t29.5 -62 t73 -43t95 -39.5t95 -50t73 -76.5t29.5 -117q0 -123 -88 -207.5t-240 -84.5q-94 0 -178.5 35.5t-146.5 99.5zM233 1137l283 284l113 -112l-283 -285z" />
<glyph unicode="&#x15c;" horiz-adv-x="1126" d="M76 190l143 144q63 -65 147.5 -104.5t168.5 -39.5q60 0 108 20t76 52t42.5 68.5t14.5 72.5q0 55 -36.5 95.5t-94.5 67t-128.5 51.5t-141.5 58.5t-129 77.5t-94.5 118t-36.5 171q0 175 111 292.5t311 117.5q127 0 244 -49t204 -137l-145 -144q-48 50 -126 85.5t-151 35.5 q-101 0 -154 -60.5t-53 -133.5q0 -50 28.5 -89t75 -64t106.5 -51t122 -47.5t122 -56.5t106.5 -76t75 -107.5t28.5 -149.5q0 -87 -30.5 -163.5t-87.5 -135.5t-146 -93t-199 -34q-279 0 -481 208zM256 1604l285 284l284 -284l-112 -113l-172 172l-172 -172z" />
<glyph unicode="&#x15d;" horiz-adv-x="792" d="M66 117l137 139q34 -39 80.5 -63.5t91.5 -24.5q58 0 88.5 32.5t30.5 71.5q0 29 -22 51t-57 37t-77.5 30.5t-85 37t-77.5 49.5t-57 74t-22 106q0 119 79 201t222 82q88 0 167 -31.5t136 -89.5l-137 -137q-27 28 -68 49t-79 21q-47 0 -69.5 -27.5t-22.5 -62.5t29.5 -62 t73 -43t95 -39.5t95 -50t73 -76.5t29.5 -117q0 -123 -88 -207.5t-240 -84.5q-94 0 -178.5 35.5t-146.5 99.5zM106 1137l285 284l283 -284l-113 -113l-170 172l-172 -172z" />
<glyph unicode="&#x15e;" horiz-adv-x="1126" d="M76 190l143 144q63 -65 147.5 -104.5t168.5 -39.5q60 0 108 20t76 52t42.5 68.5t14.5 72.5q0 55 -36.5 95.5t-94.5 67t-128.5 51.5t-141.5 58.5t-129 77.5t-94.5 118t-36.5 171q0 175 111 292.5t311 117.5q127 0 244 -49t204 -137l-145 -144q-48 50 -126 85.5t-151 35.5 q-101 0 -154 -60.5t-53 -133.5q0 -50 28.5 -89t75 -64t106.5 -51t122 -47.5t122 -56.5t106.5 -76t75 -107.5t28.5 -149.5q0 -172 -110.5 -292t-307.5 -132v-95q65 -14 102 -57.5t37 -110.5q0 -78 -51 -126t-133 -48t-133 54l68 67q26 -26 65 -26t63.5 23t24.5 61 q0 40 -32.5 65t-100.5 25v168q-251 15 -436 206z" />
<glyph unicode="&#x15f;" horiz-adv-x="792" d="M66 117l137 139q34 -39 80.5 -63.5t91.5 -24.5q58 0 88.5 32.5t30.5 71.5q0 29 -22 51t-57 37t-77.5 30.5t-85 37t-77.5 49.5t-57 74t-22 106q0 119 79 201t222 82q88 0 167 -31.5t136 -89.5l-137 -137q-27 28 -68 49t-79 21q-47 0 -69.5 -27.5t-22.5 -62.5t29.5 -62 t73 -43t95 -39.5t95 -50t73 -76.5t29.5 -117q0 -113 -77 -195.5t-210 -94.5v-95q64 -14 100.5 -57t36.5 -111q0 -78 -50 -126t-132 -48t-133 54l68 67q26 -26 65 -26t63.5 23t24.5 61q0 40 -32.5 65t-100.5 25v168q-164 18 -276 133z" />
<glyph unicode="&#x160;" horiz-adv-x="1126" d="M76 190l143 144q63 -65 147.5 -104.5t168.5 -39.5q60 0 108 20t76 52t42.5 68.5t14.5 72.5q0 55 -36.5 95.5t-94.5 67t-128.5 51.5t-141.5 58.5t-129 77.5t-94.5 118t-36.5 171q0 175 111 292.5t311 117.5q127 0 244 -49t204 -137l-145 -144q-48 50 -126 85.5t-151 35.5 q-101 0 -154 -60.5t-53 -133.5q0 -50 28.5 -89t75 -64t106.5 -51t122 -47.5t122 -56.5t106.5 -76t75 -107.5t28.5 -149.5q0 -87 -30.5 -163.5t-87.5 -135.5t-146 -93t-199 -34q-279 0 -481 208zM256 1776l113 112l172 -172l172 172l112 -112l-284 -285z" />
<glyph unicode="&#x161;" horiz-adv-x="792" d="M66 117l137 139q34 -39 80.5 -63.5t91.5 -24.5q58 0 88.5 32.5t30.5 71.5q0 29 -22 51t-57 37t-77.5 30.5t-85 37t-77.5 49.5t-57 74t-22 106q0 119 79 201t222 82q88 0 167 -31.5t136 -89.5l-137 -137q-27 28 -68 49t-79 21q-47 0 -69.5 -27.5t-22.5 -62.5t29.5 -62 t73 -43t95 -39.5t95 -50t73 -76.5t29.5 -117q0 -123 -88 -207.5t-240 -84.5q-94 0 -178.5 35.5t-146.5 99.5zM106 1309l113 112l172 -172l170 172l113 -112l-283 -285z" />
<glyph unicode="&#x162;" horiz-adv-x="1138" d="M70 1241v193h999v-193h-383v-1241h-233v1241h-383zM459 -444q72 75 90 141q-38 6 -63 36t-25 70q0 46 32 77.5t78 31.5q44 0 77.5 -29.5t33.5 -93.5q0 -129 -166 -291z" />
<glyph unicode="&#x163;" horiz-adv-x="681" d="M61 745v177h109v204h233v-204h207v-177h-207v-426q0 -66 37.5 -106.5t100.5 -40.5q42 0 69 16v-186q-44 -20 -112 -20q-152 0 -240 90.5t-88 246.5v426h-109zM266 -444q75 79 90 141q-37 6 -61.5 36t-24.5 70q0 46 32 77.5t79 31.5q42 0 75 -29.5t33 -93.5 q0 -128 -163 -291z" />
<glyph unicode="&#x164;" horiz-adv-x="1138" d="M70 1241v193h999v-193h-383v-1241h-233v1241h-383zM285 1776l112 112l172 -172l172 172l113 -112l-285 -285z" />
<glyph unicode="&#x165;" horiz-adv-x="815" d="M61 745v177h109v204h233v-204h207v-177h-207v-426q0 -66 37.5 -106.5t100.5 -40.5q42 0 69 16v-186q-44 -20 -112 -20q-152 0 -240 90.5t-88 246.5v426h-109zM526 1102q87 91 111 168q-46 9 -76.5 45.5t-30.5 85.5q0 57 39.5 96t96.5 39q52 0 93.5 -36.5t41.5 -115.5 q0 -93 -56 -179t-147 -177z" />
<glyph unicode="&#x166;" horiz-adv-x="1138" d="M70 1241v193h999v-193h-383v-395h277v-176h-277v-670h-233v670h-279v176h279v395h-383z" />
<glyph unicode="&#x167;" horiz-adv-x="681" d="M61 446v168h109v131h-109v177h109v204h233v-204h207v-177h-207v-131h207v-168h-207v-127q0 -66 37.5 -106.5t100.5 -40.5q42 0 69 16v-186q-44 -20 -112 -20q-152 0 -240 90.5t-88 246.5v127h-109z" />
<glyph unicode="&#x168;" horiz-adv-x="1345" d="M121 528v906h233v-906q0 -150 88.5 -244t227.5 -94q143 0 232 93.5t89 244.5v906h234v-906q0 -244 -153.5 -395t-401.5 -151q-247 0 -398 150.5t-151 395.5zM365 1546q0 90 55 146.5t139 56.5q42 0 76 -14.5t52 -31.5t43 -31.5t52 -14.5q34 0 55 23.5t21 60.5h121 q0 -92 -55 -148.5t-142 -56.5q-42 0 -75.5 14.5t-51 31.5t-42 31.5t-52.5 14.5q-33 0 -54.5 -23t-21.5 -59h-120z" />
<glyph unicode="&#x169;" horiz-adv-x="1071" d="M119 391v531h233v-531q0 -92 53 -150.5t136 -58.5q84 0 136 58t52 151v531h223v-531q0 -183 -115 -296t-302 -113q-185 0 -300.5 113t-115.5 296zM227 1079q0 90 55.5 146.5t139.5 56.5q42 0 76 -14.5t52 -31.5t43 -31.5t52 -14.5q32 0 54 23.5t22 58.5h121 q0 -90 -55 -146.5t-142 -56.5q-42 0 -75.5 14.5t-51 31.5t-42 31.5t-52.5 14.5q-33 0 -54.5 -23t-21.5 -59h-121z" />
<glyph unicode="&#x16a;" horiz-adv-x="1345" d="M121 528v906h233v-906q0 -150 88.5 -244t227.5 -94q143 0 232 93.5t89 244.5v906h234v-906q0 -244 -153.5 -395t-401.5 -151q-247 0 -398 150.5t-151 395.5zM406 1554v136h534v-136h-534z" />
<glyph unicode="&#x16b;" horiz-adv-x="1071" d="M119 391v531h233v-531q0 -92 53 -150.5t136 -58.5q84 0 136 58t52 151v531h223v-531q0 -183 -115 -296t-302 -113q-185 0 -300.5 113t-115.5 296zM268 1087v134h535v-134h-535z" />
<glyph unicode="&#x16c;" horiz-adv-x="1345" d="M121 528v906h233v-906q0 -150 88.5 -244t227.5 -94q143 0 232 93.5t89 244.5v906h234v-906q0 -244 -153.5 -395t-401.5 -151q-247 0 -398 150.5t-151 395.5zM360 1649l113 110q73 -80 199 -80q125 0 200 78l111 -110q-122 -131 -311 -131q-185 0 -312 133z" />
<glyph unicode="&#x16d;" horiz-adv-x="1071" d="M119 391v531h233v-531q0 -92 53 -150.5t136 -58.5q84 0 136 58t52 151v531h223v-531q0 -183 -115 -296t-302 -113q-185 0 -300.5 113t-115.5 296zM223 1180l113 112q73 -80 199 -80q125 0 200 78l111 -110q-122 -131 -311 -131q-184 0 -312 131z" />
<glyph unicode="&#x16e;" horiz-adv-x="1345" d="M121 528v906h233v-906q0 -150 88.5 -244t227.5 -94q143 0 232 93.5t89 244.5v906h234v-906q0 -244 -153.5 -395t-401.5 -151q-247 0 -398 150.5t-151 395.5zM485 1667q0 86 51.5 138.5t135.5 52.5q85 0 136.5 -52.5t51.5 -138.5t-51.5 -139t-136.5 -53q-83 0 -135 53 t-52 139zM580 1665q0 -42 26 -68t66 -26q42 0 68 26t26 68t-27 69t-67 27t-66 -27t-26 -69z" />
<glyph unicode="&#x16f;" horiz-adv-x="1071" d="M119 391v531h233v-531q0 -92 53 -150.5t136 -58.5q84 0 136 58t52 151v531h223v-531q0 -183 -115 -296t-302 -113q-185 0 -300.5 113t-115.5 296zM348 1198q0 86 52 139.5t135 53.5q84 0 135 -53t51 -140q0 -86 -50.5 -138t-135.5 -52q-84 0 -135.5 52t-51.5 138z M442 1198q0 -42 26.5 -69t66.5 -27q41 0 67.5 26.5t26.5 69.5q0 42 -27 69t-67 27t-66.5 -27t-26.5 -69z" />
<glyph unicode="&#x170;" horiz-adv-x="1345" d="M121 528v906h233v-906q0 -150 88.5 -244t227.5 -94q143 0 232 93.5t89 244.5v906h234v-906q0 -244 -153.5 -395t-401.5 -151q-247 0 -398 150.5t-151 395.5zM348 1604l285 284l112 -112l-284 -285zM682 1604l285 284l112 -112l-284 -285z" />
<glyph unicode="&#x171;" horiz-adv-x="1071" d="M119 391v531h233v-531q0 -92 53 -150.5t136 -58.5q84 0 136 58t52 151v531h223v-531q0 -183 -115 -296t-302 -113q-185 0 -300.5 113t-115.5 296zM211 1137l285 284l112 -112l-284 -285zM545 1137l282 284l113 -112l-283 -285z" />
<glyph unicode="&#x172;" horiz-adv-x="1345" d="M121 528v906h233v-906q0 -150 88.5 -244t227.5 -94q143 0 232 93.5t89 244.5v906h234v-906q0 -202 -109 -343.5t-293 -184.5q-14 -25 -14 -72q0 -49 27.5 -76.5t72.5 -27.5t74 26l74 -73q-55 -58 -146 -58q-92 0 -149 57.5t-57 151.5q0 29 6 56q-12 -2 -41 -2 q-247 0 -398 150.5t-151 395.5z" />
<glyph unicode="&#x173;" horiz-adv-x="1071" d="M119 391v531h233v-531q0 -92 53 -150.5t136 -58.5q84 0 136 58t52 151v531h223v-531q0 -148 -76.5 -252t-209.5 -139q-15 -27 -15 -72q0 -49 28 -76.5t73 -27.5q44 0 73 26l74 -73q-55 -58 -145 -58q-92 0 -149.5 57.5t-57.5 151.5q0 30 6 54h-18q-185 0 -300.5 113 t-115.5 296z" />
<glyph unicode="&#x174;" horiz-adv-x="2265" d="M33 1434h274l363 -1065l342 1065h241l342 -1065l363 1065h272l-518 -1434h-235l-347 1024l-342 -1024h-235zM848 1604l282 284l285 -284l-112 -113l-173 172l-169 -172z" />
<glyph unicode="&#x175;" horiz-adv-x="1613" d="M25 922h260l207 -646l202 646h226l202 -646l207 646h260l-350 -922h-235l-197 602l-197 -602h-235zM522 1137l285 284l285 -284l-113 -113l-172 172l-172 -172z" />
<glyph unicode="&#x176;" horiz-adv-x="1390" d="M33 1434h270l391 -615l391 615h271l-545 -846v-588h-236v590zM410 1604l284 284l285 -284l-113 -113l-172 172l-172 -172z" />
<glyph unicode="&#x177;" horiz-adv-x="1081" d="M25 922h251l267 -648l262 648h252l-649 -1434h-252l280 512zM256 1137l285 284l284 -284l-112 -113l-172 172l-172 -172z" />
<glyph unicode="&#x178;" horiz-adv-x="1390" d="M33 1434h270l391 -615l391 615h271l-545 -846v-588h-236v590zM369 1636q0 54 37 90.5t90 36.5q54 0 90.5 -36.5t36.5 -90.5q0 -53 -36.5 -90t-90.5 -37q-52 0 -89.5 37.5t-37.5 89.5zM764 1636q0 54 36.5 91.5t90.5 37.5t90.5 -37.5t36.5 -91.5q0 -53 -36.5 -90 t-90.5 -37t-90.5 37t-36.5 90z" />
<glyph unicode="&#x179;" horiz-adv-x="1282" d="M90 0v68l756 1173h-746v193h1090v-66l-756 -1175h758v-193h-1102zM483 1604l285 284l113 -112l-285 -285z" />
<glyph unicode="&#x17a;" horiz-adv-x="970" d="M90 0v68l455 677h-447v177h783v-66l-455 -680h455v-176h-791zM328 1137l284 284l113 -112l-285 -285z" />
<glyph unicode="&#x17b;" horiz-adv-x="1282" d="M90 0v68l756 1173h-746v193h1090v-66l-756 -1175h758v-193h-1102zM506 1665q0 57 39 96t96 39t96 -39t39 -96t-39 -96t-96 -39t-96 39t-39 96z" />
<glyph unicode="&#x17c;" horiz-adv-x="970" d="M90 0v68l455 677h-447v177h783v-66l-455 -680h455v-176h-791zM350 1198q0 57 39 96t96 39t96.5 -39t39.5 -96t-39.5 -96t-96.5 -39t-96 39t-39 96z" />
<glyph unicode="&#x17d;" horiz-adv-x="1282" d="M90 0v68l756 1173h-746v193h1090v-66l-756 -1175h758v-193h-1102zM356 1776l113 112l172 -172l172 172l113 -112l-285 -285z" />
<glyph unicode="&#x17e;" horiz-adv-x="970" d="M90 0v68l455 677h-447v177h783v-66l-455 -680h455v-176h-791zM201 1309l112 112l172 -172l172 172l113 -112l-285 -285z" />
<glyph unicode="&#x17f;" horiz-adv-x="628" d="M119 0v1206q0 160 93 254t253 94q69 0 113 -20v-186q-27 16 -70 16q-70 0 -113 -43.5t-43 -114.5v-1206h-233z" />
<glyph unicode="&#x18f;" horiz-adv-x="1505" d="M90 717v88h1077q-26 198 -160.5 318t-332.5 120q-231 0 -371 -143l-147 147q97 98 232 151.5t296 53.5q216 0 382.5 -92.5t258.5 -259.5t92 -383t-83 -383t-234 -259.5t-346 -92.5t-346.5 92.5t-234.5 259.5t-83 383zM342 612q23 -191 135 -306.5t277 -115.5 q164 0 275 115.5t134 306.5h-821z" />
<glyph unicode="&#x192;" horiz-adv-x="692" d="M63 745v177h119v284q0 160 92.5 254t251.5 94q71 0 115 -20v-186q-27 16 -70 16q-71 0 -113 -43.5t-42 -114.5v-284h225v-177h-225v-1019q0 -112 -65 -180t-179 -68q-64 0 -86 10v147q43 0 69.5 26t26.5 71v1013h-119z" />
<glyph unicode="&#x1dd;" horiz-adv-x="1032" d="M80 528h639q-15 97 -83.5 154t-176.5 57q-132 0 -203 -77l-133 139q136 139 352 139q218 0 352 -133t134 -352q0 -210 -125 -341.5t-328 -131.5q-207 0 -317.5 143.5t-110.5 402.5zM305 373q14 -93 64 -145t135 -52q87 0 144 53.5t71 143.5h-414z" />
<glyph unicode="&#x1fa;" horiz-adv-x="1560" d="M33 0l633 1423q-72 53 -72 156q0 67 32.5 114t88.5 66l-49 49l284 283l113 -113l-221 -219q59 -17 92 -64t33 -116q0 -106 -74 -158l633 -1421h-271l-151 344h-651l-148 -344h-272zM537 553h483l-240 577zM688 1577q0 -41 25.5 -67.5t66.5 -26.5t67.5 26.5t26.5 67.5 q0 42 -27 69t-67 27q-41 0 -66.5 -26.5t-25.5 -69.5z" />
<glyph unicode="&#x1fb;" horiz-adv-x="944" d="M74 246q0 98 61.5 169t158.5 104.5t216 33.5q37 0 61 -4v67q0 54 -39.5 97t-111.5 43q-48 0 -99.5 -20t-80.5 -50l-121 121q136 133 321 133q164 0 261.5 -93t97.5 -231v-399q0 -32 16.5 -51t44.5 -19v-147q-20 -10 -78 -10q-131 0 -186 102q-107 -110 -254 -110 q-125 0 -196.5 77.5t-71.5 186.5zM256 1167q0 67 32.5 114.5t88.5 66.5l-51 51l284 284l113 -112l-221 -221q59 -17 93 -65.5t34 -117.5q0 -86 -51 -138t-136 -52q-84 0 -135 52t-51 138zM301 270q0 -40 29 -72t88 -32q40 0 82.5 16.5t70.5 50.5v166q-24 7 -49 7 q-94 0 -157.5 -37.5t-63.5 -98.5zM350 1165q0 -41 26 -67.5t66 -26.5q41 0 68 26.5t27 67.5q0 43 -27 70t-68 27q-40 0 -66 -26.5t-26 -70.5z" />
<glyph unicode="&#x1fc;" horiz-adv-x="1595" d="M33 0l637 1434h843v-193h-499v-426h436v-192h-436v-430h510v-193h-744v344h-327l-148 -344h-272zM537 553h243v582zM696 1604l285 284l113 -112l-285 -285z" />
<glyph unicode="&#x1fd;" horiz-adv-x="1449" d="M74 246q0 98 61.5 169t158.5 104.5t216 33.5q37 0 61 -4v67q0 54 -39.5 97t-111.5 43q-48 0 -99.5 -20t-80.5 -50l-121 121q136 133 321 133q148 0 240 -82q114 82 268 82q207 0 318.5 -144t111.5 -403h-579v-131q67 -80 200 -80q131 0 203 78l133 -139 q-136 -139 -352 -139q-233 0 -362 141q-52 -67 -125.5 -104t-153.5 -37q-125 0 -196.5 77.5t-71.5 186.5zM301 270q0 -40 29 -72t88 -32q39 0 81.5 18.5t71.5 53.5v161q-24 7 -49 7q-94 0 -157.5 -37.5t-63.5 -98.5zM600 1137l285 284l112 -112l-284 -285zM793 674 q6 -54 6 -58v-67h354q-14 92 -64 144t-135 52q-103 0 -161 -71z" />
<glyph unicode="&#x1fe;" horiz-adv-x="1642" d="M78 -18l192 227q-180 199 -180 508q0 216 91.5 383t258 259.5t381.5 92.5q230 0 412 -111l94 111h238l-195 -227q182 -204 182 -508q0 -216 -91.5 -383t-258 -259.5t-381.5 -92.5q-237 0 -413 110l-95 -110h-235zM332 717q0 -192 92 -326l663 778q-120 74 -266 74 q-217 0 -353 -146.5t-136 -379.5zM553 264q115 -74 268 -74q217 0 353.5 147t136.5 380q0 188 -94 325zM664 1604l284 284l113 -112l-285 -285z" />
<glyph unicode="&#x1ff;" horiz-adv-x="1130" d="M78 -18l117 151q-115 131 -115 328q0 214 134 346.5t351 132.5q122 0 215 -43l45 59h228l-125 -161q123 -132 123 -334q0 -214 -134.5 -346.5t-351.5 -132.5q-123 0 -225 45l-35 -45h-227zM297 461q0 -81 33 -152l329 430q-49 17 -94 17q-120 0 -194 -81.5t-74 -213.5z M408 1137l284 284l113 -112l-285 -285zM461 184q46 -18 104 -18q120 0 194.5 81.5t74.5 213.5q0 90 -39 160z" />
<glyph unicode="&#x218;" horiz-adv-x="1126" d="M76 190l143 144q63 -65 147.5 -104.5t168.5 -39.5q60 0 108 20t76 52t42.5 68.5t14.5 72.5q0 55 -36.5 95.5t-94.5 67t-128.5 51.5t-141.5 58.5t-129 77.5t-94.5 118t-36.5 171q0 175 111 292.5t311 117.5q127 0 244 -49t204 -137l-145 -144q-48 50 -126 85.5t-151 35.5 q-101 0 -154 -60.5t-53 -133.5q0 -50 28.5 -89t75 -64t106.5 -51t122 -47.5t122 -56.5t106.5 -76t75 -107.5t28.5 -149.5q0 -87 -30.5 -163.5t-87.5 -135.5t-146 -93t-199 -34q-279 0 -481 208zM449 -444q72 75 90 141q-38 6 -63 36t-25 70q0 46 32 77.5t78 31.5 q44 0 77.5 -29.5t33.5 -93.5q0 -129 -166 -291z" />
<glyph unicode="&#x219;" horiz-adv-x="792" d="M66 117l137 139q34 -39 80.5 -63.5t91.5 -24.5q58 0 88.5 32.5t30.5 71.5q0 29 -22 51t-57 37t-77.5 30.5t-85 37t-77.5 49.5t-57 74t-22 106q0 119 79 201t222 82q88 0 167 -31.5t136 -89.5l-137 -137q-27 28 -68 49t-79 21q-47 0 -69.5 -27.5t-22.5 -62.5t29.5 -62 t73 -43t95 -39.5t95 -50t73 -76.5t29.5 -117q0 -123 -88 -207.5t-240 -84.5q-94 0 -178.5 35.5t-146.5 99.5zM279 -444q75 79 90 141q-37 6 -61.5 36t-24.5 70q0 46 31.5 77.5t78.5 31.5q43 0 76 -29.5t33 -93.5q0 -127 -164 -291z" />
<glyph unicode="&#x21a;" horiz-adv-x="1138" d="M70 1241v193h999v-193h-383v-1241h-233v1241h-383zM459 -444q72 75 90 141q-38 6 -63 36t-25 70q0 46 32 77.5t78 31.5q44 0 77.5 -29.5t33.5 -93.5q0 -129 -166 -291z" />
<glyph unicode="&#x21b;" horiz-adv-x="681" d="M61 745v177h109v204h233v-204h207v-177h-207v-426q0 -66 37.5 -106.5t100.5 -40.5q42 0 69 16v-186q-44 -20 -112 -20q-152 0 -240 90.5t-88 246.5v426h-109zM266 -444q75 79 90 141q-37 6 -61.5 36t-24.5 70q0 46 32 77.5t79 31.5q42 0 75 -29.5t33 -93.5 q0 -128 -163 -291z" />
<glyph unicode="&#x237;" d="M23 -365q43 0 69.5 26t26.5 71v1190h225v-1196q0 -113 -60.5 -180.5t-172.5 -67.5q-63 0 -88 10v147z" />
<glyph unicode="&#x2c6;" horiz-adv-x="720" d="M76 1137l284 284l285 -284l-113 -113l-172 172l-172 -172z" />
<glyph unicode="&#x2c7;" horiz-adv-x="720" d="M76 1309l112 112l172 -172l172 172l113 -112l-285 -285z" />
<glyph unicode="&#x2d8;" horiz-adv-x="733" d="M55 1180l111 112q77 -80 201 -80q126 0 198 78l113 -110q-122 -131 -311 -131q-184 0 -312 131z" />
<glyph unicode="&#x2d9;" d="M96 1198q0 57 39 96t96 39t96.5 -39t39.5 -96t-39.5 -96t-96.5 -39t-96 39t-39 96z" />
<glyph unicode="&#x2da;" horiz-adv-x="563" d="M96 1198q0 86 52 139.5t135 53.5q84 0 135 -53t51 -140q0 -86 -50.5 -138t-135.5 -52q-84 0 -135.5 52t-51.5 138zM190 1198q0 -42 26.5 -69t66.5 -27q41 0 67.5 26.5t26.5 69.5q0 42 -27 69t-67 27t-66.5 -27t-26.5 -69z" />
<glyph unicode="&#x2db;" horiz-adv-x="528" d="M88 -72q0 41 16 72h107q-18 -27 -18 -72q0 -49 27.5 -76.5t72.5 -27.5q48 0 74 26l73 -73q-55 -58 -145 -58q-92 0 -149.5 57.5t-57.5 151.5z" />
<glyph unicode="&#x2dc;" horiz-adv-x="710" d="M49 1079q0 90 55 146.5t140 56.5q42 0 75.5 -14.5t51 -31.5t42.5 -31.5t52 -14.5q34 0 56 23.5t22 58.5h119q0 -90 -55 -146.5t-142 -56.5q-42 0 -75 14.5t-50.5 31.5t-42 31.5t-51.5 14.5q-34 0 -56 -23t-22 -59h-119z" />
<glyph unicode="&#x2dd;" horiz-adv-x="882" d="M76 1137l284 284l113 -112l-285 -285zM410 1137l284 284l113 -112l-285 -285z" />
<glyph unicode="&#x400;" horiz-adv-x="989" d="M121 0v1434h778v-193h-545v-426h482v-192h-482v-430h555v-193h-788zM272 1776l113 112l285 -284l-113 -113z" />
<glyph unicode="&#x401;" horiz-adv-x="989" d="M121 0v1434h778v-193h-545v-426h482v-192h-482v-430h555v-193h-788zM184 1636q0 54 37 90.5t90 36.5q54 0 90.5 -36.5t36.5 -90.5q0 -53 -36.5 -90t-90.5 -37q-53 0 -90 37.5t-37 89.5zM580 1636q0 54 36.5 91.5t90.5 37.5t90.5 -37.5t36.5 -91.5q0 -53 -36.5 -90 t-90.5 -37t-90.5 37t-36.5 90z" />
<glyph unicode="&#x402;" horiz-adv-x="1400" d="M70 1241v193h999v-193h-383v-440q109 86 252 86q160 0 255 -107.5t95 -283.5v-258q0 -113 -62.5 -180.5t-178.5 -67.5q-64 0 -89 10v147q43 0 70 26t27 71v252q0 85 -49.5 137.5t-128.5 52.5q-121 0 -191 -76v-610h-233v1241h-383z" />
<glyph unicode="&#x403;" horiz-adv-x="946" d="M121 0v1434h756v-193h-523v-1241h-233zM340 1604l285 284l112 -112l-284 -285z" />
<glyph unicode="&#x404;" horiz-adv-x="1419" d="M90 717q0 216 91.5 383t258 259.5t381.5 92.5q161 0 297 -53.5t234 -151.5l-150 -149q-139 145 -368 145q-197 0 -331.5 -117.5t-162.5 -310.5h764v-192h-764q28 -196 162 -314.5t332 -118.5q227 0 368 144l150 -148q-98 -98 -234 -151t-297 -53q-215 0 -381.5 92.5 t-258 259.5t-91.5 383z" />
<glyph unicode="&#x405;" horiz-adv-x="1126" d="M76 190l143 144q63 -65 147.5 -104.5t168.5 -39.5q60 0 108 20t76 52t42.5 68.5t14.5 72.5q0 55 -36.5 95.5t-94.5 67t-128.5 51.5t-141.5 58.5t-129 77.5t-94.5 118t-36.5 171q0 175 111 292.5t311 117.5q127 0 244 -49t204 -137l-145 -144q-48 50 -126 85.5t-151 35.5 q-101 0 -154 -60.5t-53 -133.5q0 -50 28.5 -89t75 -64t106.5 -51t122 -47.5t122 -56.5t106.5 -76t75 -107.5t28.5 -149.5q0 -87 -30.5 -163.5t-87.5 -135.5t-146 -93t-199 -34q-279 0 -481 208z" />
<glyph unicode="&#x406;" horiz-adv-x="471" d="M119 0v1434h233v-1434h-233z" />
<glyph unicode="&#x407;" horiz-adv-x="471" d="M-63 1636q0 54 36 90.5t90 36.5q53 0 90 -36.5t37 -90.5q0 -52 -37 -89.5t-90 -37.5q-54 0 -90 37t-36 90zM119 0v1434h233v-1434h-233zM283 1636q0 54 36.5 91.5t90.5 37.5t90.5 -37.5t36.5 -91.5q0 -53 -36.5 -90t-90.5 -37t-90.5 37t-36.5 90z" />
<glyph unicode="&#x408;" horiz-adv-x="921" d="M70 98l149 150q58 -58 148 -58q89 0 145.5 58.5t56.5 152.5v1033h234v-1033q0 -187 -119 -303t-307 -116q-91 0 -171 30.5t-136 85.5z" />
<glyph unicode="&#x409;" horiz-adv-x="1937" d="M63 0v147q106 0 170 63.5t64 176.5v1047h901v-594h201q202 0 326 -114.5t124 -305.5t-124 -305.5t-326 -114.5h-443v1241h-415v-846q0 -184 -96 -294.5t-259 -110.5q-87 0 -123 10zM1198 201h201q92 0 149.5 60.5t57.5 158.5t-57.5 158.5t-149.5 60.5h-201v-438z" />
<glyph unicode="&#x40a;" horiz-adv-x="1935" d="M121 0v1434h233v-594h598v594h242v-594h201q202 0 326 -114.5t124 -305.5t-124 -305.5t-326 -114.5h-443v639h-598v-639h-233zM1194 201h201q94 0 151.5 60.5t57.5 158.5t-57.5 158.5t-151.5 60.5h-201v-438z" />
<glyph unicode="&#x40b;" horiz-adv-x="1400" d="M70 1241v193h999v-193h-383v-440q109 86 252 86q160 0 255 -107.5t95 -283.5v-496h-233v496q0 85 -49.5 137.5t-128.5 52.5q-121 0 -191 -76v-610h-233v1241h-383z" />
<glyph unicode="&#x40c;" horiz-adv-x="1263" d="M119 0v1434h233v-684l533 684h295l-543 -697l592 -737h-301l-576 723v-723h-233zM473 1604l285 284l112 -112l-284 -285z" />
<glyph unicode="&#x40d;" horiz-adv-x="1423" d="M121 0v1434h233v-985l799 985h150v-1434h-234v985l-799 -985h-149zM473 1776l113 112l284 -284l-112 -113z" />
<glyph unicode="&#x40e;" horiz-adv-x="1245" d="M25 1434h251l349 -709l344 709h252l-705 -1434h-252l250 451zM311 1649l113 110q73 -80 199 -80q125 0 200 78l111 -110q-122 -131 -311 -131q-185 0 -312 133z" />
<glyph unicode="&#x40f;" horiz-adv-x="1402" d="M121 0v1434h233v-1241h695v1241h233v-1434h-471v-307h-217v307h-473z" />
<glyph unicode="&#x410;" horiz-adv-x="1560" d="M33 0l637 1434h219l637 -1434h-271l-151 344h-651l-148 -344h-272zM537 553h483l-240 577z" />
<glyph unicode="&#x411;" horiz-adv-x="1107" d="M121 0v1434h780v-193h-539v-401h207q202 0 326.5 -114.5t124.5 -305.5t-124.5 -305.5t-326.5 -114.5h-448zM362 201h207q92 0 149.5 60.5t57.5 158.5t-57.5 158.5t-149.5 60.5h-207v-438z" />
<glyph unicode="&#x412;" horiz-adv-x="1134" d="M121 0v1434h436q182 0 293 -102.5t111 -274.5q0 -95 -37.5 -172t-104.5 -123q101 -46 159 -140.5t58 -218.5q0 -184 -118.5 -293.5t-313.5 -109.5h-483zM362 201h232q94 0 151.5 60.5t57.5 160.5q0 98 -57.5 158.5t-151.5 60.5h-232v-440zM362 842h179q83 0 134.5 53 t51.5 141q0 89 -51.5 143t-134.5 54h-179v-391z" />
<glyph unicode="&#x413;" horiz-adv-x="946" d="M121 0v1434h756v-193h-523v-1241h-233z" />
<glyph unicode="&#x414;" horiz-adv-x="1404" d="M51 184q106 0 168 83.5t62 234.5v932h921v-1241h152v-500h-217v307h-869v-307h-217v491zM420 193h538v1048h-434v-739q0 -202 -104 -309z" />
<glyph unicode="&#x415;" horiz-adv-x="989" d="M121 0v1434h778v-193h-545v-426h482v-192h-482v-430h555v-193h-788z" />
<glyph unicode="&#x416;" horiz-adv-x="1916" d="M35 0l547 737l-508 697h270l498 -682v682h233v-682l498 682h270l-508 -697l547 -737h-276l-531 723v-723h-233v723l-531 -723h-276z" />
<glyph unicode="&#x417;" horiz-adv-x="1134" d="M70 186l145 148q144 -150 326 -150q122 0 192 66t70 172q0 98 -57.5 158.5t-151.5 60.5h-209v201h156q91 0 146.5 52.5t55.5 147.5q0 96 -59 151.5t-158 55.5q-77 0 -154 -35.5t-141 -99.5l-141 139q199 199 455 199q203 0 317.5 -109.5t114.5 -279.5q0 -204 -158 -301 q102 -47 159.5 -140.5t57.5 -220.5q0 -192 -130 -305.5t-349 -113.5q-289 0 -487 204z" />
<glyph unicode="&#x418;" horiz-adv-x="1423" d="M121 0v1434h233v-985l799 985h150v-1434h-234v985l-799 -985h-149z" />
<glyph unicode="&#x419;" horiz-adv-x="1423" d="M121 0v1434h233v-985l799 985h150v-1434h-234v985l-799 -985h-149zM401 1649l111 110q77 -80 201 -80q126 0 198 78l113 -110q-122 -131 -311 -131q-185 0 -312 133z" />
<glyph unicode="&#x41a;" horiz-adv-x="1263" d="M119 0v1434h233v-684l533 684h295l-543 -697l592 -737h-301l-576 723v-723h-233z" />
<glyph unicode="&#x41b;" horiz-adv-x="1343" d="M63 0v147q106 0 170 63.5t64 176.5v1047h926v-1434h-244v1241h-438v-846q0 -184 -96 -294.5t-259 -110.5q-87 0 -123 10z" />
<glyph unicode="&#x41c;" horiz-adv-x="1630" d="M121 0v1434h174l520 -791l520 791h174v-1434h-233v956l-418 -655h-86l-418 655v-956h-233z" />
<glyph unicode="&#x41d;" horiz-adv-x="1400" d="M121 0v1434h233v-619h690v619h236v-1434h-236v623h-690v-623h-233z" />
<glyph unicode="&#x41e;" horiz-adv-x="1642" d="M90 717q0 216 91.5 383t258 259.5t381.5 92.5t381.5 -92.5t258 -259.5t91.5 -383t-91.5 -383t-258 -259.5t-381.5 -92.5t-381.5 92.5t-258 259.5t-91.5 383zM332 717q0 -233 136 -380t353 -147t353.5 147t136.5 380t-136.5 379.5t-353.5 146.5t-353 -146.5t-136 -379.5z " />
<glyph unicode="&#x41f;" horiz-adv-x="1325" d="M121 0v1434h1083v-1434h-233v1241h-617v-1241h-233z" />
<glyph unicode="&#x420;" horiz-adv-x="1083" d="M121 0v1434h422q203 0 326.5 -114.5t123.5 -305.5t-123.5 -305.5t-326.5 -114.5h-181v-594h-241zM362 795h181q94 0 151.5 60.5t57.5 158.5t-57.5 158.5t-151.5 60.5h-181v-438z" />
<glyph unicode="&#x421;" horiz-adv-x="1419" d="M90 717q0 216 91.5 383t258 259.5t381.5 92.5q161 0 297 -53.5t234 -151.5l-150 -149q-139 145 -368 145q-223 0 -362.5 -146.5t-139.5 -379.5t139.5 -380t362.5 -147q227 0 368 144l150 -148q-98 -98 -234 -151t-297 -53q-215 0 -381.5 92.5t-258 259.5t-91.5 383z" />
<glyph unicode="&#x422;" horiz-adv-x="1138" d="M70 1241v193h999v-193h-383v-1241h-233v1241h-383z" />
<glyph unicode="&#x423;" horiz-adv-x="1245" d="M25 1434h251l349 -709l344 709h252l-705 -1434h-252l250 451z" />
<glyph unicode="&#x424;" horiz-adv-x="1638" d="M90 717q0 258 169.5 419.5t442.5 161.5v136h234v-136q275 0 444.5 -161t169.5 -420t-169.5 -420.5t-444.5 -161.5v-135h-234v135q-273 0 -442.5 161.5t-169.5 420.5zM332 717q0 -166 103 -269.5t267 -103.5v746q-164 0 -267 -103.5t-103 -269.5zM936 344 q166 0 268.5 103.5t102.5 269.5t-102.5 269.5t-268.5 103.5v-746z" />
<glyph unicode="&#x425;" horiz-adv-x="1505" d="M35 0l545 727l-529 707h303l398 -545l397 545h303l-528 -707l546 -727h-301l-417 569l-416 -569h-301z" />
<glyph unicode="&#x426;" horiz-adv-x="1478" d="M121 0v1434h233v-1241h695v1241h233v-1241h143v-500h-217v307h-1087z" />
<glyph unicode="&#x427;" horiz-adv-x="1177" d="M121 1028v406h225v-398q0 -140 59.5 -207t186.5 -67q154 0 239 35v637h226v-1434h-226v614q-125 -36 -286 -36q-208 0 -316 116t-108 334z" />
<glyph unicode="&#x428;" horiz-adv-x="2023" d="M121 0v1434h233v-1241h541v1241h233v-1241h541v1241h234v-1434h-1782z" />
<glyph unicode="&#x429;" horiz-adv-x="2099" d="M121 0v1434h233v-1241h541v1241h233v-1241h541v1241h234v-1241h143v-500h-217v307h-1708z" />
<glyph unicode="&#x42a;" horiz-adv-x="1361" d="M70 1241v193h553v-594h198q204 0 328.5 -114.5t124.5 -305.5t-124.5 -305.5t-328.5 -114.5h-442v1241h-309zM623 201h198q94 0 151.5 60.5t57.5 158.5t-57.5 158.5t-151.5 60.5h-198v-438z" />
<glyph unicode="&#x42b;" horiz-adv-x="1540" d="M121 0v1434h241v-594h201q203 0 327 -114.5t124 -305.5t-124 -305.5t-327 -114.5h-442zM362 201h201q94 0 151.5 60.5t57.5 158.5t-57.5 158.5t-151.5 60.5h-201v-438zM1186 0v1434h233v-1434h-233z" />
<glyph unicode="&#x42c;" horiz-adv-x="1103" d="M121 0v1434h241v-594h201q203 0 327 -114.5t124 -305.5t-124 -305.5t-327 -114.5h-442zM362 201h201q94 0 151.5 60.5t57.5 158.5t-57.5 158.5t-151.5 60.5h-201v-438z" />
<glyph unicode="&#x42d;" horiz-adv-x="1419" d="M70 186l147 148q141 -144 371 -144q197 0 331 118.5t160 314.5h-651v192h651q-28 193 -161 310.5t-330 117.5q-232 0 -371 -145l-147 149q97 98 232 151.5t296 53.5q216 0 382.5 -92.5t258.5 -259.5t92 -383t-92 -383t-258.5 -259.5t-382.5 -92.5q-161 0 -296.5 53 t-231.5 151z" />
<glyph unicode="&#x42e;" horiz-adv-x="2109" d="M121 0v1434h233v-619h318q29 287 211.5 462t459.5 175q199 0 353 -92.5t238.5 -259.5t84.5 -383t-84.5 -383t-238.5 -259.5t-353 -92.5q-279 0 -461 175.5t-210 465.5h-318v-623h-233zM909 717q0 -234 120.5 -380.5t313.5 -146.5q192 0 313.5 147t121.5 380t-121.5 379.5 t-313.5 146.5q-193 0 -313.5 -146t-120.5 -380z" />
<glyph unicode="&#x42f;" horiz-adv-x="1128" d="M45 0l334 616q-135 39 -212 143.5t-77 254.5q0 191 124 305.5t327 114.5h467v-1434h-244v594h-160l-293 -594h-266zM332 1014q0 -98 57.5 -158.5t151.5 -60.5h223v438h-223q-94 0 -151.5 -60.5t-57.5 -158.5z" />
<glyph unicode="&#x430;" horiz-adv-x="944" d="M74 246q0 98 61.5 169t158.5 104.5t216 33.5q37 0 61 -4v67q0 54 -39.5 97t-111.5 43q-48 0 -99.5 -20t-80.5 -50l-121 121q136 133 321 133q164 0 261.5 -93t97.5 -231v-399q0 -32 16.5 -51t44.5 -19v-147q-20 -10 -78 -10q-131 0 -186 102q-107 -110 -254 -110 q-125 0 -196.5 77.5t-71.5 186.5zM301 270q0 -40 29 -72t88 -32q40 0 82.5 16.5t70.5 50.5v166q-24 7 -49 7q-94 0 -157.5 -37.5t-63.5 -98.5z" />
<glyph unicode="&#x431;" horiz-adv-x="1150" d="M100 623q0 135 18.5 243.5t51.5 182t76 129t96 92t107.5 63t113.5 48t111 42.5t104 52.5t88 70.5l123 -123q-66 -70 -139.5 -119.5t-132 -74t-117.5 -47.5t-103 -47.5t-80.5 -64t-59 -108.5t-29.5 -171h12q116 149 285 149q87 0 167.5 -35t142.5 -97t99 -155t37 -200 q0 -211 -135.5 -341t-374.5 -130q-84 0 -150 17t-126 61.5t-99.5 115.5t-62.5 184t-23 263zM338 461q0 -125 66.5 -202t179.5 -77t183.5 77.5t70.5 201.5t-69.5 201t-182.5 77q-112 0 -180 -76.5t-68 -201.5z" />
<glyph unicode="&#x432;" horiz-adv-x="915" d="M119 0v922h387q131 0 203.5 -65.5t72.5 -172.5q0 -131 -102 -197q76 -29 117 -89t41 -142q0 -115 -78 -185.5t-217 -70.5h-424zM344 166h156q47 0 79.5 34t32.5 85t-32 83.5t-80 32.5h-156v-235zM344 553h125q40 0 68 29t28 71q0 43 -28 72t-68 29h-125v-201z" />
<glyph unicode="&#x433;" horiz-adv-x="749" d="M119 0v922h561v-177h-336v-745h-225z" />
<glyph unicode="&#x434;" horiz-adv-x="1116" d="M55 176q73 0 123.5 50t50.5 124v572h703v-746h129v-422h-209v246h-588v-246h-209v422zM381 176h326v569h-252v-372q0 -120 -74 -197z" />
<glyph unicode="&#x435;" horiz-adv-x="1032" d="M80 467q0 210 124 341.5t326 131.5q208 0 319.5 -144t111.5 -403h-642q18 -98 85.5 -154.5t177.5 -56.5q128 0 200 78l136 -139q-136 -139 -353 -139t-351 133t-134 352zM319 549h416q-14 93 -63.5 144.5t-134.5 51.5q-87 0 -145 -53t-73 -143z" />
<glyph unicode="&#x436;" horiz-adv-x="1435" d="M35 0l346 492l-309 430h258l274 -394v394h225v-394l277 394h258l-311 -430l346 -492h-256l-314 453v-453h-225v453l-313 -453h-256z" />
<glyph unicode="&#x437;" horiz-adv-x="843" d="M59 121l123 125q74 -80 201 -80q76 0 115 33.5t39 87.5q0 50 -30 78t-79 28h-143v150h104q42 0 72.5 31.5t30.5 72.5q0 39 -28.5 74t-88.5 35q-47 0 -97.5 -21.5t-82.5 -56.5l-125 125q134 137 325 137q149 0 233.5 -70.5t84.5 -183.5q0 -141 -107 -207 q77 -30 116.5 -91.5t39.5 -143.5q0 -122 -91.5 -192t-267.5 -70q-119 0 -197.5 34.5t-146.5 104.5z" />
<glyph unicode="&#x438;" horiz-adv-x="1073" d="M119 0v922h225v-557l436 557h174v-922h-225v557l-434 -557h-176z" />
<glyph unicode="&#x439;" horiz-adv-x="1073" d="M119 0v922h225v-557l436 557h174v-922h-225v557l-434 -557h-176zM225 1180l113 112q73 -80 199 -80q125 0 200 78l111 -110q-122 -131 -311 -131q-184 0 -312 131z" />
<glyph unicode="&#x43a;" horiz-adv-x="993" d="M119 0v922h225v-387l311 387h267l-355 -430l391 -492h-266l-348 446v-446h-225z" />
<glyph unicode="&#x43b;" horiz-adv-x="1030" d="M63 0v147q71 0 113.5 43t42.5 119v613h692v-922h-225v745h-242v-446q0 -141 -72 -225t-206 -84q-72 0 -103 10z" />
<glyph unicode="&#x43c;" horiz-adv-x="1224" d="M119 0v922h215l278 -473l281 473h213v-922h-209v575l-227 -403h-115l-227 403v-575h-209z" />
<glyph unicode="&#x43d;" horiz-adv-x="1071" d="M119 0v922h225v-371h381v371h227v-922h-227v375h-381v-375h-225z" />
<glyph unicode="&#x43e;" horiz-adv-x="1130" d="M80 461q0 214 134 346.5t351 132.5t351.5 -132.5t134.5 -346.5t-134.5 -346.5t-351.5 -132.5t-351 132.5t-134 346.5zM313 461q0 -125 70 -202t182 -77t182 77t70 202q0 124 -69.5 201t-182.5 77t-182.5 -77t-69.5 -201z" />
<glyph unicode="&#x43f;" horiz-adv-x="1048" d="M119 0v922h811v-922h-228v745h-358v-745h-225z" />
<glyph unicode="&#x440;" horiz-adv-x="1105" d="M119 -512v1434h225v-68q109 86 254 86q192 0 311 -132.5t119 -346.5t-130 -346.5t-339 -132.5q-119 0 -215 49v-543h-225zM344 250q68 -68 191 -68q115 0 186.5 77t71.5 202q0 124 -71 201t-187 77q-122 0 -191 -75v-414z" />
<glyph unicode="&#x441;" horiz-adv-x="960" d="M80 461q0 214 132 346.5t347 132.5q206 0 344 -141l-139 -137q-68 77 -193 77q-114 0 -186 -77t-72 -201t72 -201.5t186 -77.5q125 0 193 78l139 -139q-136 -139 -344 -139q-215 0 -347 132.5t-132 346.5z" />
<glyph unicode="&#x442;" horiz-adv-x="899" d="M70 745v177h759v-177h-268v-745h-225v745h-266z" />
<glyph unicode="&#x443;" horiz-adv-x="1081" d="M25 922h251l267 -648l262 648h252l-649 -1434h-252l280 512z" />
<glyph unicode="&#x444;" horiz-adv-x="1445" d="M80 461q0 213 133.5 342t351.5 129q29 0 45 -2v606h226v-606q12 2 45 2q218 0 351.5 -129t133.5 -342t-133.5 -342t-351.5 -129q-33 0 -45 2v-504h-226v504q-16 -2 -45 -2q-218 0 -351.5 129t-133.5 342zM313 461q0 -125 70 -202t182 -77q29 0 45 2v551q-32 4 -45 4 q-113 0 -182.5 -77t-69.5 -201zM836 184q12 -2 45 -2q111 0 181.5 77.5t70.5 201.5t-70.5 201t-181.5 77q-21 0 -45 -4v-551z" />
<glyph unicode="&#x445;" horiz-adv-x="1075" d="M35 0l354 471l-338 451h262l224 -308l223 308h260l-336 -451l354 -471h-258l-243 330l-242 -330h-260z" />
<glyph unicode="&#x446;" horiz-adv-x="1101" d="M119 0v922h225v-746h358v746h228v-746h119v-422h-209v246h-721z" />
<glyph unicode="&#x447;" horiz-adv-x="978" d="M117 657v265h225v-256q0 -68 38.5 -111t113.5 -43q86 0 139 33v377h227v-922h-227v358q-99 -30 -197 -30q-154 0 -236.5 89t-82.5 240z" />
<glyph unicode="&#x448;" horiz-adv-x="1454" d="M119 0v922h225v-746h270v746h226v-746h270v746h225v-922h-1216z" />
<glyph unicode="&#x449;" horiz-adv-x="1507" d="M119 0v922h225v-746h270v746h226v-746h270v746h225v-746h119v-422h-209v246h-1126z" />
<glyph unicode="&#x44a;" horiz-adv-x="1071" d="M70 745v177h465v-361h139q153 0 238 -78t85 -204q0 -125 -85 -202t-238 -77h-367v745h-237zM535 166h131q44 0 75 33t31 80q0 50 -30.5 82t-75.5 32h-131v-227z" />
<glyph unicode="&#x44b;" horiz-adv-x="1265" d="M119 0v922h225v-361h141q153 0 238.5 -78t85.5 -204q0 -125 -85.5 -202t-238.5 -77h-366zM344 166h133q44 0 75.5 33t31.5 80q0 50 -31 82t-76 32h-133v-227zM922 0v922h225v-922h-225z" />
<glyph unicode="&#x44c;" horiz-adv-x="880" d="M119 0v922h225v-361h141q153 0 238.5 -78t85.5 -204q0 -125 -85.5 -202t-238.5 -77h-366zM344 166h133q44 0 75.5 33t31.5 80q0 50 -31 82t-76 32h-133v-227z" />
<glyph unicode="&#x44d;" horiz-adv-x="960" d="M59 123l138 137q68 -78 192 -78q95 0 162.5 54t89.5 147h-344v160h342q-22 90 -89 143t-161 53q-124 0 -192 -77l-138 139q133 139 344 139q215 0 347.5 -132.5t132.5 -346.5t-132.5 -346.5t-347.5 -132.5q-209 0 -344 141z" />
<glyph unicode="&#x44e;" horiz-adv-x="1538" d="M119 0v922h225v-371h180q26 176 152.5 282.5t312.5 106.5q211 0 342 -132.5t131 -346.5t-131 -346.5t-342 -132.5q-188 0 -313.5 107t-151.5 286h-180v-375h-225zM752 461q0 -124 65.5 -201.5t171.5 -77.5t172 77.5t66 201.5t-66 201t-172 77t-171.5 -77t-65.5 -201z" />
<glyph unicode="&#x44f;" horiz-adv-x="960" d="M86 0l213 373q-93 30 -141.5 99t-48.5 165q0 128 87 206.5t244 78.5h402v-922h-226v352h-118l-179 -352h-233zM336 637q0 -51 32.5 -84t80.5 -33h167v234h-167q-48 0 -80.5 -33t-32.5 -84z" />
<glyph unicode="&#x450;" horiz-adv-x="1032" d="M80 467q0 210 124 341.5t326 131.5q208 0 319.5 -144t111.5 -403h-642q18 -98 85.5 -154.5t177.5 -56.5q128 0 200 78l136 -139q-136 -139 -353 -139t-351 133t-134 352zM293 1309l113 112l284 -284l-112 -113zM319 549h416q-14 93 -63.5 144.5t-134.5 51.5 q-87 0 -145 -53t-73 -143z" />
<glyph unicode="&#x451;" horiz-adv-x="1032" d="M80 467q0 210 124 341.5t326 131.5q208 0 319.5 -144t111.5 -403h-642q18 -98 85.5 -154.5t177.5 -56.5q128 0 200 78l136 -139q-136 -139 -353 -139t-351 133t-134 352zM209 1135q0 54 36.5 90.5t90.5 36.5q53 0 90 -36.5t37 -90.5q0 -53 -37.5 -90t-89.5 -37 q-54 0 -90.5 37t-36.5 90zM319 549h416q-14 93 -63.5 144.5t-134.5 51.5q-87 0 -145 -53t-73 -143zM602 1135q0 54 37 91.5t90 37.5q54 0 91.5 -37.5t37.5 -91.5q0 -53 -37.5 -90t-91.5 -37q-53 0 -90 37t-37 90z" />
<glyph unicode="&#x452;" horiz-adv-x="1110" d="M61 1155v176h109v205h225v-205h318v-176h-318v-299q108 84 248 84q159 0 252.5 -107.5t93.5 -283.5v-823q0 -113 -61 -180.5t-174 -67.5q-61 0 -86 10v147q43 0 69.5 26t26.5 71v817q0 85 -49.5 137.5t-128.5 52.5q-122 0 -191 -75v-664h-225v1155h-109z" />
<glyph unicode="&#x453;" horiz-adv-x="749" d="M119 0v922h561v-177h-336v-745h-225zM240 1137l284 284l113 -112l-285 -285z" />
<glyph unicode="&#x454;" horiz-adv-x="960" d="M80 461q0 214 132 346.5t347 132.5q206 0 344 -141l-139 -137q-68 77 -193 77q-93 0 -159.5 -53t-89.5 -143h385v-160h-385q20 -93 87 -147t162 -54q125 0 193 78l139 -139q-136 -139 -344 -139q-215 0 -347 132.5t-132 346.5z" />
<glyph unicode="&#x455;" horiz-adv-x="792" d="M66 117l137 139q34 -39 80.5 -63.5t91.5 -24.5q58 0 88.5 32.5t30.5 71.5q0 29 -22 51t-57 37t-77.5 30.5t-85 37t-77.5 49.5t-57 74t-22 106q0 119 79 201t222 82q88 0 167 -31.5t136 -89.5l-137 -137q-27 28 -68 49t-79 21q-47 0 -69.5 -27.5t-22.5 -62.5t29.5 -62 t73 -43t95 -39.5t95 -50t73 -76.5t29.5 -117q0 -123 -88 -207.5t-240 -84.5q-94 0 -178.5 35.5t-146.5 99.5z" />
<glyph unicode="&#x456;" d="M96 1198q0 57 39 96t96 39t96.5 -39t39.5 -96t-39.5 -96t-96.5 -39t-96 39t-39 96zM119 0v922h225v-922h-225z" />
<glyph unicode="&#x457;" d="M-68 1153q0 54 37 90.5t90 36.5q54 0 90.5 -36.5t36.5 -90.5q0 -53 -36.5 -90t-90.5 -37q-53 0 -90 37t-37 90zM119 0v922h225v-922h-225zM274 1153q0 55 37 92t90 37q55 0 92 -37t37 -92q0 -53 -37 -90t-92 -37q-53 0 -90 37t-37 90z" />
<glyph unicode="&#x458;" d="M23 -365q43 0 69.5 26t26.5 71v1190h225v-1196q0 -113 -60.5 -180.5t-172.5 -67.5q-63 0 -88 10v147zM96 1198q0 57 39 96t96 39t96.5 -39t39.5 -96t-39.5 -96t-96.5 -39t-96 39t-39 96z" />
<glyph unicode="&#x459;" horiz-adv-x="1443" d="M63 0v147q71 0 113.5 43t42.5 119v613h692v-361h140q153 0 239 -78t86 -204q0 -125 -86 -202t-239 -77h-365v745h-242v-446q0 -141 -72 -225t-206 -84q-72 0 -103 10zM911 166h131q46 0 76.5 33t30.5 80q0 50 -30.5 82t-76.5 32h-131v-227z" />
<glyph unicode="&#x45a;" horiz-adv-x="1497" d="M119 0v922h225v-371h379v371h225v-371h156q152 0 233.5 -75.5t81.5 -201.5q0 -125 -81.5 -199.5t-233.5 -74.5h-381v375h-379v-375h-225zM948 166h146q45 0 72.5 28.5t27.5 75.5q0 49 -27.5 77t-72.5 28h-146v-209z" />
<glyph unicode="&#x45b;" horiz-adv-x="1110" d="M61 1155v176h109v205h225v-205h318v-176h-318v-299q108 84 248 84q159 0 252.5 -107.5t93.5 -283.5v-549h-225v549q0 85 -49.5 137.5t-128.5 52.5q-122 0 -191 -75v-664h-225v1155h-109z" />
<glyph unicode="&#x45c;" horiz-adv-x="993" d="M119 0v922h225v-387l311 387h267l-355 -430l391 -492h-266l-348 446v-446h-225zM338 1137l285 284l112 -112l-284 -285z" />
<glyph unicode="&#x45d;" horiz-adv-x="1073" d="M119 0v922h225v-557l436 557h174v-922h-225v557l-434 -557h-176zM297 1309l113 112l284 -284l-112 -113z" />
<glyph unicode="&#x45e;" horiz-adv-x="1081" d="M25 922h251l267 -648l262 648h252l-649 -1434h-252l280 512zM229 1180l113 112q73 -80 199 -80q125 0 200 78l111 -110q-122 -131 -311 -131q-184 0 -312 131z" />
<glyph unicode="&#x45f;" horiz-adv-x="1048" d="M119 0v922h225v-746h358v746h228v-922h-301v-246h-209v246h-301z" />
<glyph unicode="&#x490;" horiz-adv-x="937" d="M121 0v1434h543v256h176v-449h-486v-1241h-233z" />
<glyph unicode="&#x491;" horiz-adv-x="747" d="M119 0v922h366v204h174v-381h-315v-745h-225z" />
<glyph unicode="&#x4d8;" horiz-adv-x="1505" d="M90 717v88h1077q-26 198 -160.5 318t-332.5 120q-231 0 -371 -143l-147 147q97 98 232 151.5t296 53.5q216 0 382.5 -92.5t258.5 -259.5t92 -383t-83 -383t-234 -259.5t-346 -92.5t-346.5 92.5t-234.5 259.5t-83 383zM342 612q23 -191 135 -306.5t277 -115.5 q164 0 275 115.5t134 306.5h-821z" />
<glyph unicode="&#x4d9;" horiz-adv-x="1032" d="M80 528h639q-15 97 -83.5 154t-176.5 57q-132 0 -203 -77l-133 139q136 139 352 139q218 0 352 -133t134 -352q0 -210 -125 -341.5t-328 -131.5q-207 0 -317.5 143.5t-110.5 402.5zM305 373q14 -93 64 -145t135 -52q87 0 144 53.5t71 143.5h-414z" />
<glyph unicode="&#x1e80;" horiz-adv-x="2265" d="M33 1434h274l363 -1065l342 1065h241l342 -1065l363 1065h272l-518 -1434h-235l-347 1024l-342 -1024h-235zM891 1776l113 112l284 -284l-112 -113z" />
<glyph unicode="&#x1e81;" horiz-adv-x="1613" d="M25 922h260l207 -646l202 646h226l202 -646l207 646h260l-350 -922h-235l-197 602l-197 -602h-235zM567 1309l113 112l285 -284l-113 -113z" />
<glyph unicode="&#x1e82;" horiz-adv-x="2265" d="M33 1434h274l363 -1065l342 1065h241l342 -1065l363 1065h272l-518 -1434h-235l-347 1024l-342 -1024h-235zM973 1604l284 284l113 -112l-285 -285z" />
<glyph unicode="&#x1e83;" horiz-adv-x="1613" d="M25 922h260l207 -646l202 646h226l202 -646l207 646h260l-350 -922h-235l-197 602l-197 -602h-235zM649 1137l285 284l113 -112l-285 -285z" />
<glyph unicode="&#x1e84;" horiz-adv-x="2265" d="M33 1434h274l363 -1065l342 1065h241l342 -1065l363 1065h272l-518 -1434h-235l-347 1024l-342 -1024h-235zM807 1636q0 54 36.5 90.5t90.5 36.5q53 0 90 -36.5t37 -90.5q0 -52 -37.5 -89.5t-89.5 -37.5q-54 0 -90.5 37t-36.5 90zM1200 1636q0 54 37 91.5t90 37.5 q54 0 91.5 -37.5t37.5 -91.5q0 -53 -37.5 -90t-91.5 -37q-53 0 -90 37.5t-37 89.5z" />
<glyph unicode="&#x1e85;" horiz-adv-x="1613" d="M25 922h260l207 -646l202 646h226l202 -646l207 646h260l-350 -922h-235l-197 602l-197 -602h-235zM483 1169q0 53 36.5 90t90.5 37q52 0 88.5 -37t36.5 -90q0 -54 -36 -90.5t-89 -36.5q-54 0 -90.5 36.5t-36.5 90.5zM877 1169q0 54 36.5 91.5t90.5 37.5t91.5 -37.5 t37.5 -91.5t-37.5 -90.5t-91.5 -36.5t-90.5 36.5t-36.5 90.5z" />
<glyph unicode="&#x1ef2;" horiz-adv-x="1390" d="M33 1434h270l391 -615l391 615h271l-545 -846v-588h-236v590zM455 1776l112 112l285 -284l-113 -113z" />
<glyph unicode="&#x1ef3;" horiz-adv-x="1081" d="M25 922h251l267 -648l262 648h252l-649 -1434h-252l280 512zM301 1309l113 112l284 -284l-112 -113z" />
<glyph unicode="&#x2000;" horiz-adv-x="1045" />
<glyph unicode="&#x2001;" horiz-adv-x="2091" />
<glyph unicode="&#x2002;" horiz-adv-x="1045" />
<glyph unicode="&#x2003;" horiz-adv-x="2091" />
<glyph unicode="&#x2004;" horiz-adv-x="697" />
<glyph unicode="&#x2005;" horiz-adv-x="522" />
<glyph unicode="&#x2006;" horiz-adv-x="348" />
<glyph unicode="&#x2007;" horiz-adv-x="348" />
<glyph unicode="&#x2008;" horiz-adv-x="261" />
<glyph unicode="&#x2009;" horiz-adv-x="418" />
<glyph unicode="&#x200a;" horiz-adv-x="116" />
<glyph unicode="&#x2010;" horiz-adv-x="696" d="M96 461v176h504v-176h-504z" />
<glyph unicode="&#x2011;" horiz-adv-x="696" d="M96 461v176h504v-176h-504z" />
<glyph unicode="&#x2012;" horiz-adv-x="1024" d="M96 629v176h832v-176h-832z" />
<glyph unicode="&#x2013;" horiz-adv-x="1024" d="M96 461v176h832v-176h-832z" />
<glyph unicode="&#x2014;" horiz-adv-x="1433" d="M96 461v176h1241v-176h-1241z" />
<glyph unicode="&#x2018;" d="M96 1096q0 93 56.5 180.5t146.5 175.5l72 -72q-87 -91 -111 -168q48 -11 77.5 -47.5t29.5 -85.5q0 -57 -39.5 -96t-96.5 -39q-52 0 -93.5 37t-41.5 115z" />
<glyph unicode="&#x2019;" d="M92 1018q86 86 111 168q-46 9 -76.5 45.5t-30.5 85.5q0 57 39 96t96 39q54 0 95 -36t41 -116q0 -49 -17 -99t-50 -97.5t-62.5 -82t-71.5 -77.5z" />
<glyph unicode="&#x201a;" d="M92 -184q87 90 111 170q-46 9 -76.5 45.5t-30.5 85.5q0 57 39 96t96 39q54 0 95 -36t41 -116q0 -93 -56 -180t-145 -176z" />
<glyph unicode="&#x201c;" horiz-adv-x="786" d="M96 1180q0 93 56.5 180.5t146.5 175.5l72 -72q-87 -91 -111 -168q48 -11 77.5 -47.5t29.5 -85.5q0 -57 -39.5 -96t-96.5 -39q-52 0 -93.5 37t-41.5 115zM420 1180q0 159 201 356l73 -72q-85 -85 -110 -168q46 -11 76 -47.5t30 -85.5q0 -57 -39 -96t-96 -39q-53 0 -94 37 t-41 115z" />
<glyph unicode="&#x201d;" horiz-adv-x="786" d="M92 1102q86 86 111 168q-46 9 -76.5 45.5t-30.5 85.5q0 57 39 96t96 39q54 0 95 -36t41 -116q0 -49 -17 -99t-50 -97.5t-62.5 -82t-71.5 -77.5zM416 1102q86 89 110 168q-47 9 -76.5 45.5t-29.5 85.5q0 57 39 96t96 39q52 0 93.5 -36.5t41.5 -115.5q0 -93 -56 -179 t-147 -177z" />
<glyph unicode="&#x201e;" horiz-adv-x="786" d="M92 -184q87 90 111 170q-46 9 -76.5 45.5t-30.5 85.5q0 57 39 96t96 39q54 0 95 -36t41 -116q0 -93 -56 -180t-145 -176zM416 -184q87 93 110 170q-47 9 -76.5 45.5t-29.5 85.5q0 57 39 96t96 39q52 0 93.5 -36.5t41.5 -115.5q0 -93 -56.5 -180.5t-146.5 -175.5z" />
<glyph unicode="&#x2020;" horiz-adv-x="1024" d="M96 745v177h303v614h226v-614h303v-177h-303v-1257h-226v1257h-303z" />
<glyph unicode="&#x2021;" horiz-adv-x="1024" d="M96 113v176h303v456h-303v177h303v614h226v-614h303v-177h-303v-456h303v-176h-303v-625h-226v625h-303z" />
<glyph unicode="&#x2022;" horiz-adv-x="528" d="M88 563q0 73 51 124.5t125 51.5q75 0 125.5 -51t50.5 -125q0 -75 -50.5 -125.5t-125.5 -50.5q-74 0 -125 50.5t-51 125.5z" />
<glyph unicode="&#x2026;" horiz-adv-x="1390" d="M96 117q0 57 39 96t96 39t96.5 -39t39.5 -96t-39.5 -96t-96.5 -39t-96 39t-39 96zM561 117q0 57 39 96t96 39t96 -39t39 -96t-39 -96t-96 -39t-96 39t-39 96zM1024 117q0 57 39 96t96 39t96 -39t39 -96t-39 -96t-96 -39t-96 39t-39 96z" />
<glyph unicode="&#x202f;" horiz-adv-x="418" />
<glyph unicode="&#x2030;" horiz-adv-x="2662" d="M70 1083q0 164 103 266.5t269 102.5q167 0 271 -102.5t104 -266.5q0 -163 -104 -264.5t-271 -101.5q-166 0 -269 101.5t-103 264.5zM268 1083q0 -88 49 -144t125 -56t125 56t49 144q0 89 -49 146t-125 57t-125 -57t-49 -146zM420 0l770 1434h225l-768 -1434h-227z M1018 348q0 164 104 266.5t271 102.5q166 0 270 -102.5t104 -266.5q0 -163 -104 -264.5t-270 -101.5q-167 0 -271 101.5t-104 264.5zM1219 348q0 -88 49 -144.5t125 -56.5t125 56.5t49 144.5q0 89 -48.5 146t-125.5 57t-125.5 -57t-48.5 -146zM1845 348q0 164 104 266.5 t271 102.5q166 0 269.5 -102.5t103.5 -266.5q0 -163 -103.5 -264.5t-269.5 -101.5q-167 0 -271 101.5t-104 264.5zM2046 348q0 -88 49 -144.5t125 -56.5q75 0 123.5 56.5t48.5 144.5q0 89 -48.5 146t-123.5 57q-76 0 -125 -57t-49 -146z" />
<glyph unicode="&#x2039;" horiz-adv-x="602" d="M51 512l359 356l112 -112l-246 -244l246 -244l-112 -112z" />
<glyph unicode="&#x203a;" horiz-adv-x="602" d="M76 268l243 244l-243 244l112 112l357 -356l-357 -356z" />
<glyph unicode="&#x2044;" horiz-adv-x="1085" d="M78 0l770 1434h160l-770 -1434h-160z" />
<glyph unicode="&#x205f;" horiz-adv-x="522" />
<glyph unicode="&#x20ac;" horiz-adv-x="1513" d="M70 520v125h114q-2 23 -2 72q0 46 2 71h-114v125h133q57 247 248 393t464 146q161 0 297 -53.5t234 -151.5l-150 -149q-139 145 -368 145q-170 0 -294.5 -89t-176.5 -241h475v-125h-504q-2 -25 -2 -71q0 -49 2 -72h504v-125h-475q51 -153 176 -241.5t295 -88.5 q227 0 368 144l150 -148q-98 -98 -234 -151t-297 -53q-274 0 -464.5 145.5t-247.5 392.5h-133z" />
<glyph unicode="&#x20b4;" horiz-adv-x="890" d="M70 530v125h170l131 131h-301v125h426l18 19q35 35 51.5 68.5t16.5 82.5q0 73 -51.5 120.5t-129.5 47.5q-118 0 -182 -80l-143 144q126 139 325 139q184 0 298 -101t114 -264q0 -95 -51 -176h59v-125h-162l-131 -131h293v-125h-418l-26 -26q-35 -35 -51.5 -69t-16.5 -83 q0 -73 51.5 -120.5t128.5 -47.5q118 0 185 80l143 -143q-130 -139 -328 -139q-183 0 -296 100.5t-113 263.5q0 99 53 184h-63z" />
<glyph unicode="&#x2116;" horiz-adv-x="2048" d="M121 0v1434h149l824 -985v985h235v-1434h-151l-824 985v-985h-233zM1458 1180q0 118 74.5 191t193.5 73q120 0 194.5 -73t74.5 -191t-74.5 -191.5t-194.5 -73.5q-119 0 -193.5 73.5t-74.5 191.5zM1597 1180q0 -66 36 -106t93 -40q59 0 95.5 40t36.5 106q0 64 -36.5 104.5 t-95.5 40.5q-57 0 -93 -40.5t-36 -104.5z" />
<glyph unicode="&#x2122;" horiz-adv-x="1394" d="M43 1327v107h504v-107h-189v-610h-129v610h-186zM627 717v717h96l254 -379l254 379h98v-717h-131v454l-199 -309h-45l-196 309v-454h-131z" />
<glyph unicode="&#x2190;" horiz-adv-x="1951" d="M80 719l725 723l145 -148l-473 -471h1350v-209h-1350l475 -475l-147 -145z" />
<glyph unicode="&#x2191;" horiz-adv-x="1607" d="M80 719l725 725l723 -725l-148 -146l-471 474v-1350h-209v1350l-475 -476z" />
<glyph unicode="&#x2192;" horiz-adv-x="1951" d="M125 614v209h1348l-474 471l148 148l725 -723l-725 -725l-148 145l474 475h-1348z" />
<glyph unicode="&#x2193;" horiz-adv-x="1607" d="M80 412l145 147l475 -475v1350h209v-1350l471 473l148 -145l-723 -725z" />
<glyph unicode="&#x2196;" horiz-adv-x="1513" d="M125 274v1024h1024v-208h-670l955 -953l-148 -149l-952 956v-670h-209z" />
<glyph unicode="&#x2197;" horiz-adv-x="1513" d="M80 137l954 953h-667v208h1024v-1024h-209v670l-955 -956z" />
<glyph unicode="&#x2198;" horiz-adv-x="1513" d="M80 1163l147 148l955 -957v670h209v-1024h-1024v209h667z" />
<glyph unicode="&#x2199;" horiz-adv-x="1513" d="M125 0v1024h209v-670l952 957l148 -148l-955 -954h670v-209h-1024z" />
<glyph unicode="&#x2212;" horiz-adv-x="870" d="M96 528v177h678v-177h-678z" />
<glyph unicode="&#x25fc;" horiz-adv-x="921" d="M0 0v922h922v-922h-922z" />
<glyph unicode="&#xf6c3;" d="M119 -444q72 75 90 141q-38 6 -63 36t-25 70q0 46 32 77.5t78 31.5q44 0 77.5 -29.5t33.5 -93.5q0 -129 -166 -291z" />
<glyph horiz-adv-x="1105" d="M80 461q0 214 136 346.5t357 132.5q136 0 243.5 -46.5t170.5 -131.5v-762h-225v66q-111 -84 -252 -84q-193 0 -311.5 132.5t-118.5 346.5zM246 1169q0 53 37 90t90 37q54 0 90.5 -37t36.5 -90q0 -54 -36.5 -90.5t-90.5 -36.5q-53 0 -90 36.5t-37 90.5zM313 461 q0 -124 72 -201.5t186 -77.5q123 0 191 74v426q-72 57 -193 57q-115 0 -185.5 -76.5t-70.5 -201.5zM639 1169q0 54 37 91.5t90 37.5q55 0 92 -37.5t37 -91.5t-37 -90.5t-92 -36.5q-53 0 -90 36.5t-37 90.5z" />
<glyph horiz-adv-x="1105" d="M80 461q0 214 136 346.5t357 132.5q136 0 243.5 -46.5t170.5 -131.5v-762h-225v66q-111 -84 -252 -84q-193 0 -311.5 132.5t-118.5 346.5zM313 461q0 -124 72 -201.5t186 -77.5q123 0 191 74v426q-72 57 -193 57q-115 0 -185.5 -76.5t-70.5 -201.5zM334 1309l112 112 l285 -284l-113 -113z" />
<glyph horiz-adv-x="1105" d="M80 461q0 214 136 346.5t357 132.5q136 0 243.5 -46.5t170.5 -131.5v-762h-225v66q-111 -84 -252 -84q-193 0 -311.5 132.5t-118.5 346.5zM307 1087v134h535v-134h-535zM313 461q0 -124 72 -201.5t186 -77.5q123 0 191 74v426q-72 57 -193 57q-115 0 -185.5 -76.5 t-70.5 -201.5z" />
<glyph horiz-adv-x="1105" d="M80 461q0 214 136 346.5t357 132.5q136 0 243.5 -46.5t170.5 -131.5v-762h-121q-16 -29 -16 -72q0 -49 27.5 -76.5t72.5 -27.5t74 26l74 -73q-55 -58 -146 -58q-92 0 -149.5 57.5t-57.5 151.5q0 39 17 72v66q-111 -84 -252 -84q-193 0 -311.5 132.5t-118.5 346.5z M313 461q0 -124 72 -201.5t186 -77.5q123 0 191 74v426q-72 57 -193 57q-115 0 -185.5 -76.5t-70.5 -201.5z" />
<glyph horiz-adv-x="1105" d="M80 461q0 214 136 346.5t357 132.5q136 0 243.5 -46.5t170.5 -131.5v-762h-225v66q-111 -84 -252 -84q-193 0 -311.5 132.5t-118.5 346.5zM313 461q0 -124 72 -201.5t186 -77.5q123 0 191 74v426q-72 57 -193 57q-115 0 -185.5 -76.5t-70.5 -201.5zM387 1198 q0 86 52 139.5t134 53.5q85 0 137 -53.5t52 -139.5t-52 -138t-137 -52q-82 0 -134 52t-52 138zM481 1198q0 -42 26 -69t66 -27q43 0 69 26.5t26 69.5q0 42 -27 69t-68 27q-40 0 -66 -27t-26 -69z" />
<glyph horiz-adv-x="1105" d="M80 461q0 214 136 346.5t357 132.5q136 0 243.5 -46.5t170.5 -131.5v-762h-225v66q-111 -84 -252 -84q-193 0 -311.5 132.5t-118.5 346.5zM268 1079q0 90 55 146.5t140 56.5q42 0 75.5 -14.5t51 -31.5t42.5 -31.5t52 -14.5q34 0 56 23.5t22 58.5h119q0 -90 -55 -146.5 t-142 -56.5q-42 0 -75 14.5t-50.5 31.5t-42 31.5t-51.5 14.5q-34 0 -56 -23t-22 -59h-119zM313 461q0 -124 72 -201.5t186 -77.5q123 0 191 74v426q-72 57 -193 57q-115 0 -185.5 -76.5t-70.5 -201.5z" />
<glyph horiz-adv-x="1105" d="M80 461q0 214 136 346.5t357 132.5q136 0 243.5 -46.5t170.5 -131.5v-805q0 -225 -132.5 -356t-352.5 -131q-222 0 -363 141l137 137q78 -78 211 -78q127 0 201 76t74 211v84q-100 -59 -234 -59q-200 0 -324 132.5t-124 346.5zM313 461q0 -125 70 -202t182 -77 q127 0 197 86v414q-72 57 -193 57q-115 0 -185.5 -76.5t-70.5 -201.5z" />
<glyph horiz-adv-x="1105" d="M80 461q0 214 136 346.5t357 132.5q136 0 243.5 -46.5t170.5 -131.5v-805q0 -225 -132.5 -356t-352.5 -131q-222 0 -363 141l137 137q78 -78 211 -78q127 0 201 76t74 211v84q-100 -59 -234 -59q-200 0 -324 132.5t-124 346.5zM252 1180l110 112q77 -80 201 -80 q127 0 199 78l112 -110q-122 -131 -311 -131q-183 0 -311 131zM313 461q0 -125 70 -202t182 -77q127 0 197 86v414q-72 57 -193 57q-115 0 -185.5 -76.5t-70.5 -201.5z" />
<glyph horiz-adv-x="1105" d="M80 461q0 214 136 346.5t357 132.5q136 0 243.5 -46.5t170.5 -131.5v-805q0 -225 -132.5 -356t-352.5 -131q-222 0 -363 141l137 137q78 -78 211 -78q127 0 201 76t74 211v84q-100 -59 -234 -59q-200 0 -324 132.5t-124 346.5zM281 1137l284 284l283 -284l-113 -113 l-170 172l-172 -172zM313 461q0 -125 70 -202t182 -77q127 0 197 86v414q-72 57 -193 57q-115 0 -185.5 -76.5t-70.5 -201.5z" />
<glyph horiz-adv-x="1105" d="M80 461q0 214 136 346.5t357 132.5q136 0 243.5 -46.5t170.5 -131.5v-805q0 -225 -132.5 -356t-352.5 -131q-222 0 -363 141l137 137q78 -78 211 -78q127 0 201 76t74 211v84q-100 -59 -234 -59q-200 0 -324 132.5t-124 346.5zM313 461q0 -125 70 -202t182 -77 q127 0 197 86v414q-72 57 -193 57q-115 0 -185.5 -76.5t-70.5 -201.5zM451 1143q0 130 163 293l60 -60q-75 -79 -90 -139q37 -8 61.5 -38.5t24.5 -68.5q0 -47 -32 -78.5t-79 -31.5q-42 0 -75 29.5t-33 93.5z" />
<glyph horiz-adv-x="1105" d="M80 461q0 214 136 346.5t357 132.5q136 0 243.5 -46.5t170.5 -131.5v-805q0 -225 -132.5 -356t-352.5 -131q-222 0 -363 141l137 137q78 -78 211 -78q127 0 201 76t74 211v84q-100 -59 -234 -59q-200 0 -324 132.5t-124 346.5zM313 461q0 -125 70 -202t182 -77 q127 0 197 86v414q-72 57 -193 57q-115 0 -185.5 -76.5t-70.5 -201.5zM428 1198q0 57 39 96t96 39q56 0 95.5 -39t39.5 -96t-39.5 -96t-95.5 -39q-57 0 -96 39t-39 96z" />
<glyph horiz-adv-x="1634" d="M51 193h107l549 1241h219l551 -1241h104v-500h-217v307h-1096v-307h-217v500zM428 193h778l-389 940z" />
<glyph horiz-adv-x="1560" d="M33 0l637 1434h219l637 -1434h-277l-469 1124l-469 -1124h-278z" />
<glyph horiz-adv-x="2086" d="M33 0l637 1434h219l264 -594h393q204 0 328.5 -114.5t124.5 -305.5t-124.5 -305.5t-328.5 -114.5h-297l-469 1124l-469 -1124h-278zM1241 639l197 -438h108q94 0 151.5 60.5t57.5 158.5t-57.5 158.5t-151.5 60.5h-305z" />
<glyph horiz-adv-x="1105" d="M80 461q0 214 136 346.5t357 132.5q136 0 243.5 -46.5t170.5 -131.5v-762h-225v66q-111 -84 -252 -84q-193 0 -311.5 132.5t-118.5 346.5zM313 461q0 -124 72 -201.5t186 -77.5q123 0 191 74v426q-72 57 -193 57q-115 0 -185.5 -76.5t-70.5 -201.5z" />
<glyph horiz-adv-x="1171" d="M55 176h95l331 746h209l332 -746h94v-422h-209v246h-643v-246h-209v422zM393 176h385l-192 488z" />
<glyph horiz-adv-x="1081" d="M25 0l411 922h209l412 -922h-252l-264 649l-265 -649h-251z" />
<glyph horiz-adv-x="1470" d="M25 0l411 922h209l160 -361h272q153 0 238.5 -78t85.5 -204q0 -125 -85.5 -202t-238.5 -77h-272l-264 649l-265 -649h-251zM881 393l102 -227h86q44 0 75.5 33t31.5 80q0 50 -31 82t-76 32h-188z" />
<glyph horiz-adv-x="1105" d="M80 461q0 214 136 346.5t357 132.5q136 0 243.5 -46.5t170.5 -131.5v-762h-225v66q-111 -84 -252 -84q-193 0 -311.5 132.5t-118.5 346.5zM289 1137l284 284l285 -284l-113 -113l-172 172l-172 -172zM313 461q0 -124 72 -201.5t186 -77.5q123 0 191 74v426 q-72 57 -193 57q-115 0 -185.5 -76.5t-70.5 -201.5z" />
<glyph horiz-adv-x="1105" d="M80 461q0 214 136 346.5t357 132.5q136 0 243.5 -46.5t170.5 -131.5v-762h-225v66q-111 -84 -252 -84q-193 0 -311.5 132.5t-118.5 346.5zM264 1180l111 112q77 -80 200 -80q127 0 199 78l113 -110q-122 -131 -312 -131q-183 0 -311 131zM313 461q0 -124 72 -201.5 t186 -77.5q123 0 191 74v426q-72 57 -193 57q-115 0 -185.5 -76.5t-70.5 -201.5z" />
<glyph horiz-adv-x="1105" d="M80 461q0 214 136 346.5t357 132.5q136 0 243.5 -46.5t170.5 -131.5v-762h-225v66q-111 -84 -252 -84q-193 0 -311.5 132.5t-118.5 346.5zM313 461q0 -124 72 -201.5t186 -77.5q123 0 191 74v426q-72 57 -193 57q-115 0 -185.5 -76.5t-70.5 -201.5zM414 1137l284 284 l113 -112l-285 -285z" />
<glyph horiz-adv-x="1105" d="M80 461q0 214 136 346.5t357 132.5q136 0 243.5 -46.5t170.5 -131.5v-762h-225v66q-111 -84 -252 -84q-193 0 -311.5 132.5t-118.5 346.5zM313 461q0 -124 72 -201.5t186 -77.5q123 0 191 74v426q-72 57 -193 57q-115 0 -185.5 -76.5t-70.5 -201.5z" />
<glyph horiz-adv-x="1085" d="M66 717q0 328 132 531.5t345 203.5t345 -203.5t132 -531.5t-132 -531.5t-345 -203.5t-345 203.5t-132 531.5zM299 717q0 -238 67.5 -386.5t176.5 -148.5t176 148.5t67 386.5t-67 386t-176 148t-176.5 -148t-67.5 -386z" />
<glyph horiz-adv-x="1085" d="M178 1198v176l471 70v-1268h228v-176h-680v176h225v1061z" />
<glyph horiz-adv-x="1216" d="M119 0v1036q0 186 118 301t308 115q192 0 310 -113t118 -295q0 -116 -58.5 -203.5t-160.5 -129.5q0 -43 22 -75t56 -52t75.5 -38t83 -40t75.5 -50.5t55.5 -77t21.5 -112.5q0 -119 -88 -201.5t-240 -82.5q-94 0 -180 35.5t-146 99.5l138 139q34 -39 80.5 -63.5t91.5 -24.5 q57 0 88 31t31 69q0 32 -21.5 56t-56 41.5t-76 35t-83 42t-76 56t-56 83t-21.5 118.5v170q94 0 152.5 50.5t58.5 132.5q0 88 -54 143t-140 55q-85 0 -139 -60t-54 -155v-1036h-233z" />
<glyph horiz-adv-x="1619" d="M80 717q0 216 91.5 383t258.5 259.5t383 92.5q162 0 299.5 -53t231 -144t146 -215.5t52.5 -265.5q0 -90 -22 -162.5t-57.5 -118t-83 -76t-95 -43t-96.5 -12.5q-136 0 -193 82q-85 -82 -209 -82q-144 0 -231.5 98t-87.5 257q0 158 101.5 256t265.5 98q101 0 180.5 -34.5 t124.5 -96.5v-344q0 -41 26 -62.5t60 -21.5q59 0 100 59.5t41 182.5q0 243 -152.5 396t-400.5 153q-250 0 -404.5 -162.5t-154.5 -423.5q0 -262 155.5 -424t409.5 -162q125 0 238.5 41.5t187.5 118.5l107 -107q-96 -99 -235.5 -150.5t-301.5 -51.5q-217 0 -384.5 92.5 t-259 259.5t-91.5 383zM643 717q0 -92 52.5 -148.5t138.5 -56.5q85 0 137 49v320q-53 41 -142 41q-83 0 -134.5 -56.5t-51.5 -148.5z" />
<glyph horiz-adv-x="600" d="M96 717q0 244 56.5 436t153.5 296.5t216 104.5v-165q-77 0 -134.5 -191t-57.5 -481q0 -291 57.5 -481.5t134.5 -190.5v-166q-119 0 -216 104.5t-153.5 297t-56.5 436.5z" />
<glyph horiz-adv-x="600" d="M76 45q51 0 94.5 83.5t70.5 239t27 349.5t-27 349.5t-70.5 239t-94.5 83.5v165q120 0 217 -104.5t153 -296.5t56 -436t-56 -436.5t-153 -297t-217 -104.5v166z" />
<glyph horiz-adv-x="612" d="M119 -102v1638h418v-176h-193v-1286h193v-176h-418z" />
<glyph horiz-adv-x="612" d="M76 74h192v1286h-192v176h418v-1638h-418v176z" />
<glyph horiz-adv-x="632" d="M70 629v168q53 0 92 67.5t39 171.5v150q0 163 103.5 265.5t260.5 102.5v-165q-54 0 -92.5 -66.5t-38.5 -169.5v-143q0 -102 -46 -179t-126 -118q80 -41 126 -118t46 -179v-137q0 -102 38.5 -168t92.5 -66v-166q-157 0 -260.5 103t-103.5 266v141q0 103 -39 171.5 t-92 68.5z" />
<glyph horiz-adv-x="632" d="M70 45q53 0 92 66.5t39 167.5v137q0 102 45 179t125 118q-80 41 -125 118t-45 179v143q0 103 -39 169.5t-92 66.5v165q157 0 260.5 -102.5t103.5 -265.5v-150q0 -105 38.5 -172t92.5 -67v-168q-54 0 -92.5 -68t-38.5 -172v-141q0 -163 -103.5 -266t-260.5 -103v166z" />
<glyph horiz-adv-x="978" d="M80 360q0 60 17 108.5t44.5 81t60.5 61t66.5 56t61 58t44.5 74t17 96.5v121h227v-121q0 -72 -17 -132t-43.5 -100.5t-59 -73.5t-65.5 -59t-59.5 -50t-43.5 -53t-17 -62q0 -70 52.5 -126.5t148.5 -56.5q69 0 137.5 28t120.5 73l146 -146q-181 -155 -410 -155 q-195 0 -311.5 108.5t-116.5 269.5zM369 1317q0 57 39.5 96t95.5 39q57 0 96 -39t39 -96t-39 -96t-96 -39q-56 0 -95.5 39t-39.5 96z" />
<glyph horiz-adv-x="962" d="M51 717l359 356l112 -112l-246 -244l246 -244l-112 -113zM414 717l356 356l113 -112l-244 -244l244 -244l-113 -113z" />
<glyph horiz-adv-x="962" d="M76 473l243 244l-243 244l112 112l357 -356l-357 -357zM438 473l244 244l-244 244l113 112l356 -356l-356 -357z" />
<glyph horiz-adv-x="602" d="M51 717l359 356l112 -112l-246 -244l246 -244l-112 -113z" />
<glyph horiz-adv-x="602" d="M76 473l243 244l-243 244l112 112l357 -356l-357 -357z" />
<glyph horiz-adv-x="696" d="M96 629v176h504v-176h-504z" />
<glyph horiz-adv-x="1024" d="M96 629v176h832v-176h-832z" />
<glyph horiz-adv-x="1433" d="M96 629v176h1241v-176h-1241z" />
<glyph d="M119 -102v1638h225v-1638h-225z" />
<glyph d="M119 -102v716h225v-716h-225zM119 819v717h225v-717h-225z" />
<glyph horiz-adv-x="884" d="M51 600q0 107 71.5 176.5t174.5 69.5q51 0 95 -18.5t69.5 -40t59.5 -40t67 -18.5q42 0 71 30t29 77h146q0 -108 -70.5 -177t-175.5 -69q-52 0 -96 18.5t-69 41t-58 41t-66 18.5q-44 0 -73 -30t-29 -79h-146z" />
<glyph horiz-adv-x="1024" d="M96 942v174h303v420h226v-420h303v-174h-303v-1044h-226v1044h-303z" />
<glyph horiz-adv-x="1024" d="M96 328v174h303v440h-303v174h303v420h226v-420h303v-174h-303v-440h303v-174h-303v-430h-226v430h-303z" />
<glyph horiz-adv-x="528" d="M88 717q0 73 51 124.5t125 51.5q75 0 125.5 -51t50.5 -125q0 -75 -50.5 -125.5t-125.5 -50.5q-74 0 -125 50.5t-51 125.5z" />
<glyph horiz-adv-x="1222" d="M33 0l477 1032h203l477 -1032h-252l-96 205h-463l-94 -205h-252zM457 397h309l-156 351z" />
<glyph horiz-adv-x="1222" d="M33 0l477 1032h203l477 -1032h-252l-96 205h-463l-94 -205h-252zM457 397h309l-156 351zM475 1165l230 221l102 -102l-227 -221z" />
<glyph horiz-adv-x="1222" d="M33 0l477 1032h203l477 -1032h-252l-96 205h-463l-94 -205h-252zM367 1178l100 100q48 -51 143 -51q97 0 146 49l102 -100q-99 -99 -248 -99q-145 0 -243 101zM457 397h309l-156 351z" />
<glyph horiz-adv-x="1222" d="M33 0l477 1032h203l477 -1032h-252l-96 205h-463l-94 -205h-252zM385 1165l225 221l228 -221l-101 -102l-127 121l-125 -121zM457 397h309l-156 351z" />
<glyph horiz-adv-x="1222" d="M33 0l477 1032h203l477 -1032h-252l-96 205h-463l-94 -205h-252zM414 1284l104 102l227 -221l-102 -102zM457 397h309l-156 351z" />
<glyph horiz-adv-x="1222" d="M33 0l477 1032h203l477 -1032h-252l-96 205h-463l-94 -205h-252zM350 1180q0 46 32 78t77 32q47 0 79.5 -32t32.5 -78t-32.5 -78.5t-79.5 -32.5q-44 0 -76.5 32.5t-32.5 78.5zM457 397h309l-156 351zM649 1180q0 47 33 79.5t80 32.5t78.5 -32.5t31.5 -79.5 q0 -46 -31.5 -78.5t-78.5 -32.5t-80 32.5t-33 78.5z" />
<glyph horiz-adv-x="1222" d="M33 0l477 1032h203l477 -1032h-252l-96 205h-463l-94 -205h-252zM401 1110v119h420v-119h-420zM457 397h309l-156 351z" />
<glyph horiz-adv-x="1222" d="M33 0l477 1032h203l477 -1032h-158q-12 -18 -12 -47q0 -32 18.5 -50t48.5 -18q36 0 52 19l67 -66q-49 -43 -116 -43q-72 0 -117 44t-45 114q0 29 10 47l-96 205h-463l-94 -205h-252zM457 397h309l-156 351z" />
<glyph horiz-adv-x="1222" d="M33 0l477 1032h203l477 -1032h-252l-96 205h-463l-94 -205h-252zM457 397h309l-156 351zM469 1190q0 64 39 103.5t102 39.5q66 0 105 -39t39 -104q0 -63 -39 -101t-105 -38q-63 0 -102 38t-39 101zM551 1190q0 -26 16.5 -41.5t42.5 -15.5q29 0 46.5 15.5t17.5 41.5 q0 27 -18 43t-46 16q-27 0 -43 -16t-16 -43z" />
<glyph horiz-adv-x="1222" d="M33 0l477 1032h203l477 -1032h-252l-96 205h-463l-94 -205h-252zM369 1102q0 71 44.5 116.5t112.5 45.5q41 0 71 -15.5t52 -31t45 -15.5q22 0 38 15.5t16 39.5h106q0 -73 -45 -118t-115 -45q-32 0 -58 9.5t-39 21t-31.5 21t-37.5 9.5q-24 0 -38.5 -14.5t-14.5 -38.5h-106 zM457 397h309l-156 351z" />
<glyph horiz-adv-x="1245" d="M33 0l477 1032h664v-176h-347v-252h301v-178h-301v-250h355v-176h-572v205h-231l-94 -205h-252zM457 397h153v359z" />
<glyph horiz-adv-x="1245" d="M33 0l477 1032h664v-176h-347v-252h301v-178h-301v-250h355v-176h-572v205h-231l-94 -205h-252zM457 397h153v359zM535 1165l227 221l102 -102l-227 -221z" />
<glyph horiz-adv-x="901" d="M92 0v1032h352q141 0 226.5 -74.5t85.5 -201.5q0 -126 -92 -205q70 -37 109.5 -103.5t39.5 -150.5q0 -136 -93 -216.5t-245 -80.5h-383zM317 184h148q59 0 95 35.5t36 93.5t-36 93.5t-95 35.5h-148v-258zM317 627h111q51 0 82 30t31 80q0 51 -31 81t-82 30h-111v-221z " />
<glyph horiz-adv-x="1099" d="M80 516q0 236 154 383.5t401 147.5t399 -146l-137 -137q-93 90 -250 90q-152 0 -247 -93.5t-95 -244.5t95 -244.5t247 -93.5q156 0 250 88l137 -135q-151 -145 -399 -145q-247 0 -401 147t-154 383z" />
<glyph horiz-adv-x="1099" d="M80 516q0 236 154 383.5t401 147.5t399 -146l-137 -137q-93 90 -250 90q-152 0 -247 -93.5t-95 -244.5t95 -244.5t247 -93.5q156 0 250 88l137 -135q-151 -145 -399 -145q-247 0 -401 147t-154 383zM465 1163l229 223l103 -102l-228 -221z" />
<glyph horiz-adv-x="1099" d="M80 516q0 236 154 383.5t401 147.5t399 -146l-137 -137q-93 90 -250 90q-152 0 -247 -93.5t-95 -244.5t95 -244.5t247 -93.5q156 0 250 88l137 -135q-151 -145 -399 -145q-247 0 -401 147t-154 383zM371 1284l102 102l123 -118l127 118l102 -102l-229 -221z" />
<glyph horiz-adv-x="1099" d="M80 516q0 236 154 383.5t401 147.5t399 -146l-137 -137q-93 90 -250 90q-152 0 -247 -93.5t-95 -244.5t95 -244.5t247 -93.5q156 0 250 88l137 -135q-140 -134 -362 -143v-62q104 -25 104 -127q0 -60 -39 -97.5t-102 -37.5q-65 0 -109 41l60 59q25 -18 49 -18 q27 0 44 15.5t17 41.5q0 60 -102 60v125q-231 12 -372.5 156.5t-141.5 371.5z" />
<glyph horiz-adv-x="1099" d="M80 516q0 236 154 383.5t401 147.5t399 -146l-137 -137q-93 90 -250 90q-152 0 -247 -93.5t-95 -244.5t95 -244.5t247 -93.5q156 0 250 88l137 -135q-151 -145 -399 -145q-247 0 -401 147t-154 383zM377 1165l227 221l227 -221l-102 -102l-125 121l-125 -121z" />
<glyph horiz-adv-x="1099" d="M80 516q0 236 154 383.5t401 147.5t399 -146l-137 -137q-93 90 -250 90q-152 0 -247 -93.5t-95 -244.5t95 -244.5t247 -93.5q156 0 250 88l137 -135q-151 -145 -399 -145q-247 0 -401 147t-154 383zM485 1202q0 51 34 85t85 34q50 0 84.5 -34t34.5 -85q0 -49 -34.5 -83 t-84.5 -34q-51 0 -85 33.5t-34 83.5z" />
<glyph horiz-adv-x="1118" d="M92 0v1032h391q249 0 401 -140.5t152 -375.5t-152 -375.5t-401 -140.5h-391zM317 184h166q146 0 238 91t92 241t-92 241t-238 91h-166v-664z" />
<glyph horiz-adv-x="1118" d="M92 0v1032h391q249 0 401 -140.5t152 -375.5t-152 -375.5t-401 -140.5h-391zM315 1284l103 102l125 -118l125 118l102 -102l-227 -221zM317 184h166q146 0 238 91t92 241t-92 241t-238 91h-166v-664z" />
<glyph horiz-adv-x="1116" d="M63 436v160h60v436h358q249 0 401 -140.5t152 -375.5t-152 -375.5t-401 -140.5h-358v436h-60zM346 184h135q146 0 237 91t91 241t-91 241t-237 91h-135v-252h197v-160h-197v-252z" />
<glyph horiz-adv-x="1116" d="M63 436v160h60v436h358q249 0 401 -140.5t152 -375.5t-152 -375.5t-401 -140.5h-358v436h-60zM346 184h135q146 0 237 91t91 241t-91 241t-237 91h-135v-252h197v-160h-197v-252z" />
<glyph horiz-adv-x="862" d="M92 0v1032h225v-186h109q161 0 258.5 -86t97.5 -230q0 -142 -98 -227.5t-258 -85.5h-109v-217h-225zM317 401h109q59 0 96 35.5t37 93.5t-37 95t-96 37h-109v-261z" />
<glyph horiz-adv-x="765" d="M92 0v1032h594v-176h-377v-252h332v-178h-332v-250h385v-176h-602z" />
<glyph horiz-adv-x="765" d="M92 0v1032h594v-176h-377v-252h332v-178h-332v-250h385v-176h-602zM256 1165l225 221l103 -102l-228 -221z" />
<glyph horiz-adv-x="765" d="M92 0v1032h594v-176h-377v-252h332v-178h-332v-250h385v-176h-602zM143 1178l101 100q48 -51 143 -51q96 0 148 49l100 -100q-99 -99 -248 -99q-146 0 -244 101z" />
<glyph horiz-adv-x="765" d="M92 0v1032h594v-176h-377v-252h332v-178h-332v-250h385v-176h-602zM162 1284l102 102l123 -118l127 118l102 -102l-229 -221z" />
<glyph horiz-adv-x="765" d="M92 0v1032h594v-176h-377v-252h332v-178h-332v-250h385v-176h-602zM162 1165l225 221l229 -221l-102 -102l-127 121l-123 -121z" />
<glyph horiz-adv-x="765" d="M92 0v1032h594v-176h-377v-252h332v-178h-332v-250h385v-176h-602zM127 1180q0 46 32.5 78t78.5 32t78 -32t32 -78t-32 -78.5t-78 -32.5t-78.5 32.5t-32.5 78.5zM428 1180q0 47 32 79.5t79 32.5t79.5 -32.5t32.5 -79.5q0 -46 -32.5 -78.5t-79.5 -32.5t-79 32.5t-32 78.5z " />
<glyph horiz-adv-x="765" d="M92 0v1032h594v-176h-377v-252h332v-178h-332v-250h385v-176h-602zM270 1202q0 51 33.5 85t83.5 34q52 0 86.5 -34t34.5 -85q0 -50 -34.5 -83.5t-86.5 -33.5q-49 0 -83 33.5t-34 83.5z" />
<glyph horiz-adv-x="765" d="M92 0v1032h594v-176h-377v-252h332v-178h-332v-250h385v-176h-602zM195 1284l100 102l227 -221l-102 -102z" />
<glyph horiz-adv-x="765" d="M92 0v1032h594v-176h-377v-252h332v-178h-332v-250h385v-176h-602zM178 1110v119h420v-119h-420z" />
<glyph horiz-adv-x="765" d="M92 0v1032h594v-176h-377v-252h332v-178h-332v-250h385v-176h-149q-13 -20 -13 -47q0 -32 19 -50t49 -18q35 0 51 19l68 -66q-46 -43 -117 -43q-72 0 -117 44t-45 114q0 28 11 47h-359z" />
<glyph horiz-adv-x="735" d="M92 0v1032h580v-176h-363v-252h318v-178h-318v-426h-217z" />
<glyph horiz-adv-x="1128" d="M80 516q0 236 154 383.5t401 147.5t399 -146l-137 -137q-93 90 -250 90q-152 0 -247 -93.5t-95 -244.5t95 -244.5t247 -93.5q99 0 170 29v199h-182v176h399v-451q-151 -145 -399 -145q-247 0 -401 147t-154 383z" />
<glyph horiz-adv-x="1128" d="M80 516q0 236 154 383.5t401 147.5t399 -146l-137 -137q-93 90 -250 90q-152 0 -247 -93.5t-95 -244.5t95 -244.5t247 -93.5q99 0 170 29v199h-182v176h399v-451q-151 -145 -399 -145q-247 0 -401 147t-154 383zM385 1178l102 100q48 -51 144 -51t145 49l101 -100 q-99 -99 -246 -99q-145 0 -246 101z" />
<glyph horiz-adv-x="1128" d="M80 516q0 236 154 383.5t401 147.5t399 -146l-137 -137q-93 90 -250 90q-152 0 -247 -93.5t-95 -244.5t95 -244.5t247 -93.5q99 0 170 29v199h-182v176h399v-451q-151 -145 -399 -145q-247 0 -401 147t-154 383zM406 1165l227 221l227 -221l-102 -102l-125 121l-125 -121 z" />
<glyph horiz-adv-x="1128" d="M80 516q0 236 154 383.5t401 147.5t399 -146l-137 -137q-93 90 -250 90q-152 0 -247 -93.5t-95 -244.5t95 -244.5t247 -93.5q99 0 170 29v199h-182v176h399v-451q-151 -145 -399 -145q-247 0 -401 147t-154 383zM516 -152q0 40 26.5 67.5t67.5 27.5q37 0 66 -24t29 -79 q0 -61 -38 -118t-100 -119l-51 51q58 62 72 106q-32 6 -52 31.5t-20 56.5z" />
<glyph horiz-adv-x="1128" d="M80 516q0 236 154 383.5t401 147.5t399 -146l-137 -137q-93 90 -250 90q-152 0 -247 -93.5t-95 -244.5t95 -244.5t247 -93.5q99 0 170 29v199h-182v176h399v-451q-151 -145 -399 -145q-247 0 -401 147t-154 383zM512 1202q0 51 34.5 85t84.5 34q51 0 86 -34t35 -85 q0 -49 -35 -83t-86 -34q-50 0 -84.5 34t-34.5 83z" />
<glyph horiz-adv-x="1083" d="M92 0v1032h217v-428h465v428h215v-1032h-215v426h-465v-426h-217z" />
<glyph horiz-adv-x="1114" d="M63 733v160h76v139h217v-139h385v139h217v-139h93v-160h-93v-733h-217v426h-385v-426h-217v733h-76zM356 604h385v129h-385v-129z" />
<glyph horiz-adv-x="1083" d="M92 0v1032h217v-428h465v428h215v-1032h-215v426h-465v-426h-217zM313 1165l230 221l225 -221l-102 -102l-123 121l-127 -121z" />
<glyph horiz-adv-x="403" d="M92 0v1032h217v-1032h-217z" />
<glyph horiz-adv-x="403" d="M68 1165l229 221l100 -102l-227 -221zM92 0v1032h217v-1032h-217z" />
<glyph horiz-adv-x="405" d="M-43 1178l100 100q51 -51 146 -51q96 0 145 49l101 -100q-99 -99 -246 -99q-145 0 -246 101zM94 0v1032h217v-1032h-217z" />
<glyph horiz-adv-x="403" d="M-27 1165l230 221l227 -221l-102 -102l-125 121l-127 -121zM92 0v1032h217v-1032h-217z" />
<glyph horiz-adv-x="405" d="M-45 1180q0 46 33 78t80 32q46 0 78 -32t32 -78t-32 -78.5t-78 -32.5q-47 0 -80 32.5t-33 78.5zM94 0v1032h215v-1032h-215zM227 1180q0 47 32.5 79.5t78.5 32.5q47 0 80 -32.5t33 -79.5q0 -46 -33 -78.5t-80 -32.5q-46 0 -78.5 32.5t-32.5 78.5z" />
<glyph horiz-adv-x="405" d="M82 1202q0 51 34.5 85t84.5 34q51 0 86 -34t35 -85q0 -49 -35 -83t-86 -34q-50 0 -84.5 34t-34.5 83zM94 0v1032h215v-1032h-215z" />
<glyph horiz-adv-x="403" d="M6 1284l103 102l227 -221l-100 -102zM92 0v1032h217v-1032h-217z" />
<glyph horiz-adv-x="405" d="M-6 1110v119h420v-119h-420zM94 0v1032h217v-1032h-217z" />
<glyph horiz-adv-x="403" d="M82 -47q0 24 10 47v1032h217v-1032h-123q-12 -24 -12 -47q0 -32 19.5 -50t50.5 -18q32 0 51 19l65 -66q-46 -43 -114 -43q-72 0 -118 44t-46 114z" />
<glyph horiz-adv-x="403" d="M-39 1102q0 72 44.5 117t113.5 45q40 0 69.5 -15.5t52 -31t46.5 -15.5q22 0 36.5 15.5t14.5 39.5h106q0 -73 -44 -118t-113 -45q-32 0 -58 9.5t-40 21t-32.5 21t-37.5 9.5q-22 0 -36.5 -14.5t-14.5 -38.5h-107zM92 0v1032h217v-1032h-217z" />
<glyph horiz-adv-x="790" d="M92 369v663h217v-663h-217zM125 72l139 137q36 -31 92 -31t90.5 33t34.5 88v733h217v-733q0 -140 -92.5 -226.5t-238.5 -86.5q-71 0 -135 23t-107 63z" />
<glyph horiz-adv-x="729" d="M63 72l140 137q36 -31 92 -31t90.5 33t34.5 88v733h217v-733q0 -140 -93.5 -226.5t-240.5 -86.5q-144 0 -240 86z" />
<glyph horiz-adv-x="727" d="M63 72l140 137q36 -31 92 -31t90.5 33t34.5 88v733h217v-733q0 -140 -93.5 -226.5t-240.5 -86.5q-144 0 -240 86zM299 1165l227 221l228 -221l-103 -102l-125 121l-125 -121z" />
<glyph horiz-adv-x="1011" d="M92 0v1032h217v-471l359 471h272l-381 -500l420 -532h-281l-389 504v-504h-217z" />
<glyph horiz-adv-x="1011" d="M92 0v1032h217v-471l359 471h272l-381 -500l420 -532h-281l-389 504v-504h-217zM410 -152q0 40 27.5 67.5t68.5 27.5q36 0 65 -24t29 -79q0 -62 -37.5 -118.5t-99.5 -118.5l-51 51q54 57 69 106q-32 6 -51.5 31t-19.5 57z" />
<glyph horiz-adv-x="745" d="M92 0v1032h217v-856h373v-176h-590z" />
<glyph horiz-adv-x="745" d="M92 0v1032h217v-856h373v-176h-590zM207 1165l229 221l103 -102l-230 -221z" />
<glyph horiz-adv-x="745" d="M-27 1284l103 102l127 -118l125 118l100 -102l-225 -221zM92 0v1032h217v-856h373v-176h-590z" />
<glyph horiz-adv-x="745" d="M92 0v1032h217v-856h373v-176h-590zM291 -152q0 40 28 67.5t68 27.5q37 0 66.5 -24t29.5 -79q0 -62 -39 -119.5t-102 -117.5l-49 51q53 53 72 106q-32 6 -53 31.5t-21 56.5z" />
<glyph horiz-adv-x="747" d="M92 0v1032h217v-856h373v-176h-590zM438 479q0 49 35 84t84 35q51 0 86 -34.5t35 -84.5q0 -51 -35 -85t-86 -34q-50 0 -84.5 34t-34.5 85z" />
<glyph horiz-adv-x="841" d="M18 307l170 166v559h218v-391l106 102l104 -102l-210 -203v-262h372v-176h-590v268l-67 -61z" />
<glyph horiz-adv-x="1251" d="M92 0v1032h162l371 -512l372 512h162v-1032h-217v592l-280 -391h-72l-281 391v-592h-217z" />
<glyph horiz-adv-x="1122" d="M92 0v1032h137l582 -614v614h217v-1032h-135l-584 614v-614h-217z" />
<glyph horiz-adv-x="1122" d="M92 0v1032h137l582 -614v614h217v-1032h-135l-584 614v-614h-217zM426 1165l227 221l103 -102l-228 -221z" />
<glyph horiz-adv-x="1122" d="M92 0v1032h137l582 -614v614h217v-1032h-135l-584 614v-614h-217zM332 1284l104 102l123 -118l127 118l102 -102l-229 -221z" />
<glyph horiz-adv-x="1122" d="M92 0v1032h137l582 -614v614h217v-1032h-135l-584 614v-614h-217zM465 -152q0 40 27 67.5t67 27.5q37 0 66.5 -24t29.5 -79q0 -43 -24 -90t-49.5 -77t-65.5 -70l-51 51q56 56 74 106q-32 6 -53 31.5t-21 56.5z" />
<glyph horiz-adv-x="1122" d="M92 0v1032h137l582 -614v614h217v-1032h-135l-584 614v-614h-217zM317 1102q0 71 45 116.5t113 45.5q41 0 71 -15.5t52 -31t45 -15.5t37 15t14 40h109q0 -73 -45 -118t-115 -45q-40 0 -69 15t-51 30.5t-46 15.5t-38.5 -14.5t-14.5 -38.5h-107z" />
<glyph horiz-adv-x="1122" d="M92 0v1032h137l582 -614v614h217v-1210q0 -89 -54 -144t-151 -55q-49 0 -73 8v136q28 0 44.5 16.5t16.5 44.5v266l-502 520v-614h-217z" />
<glyph horiz-adv-x="1269" d="M80 516q0 236 154 383.5t401 147.5t400 -147t153 -384q0 -236 -153 -383t-400 -147t-401 147t-154 383zM305 516q0 -151 92 -244.5t238 -93.5q145 0 237.5 94t92.5 244t-92.5 244t-237.5 94q-146 0 -238 -93.5t-92 -244.5z" />
<glyph horiz-adv-x="1269" d="M80 516q0 236 154 383.5t401 147.5t400 -147t153 -384q0 -236 -153 -383t-400 -147t-401 147t-154 383zM305 516q0 -151 92 -244.5t238 -93.5q145 0 237.5 94t92.5 244t-92.5 244t-237.5 94q-146 0 -238 -93.5t-92 -244.5zM500 1165l229 221l100 -102l-227 -221z" />
<glyph horiz-adv-x="1269" d="M80 516q0 236 154 383.5t401 147.5t400 -147t153 -384q0 -236 -153 -383t-400 -147t-401 147t-154 383zM305 516q0 -151 92 -244.5t238 -93.5q145 0 237.5 94t92.5 244t-92.5 244t-237.5 94q-146 0 -238 -93.5t-92 -244.5zM389 1178l100 100q51 -51 146 -51q94 0 143 49 l103 -100q-99 -99 -246 -99q-148 0 -246 101z" />
<glyph horiz-adv-x="1269" d="M80 516q0 236 154 383.5t401 147.5t400 -147t153 -384q0 -236 -153 -383t-400 -147t-401 147t-154 383zM305 516q0 -151 92 -244.5t238 -93.5q145 0 237.5 94t92.5 244t-92.5 244t-237.5 94q-146 0 -238 -93.5t-92 -244.5zM406 1165l229 221l227 -221l-102 -102l-125 121 l-125 -121z" />
<glyph horiz-adv-x="1269" d="M80 516q0 236 154 383.5t401 147.5t400 -147t153 -384q0 -236 -153 -383t-400 -147t-401 147t-154 383zM305 516q0 -151 92 -244.5t238 -93.5q145 0 237.5 94t92.5 244t-92.5 244t-237.5 94q-146 0 -238 -93.5t-92 -244.5zM373 1180q0 46 32 78t78 32t79.5 -32.5 t33.5 -77.5q0 -46 -33.5 -78.5t-79.5 -32.5t-78 32.5t-32 78.5zM674 1180q0 47 32 79.5t78 32.5q47 0 80 -32.5t33 -79.5q0 -46 -33 -78.5t-80 -32.5q-46 0 -78 32.5t-32 78.5z" />
<glyph horiz-adv-x="1269" d="M80 516q0 236 154 383.5t401 147.5t400 -147t153 -384q0 -236 -153 -383t-400 -147t-401 147t-154 383zM305 516q0 -151 92 -244.5t238 -93.5q145 0 237.5 94t92.5 244t-92.5 244t-237.5 94q-146 0 -238 -93.5t-92 -244.5zM438 1284l103 102l227 -221l-100 -102z" />
<glyph horiz-adv-x="1269" d="M80 516q0 236 154 383.5t401 147.5t400 -147t153 -384q0 -236 -153 -383t-400 -147t-401 147t-154 383zM305 516q0 -151 92 -244.5t238 -93.5q145 0 237.5 94t92.5 244t-92.5 244t-237.5 94q-146 0 -238 -93.5t-92 -244.5zM369 1165l227 221l102 -102l-227 -221z M633 1165l227 221l103 -102l-228 -221z" />
<glyph horiz-adv-x="1269" d="M80 516q0 236 154 383.5t401 147.5t400 -147t153 -384q0 -236 -153 -383t-400 -147t-401 147t-154 383zM305 516q0 -151 92 -244.5t238 -93.5q145 0 237.5 94t92.5 244t-92.5 244t-237.5 94q-146 0 -238 -93.5t-92 -244.5zM426 1110v119h418v-119h-418z" />
<glyph horiz-adv-x="1267" d="M61 -14l150 170q-131 143 -131 360q0 236 154 383.5t401 147.5q165 0 293 -70l61 70h215l-147 -170q131 -140 131 -361q0 -236 -153 -383t-400 -147q-166 0 -295 69l-59 -69h-220zM305 516q0 -110 51 -192l435 495q-68 35 -156 35q-146 0 -238 -93.5t-92 -244.5zM477 213 q72 -35 158 -35q145 0 236.5 94t91.5 244q0 111 -54 193z" />
<glyph horiz-adv-x="1267" d="M61 -14l150 170q-131 143 -131 360q0 236 154 383.5t401 147.5q165 0 293 -70l61 70h215l-147 -170q131 -140 131 -361q0 -236 -153 -383t-400 -147q-166 0 -295 69l-59 -69h-220zM305 516q0 -110 51 -192l435 495q-68 35 -156 35q-146 0 -238 -93.5t-92 -244.5zM477 213 q72 -35 158 -35q145 0 236.5 94t91.5 244q0 111 -54 193zM500 1165l227 221l102 -102l-227 -221z" />
<glyph horiz-adv-x="1269" d="M80 516q0 236 154 383.5t401 147.5t400 -147t153 -384q0 -236 -153 -383t-400 -147t-401 147t-154 383zM305 516q0 -151 92 -244.5t238 -93.5q145 0 237.5 94t92.5 244t-92.5 244t-237.5 94q-146 0 -238 -93.5t-92 -244.5zM391 1102q0 72 45.5 117t114.5 45 q40 0 70 -15.5t52.5 -31t45.5 -15.5q22 0 36.5 15.5t14.5 39.5h107q0 -73 -44 -118t-114 -45q-32 0 -58 9.5t-40 21t-32.5 21t-37.5 9.5q-23 0 -37 -14t-14 -39h-109z" />
<glyph horiz-adv-x="1421" d="M80 516q0 236 154 383.5t401 147.5q57 0 145 -15h570v-176h-353v-252h308v-178h-308v-250h361v-176h-574q-86 -14 -149 -14q-247 0 -401 147t-154 383zM305 516q0 -151 92 -244.5t238 -93.5q76 0 145 29v618q-69 29 -145 29q-146 0 -238 -93.5t-92 -244.5z" />
<glyph horiz-adv-x="862" d="M92 0v1032h334q161 0 258.5 -85t97.5 -230q0 -142 -98 -228t-258 -86h-109v-403h-225zM317 590h109q59 0 96 35t37 92q0 59 -37 95t-96 36h-109v-258z" />
<glyph horiz-adv-x="1269" d="M80 516q0 236 154 383.5t401 147.5t400 -147t153 -384q0 -174 -94 -311l106 -99l-137 -135l-105 99q-134 -84 -323 -84q-247 0 -401 147t-154 383zM305 516q0 -151 92 -244.5t238 -93.5q121 0 182 31l-139 133l135 135l119 -112q33 78 33 151q0 151 -92 244.5t-238 93.5 t-238 -93.5t-92 -244.5z" />
<glyph horiz-adv-x="894" d="M92 0v1032h350q161 0 259 -85t98 -230q0 -99 -49 -172.5t-138 -110.5l244 -434h-246l-207 403h-86v-403h-225zM317 590h125q59 0 95 35t36 92q0 60 -36 95.5t-95 35.5h-125v-258z" />
<glyph horiz-adv-x="894" d="M92 0v1032h350q161 0 259 -85t98 -230q0 -99 -49 -172.5t-138 -110.5l244 -434h-246l-207 403h-86v-403h-225zM297 1165l227 221l103 -102l-228 -221zM317 590h125q59 0 95 35t36 92q0 60 -36 95.5t-95 35.5h-125v-258z" />
<glyph horiz-adv-x="894" d="M92 0v1032h350q161 0 259 -85t98 -230q0 -99 -49 -172.5t-138 -110.5l244 -434h-246l-207 403h-86v-403h-225zM203 1284l104 102l123 -118l125 118l104 -102l-229 -221zM317 590h125q59 0 95 35t36 92q0 60 -36 95.5t-95 35.5h-125v-258z" />
<glyph horiz-adv-x="894" d="M92 0v1032h350q161 0 259 -85t98 -230q0 -99 -49 -172.5t-138 -110.5l244 -434h-246l-207 403h-86v-403h-225zM317 590h125q59 0 95 35t36 92q0 60 -36 95.5t-95 35.5h-125v-258zM350 -152q0 40 28 67.5t68 27.5q37 0 67 -24t30 -79q0 -103 -140 -237l-51 51 q53 53 72 106q-32 6 -53 31.5t-21 56.5z" />
<glyph horiz-adv-x="905" d="M72 145l133 136q114 -103 225 -103q71 0 112.5 37t41.5 82q0 33 -26.5 57.5t-68.5 41.5t-93 33.5t-102 40t-93 55.5t-68.5 86.5t-26.5 125.5q0 135 87.5 222.5t242.5 87.5q98 0 190 -38.5t162 -105.5l-135 -133q-36 34 -89 59t-105 25q-62 0 -95.5 -35t-33.5 -76 q0 -34 26.5 -59.5t69 -42.5t93.5 -34.5t102.5 -41.5t94 -56t69 -84.5t26.5 -121.5q0 -139 -96 -228t-262 -89q-216 0 -381 159z" />
<glyph horiz-adv-x="905" d="M72 145l133 136q114 -103 225 -103q71 0 112.5 37t41.5 82q0 33 -26.5 57.5t-68.5 41.5t-93 33.5t-102 40t-93 55.5t-68.5 86.5t-26.5 125.5q0 135 87.5 222.5t242.5 87.5q98 0 190 -38.5t162 -105.5l-135 -133q-36 34 -89 59t-105 25q-62 0 -95.5 -35t-33.5 -76 q0 -34 26.5 -59.5t69 -42.5t93.5 -34.5t102.5 -41.5t94 -56t69 -84.5t26.5 -121.5q0 -139 -96 -228t-262 -89q-216 0 -381 159zM305 1165l227 221l103 -102l-227 -221z" />
<glyph horiz-adv-x="905" d="M72 145l133 136q114 -103 225 -103q71 0 112.5 37t41.5 82q0 33 -26.5 57.5t-68.5 41.5t-93 33.5t-102 40t-93 55.5t-68.5 86.5t-26.5 125.5q0 135 87.5 222.5t242.5 87.5q98 0 190 -38.5t162 -105.5l-135 -133q-36 34 -89 59t-105 25q-62 0 -95.5 -35t-33.5 -76 q0 -34 26.5 -59.5t69 -42.5t93.5 -34.5t102.5 -41.5t94 -56t69 -84.5t26.5 -121.5q0 -139 -96 -228t-262 -89q-216 0 -381 159zM211 1284l102 102l125 -118l125 118l105 -102l-230 -221z" />
<glyph horiz-adv-x="905" d="M72 145l133 136q114 -103 225 -103q71 0 112.5 37t41.5 82q0 33 -26.5 57.5t-68.5 41.5t-93 33.5t-102 40t-93 55.5t-68.5 86.5t-26.5 125.5q0 135 87.5 222.5t242.5 87.5q98 0 190 -38.5t162 -105.5l-135 -133q-36 34 -89 59t-105 25q-62 0 -95.5 -35t-33.5 -76 q0 -34 26.5 -59.5t69 -42.5t93.5 -34.5t102.5 -41.5t94 -56t69 -84.5t26.5 -121.5q0 -131 -85 -218.5t-234 -96.5v-62q104 -25 104 -127q0 -60 -39.5 -97.5t-103.5 -37.5q-63 0 -107 41l60 59q22 -18 47 -18q28 0 44.5 15.5t16.5 41.5q0 27 -24.5 43.5t-75.5 16.5v125 q-197 15 -342 157z" />
<glyph horiz-adv-x="905" d="M72 145l133 136q114 -103 225 -103q71 0 112.5 37t41.5 82q0 33 -26.5 57.5t-68.5 41.5t-93 33.5t-102 40t-93 55.5t-68.5 86.5t-26.5 125.5q0 135 87.5 222.5t242.5 87.5q98 0 190 -38.5t162 -105.5l-135 -133q-36 34 -89 59t-105 25q-62 0 -95.5 -35t-33.5 -76 q0 -34 26.5 -59.5t69 -42.5t93.5 -34.5t102.5 -41.5t94 -56t69 -84.5t26.5 -121.5q0 -139 -96 -228t-262 -89q-216 0 -381 159zM211 1165l227 221l230 -221l-105 -102l-125 121l-125 -121z" />
<glyph horiz-adv-x="905" d="M72 145l133 136q114 -103 225 -103q71 0 112.5 37t41.5 82q0 33 -26.5 57.5t-68.5 41.5t-93 33.5t-102 40t-93 55.5t-68.5 86.5t-26.5 125.5q0 135 87.5 222.5t242.5 87.5q98 0 190 -38.5t162 -105.5l-135 -133q-36 34 -89 59t-105 25q-62 0 -95.5 -35t-33.5 -76 q0 -34 26.5 -59.5t69 -42.5t93.5 -34.5t102.5 -41.5t94 -56t69 -84.5t26.5 -121.5q0 -139 -96 -228t-262 -89q-216 0 -381 159zM358 -152q0 40 28.5 67.5t68.5 27.5q37 0 65.5 -24t28.5 -79q0 -104 -139 -237l-50 51q55 58 72 106q-32 6 -53 31.5t-21 56.5z" />
<glyph horiz-adv-x="894" d="M63 856v176h764v-176h-272v-856h-217v856h-275z" />
<glyph horiz-adv-x="894" d="M63 856v176h764v-176h-272v-229h197v-162h-197v-465h-217v465h-199v162h199v229h-275z" />
<glyph horiz-adv-x="1085" d="M78 987q0 207 127 336t332 129q206 0 333 -128.5t127 -336.5q0 -193 -151 -344l-453 -450h604v-193h-911v186l612 609q66 69 66 192q0 117 -63 189.5t-164 72.5q-100 0 -163 -72.5t-63 -189.5h-233z" />
<glyph horiz-adv-x="1085" d="M74 428h233q0 -109 65.5 -177.5t168.5 -68.5q104 0 169.5 68.5t65.5 177.5t-65.5 179.5t-169.5 70.5h-95v188h95q83 0 135.5 55t52.5 140t-52.5 137.5t-135.5 52.5q-82 0 -133.5 -52.5t-51.5 -137.5h-235q0 173 117 282t303 109q189 0 305.5 -108.5t116.5 -282.5 q0 -191 -148 -285q195 -110 195 -348q0 -199 -129.5 -322.5t-339.5 -123.5q-207 0 -337 124t-130 322z" />
<glyph horiz-adv-x="1085" d="M43 256v100l621 1078h225v-985h119v-193h-109v-256h-227v256h-629zM326 449h354v647z" />
<glyph horiz-adv-x="1085" d="M78 430h225q0 -109 65.5 -177.5t168.5 -68.5q101 0 164 72.5t63 189.5q0 128 -74 207.5t-192 79.5q-122 0 -197 -78l-164 56l82 723h668v-193h-469l-39 -332q58 25 133 25q218 0 351.5 -134.5t133.5 -353.5q0 -207 -126.5 -335.5t-333.5 -128.5q-205 0 -332 124t-127 324 z" />
<glyph horiz-adv-x="1085" d="M76 457q0 225 128.5 460t381.5 535l194 -111q-214 -247 -338 -473q49 19 105 19q205 0 334 -123.5t129 -327.5q0 -203 -129.5 -328.5t-339.5 -125.5q-209 0 -337 127t-128 348zM311 438q0 -113 65 -184.5t167 -71.5t166.5 71t64.5 185t-64.5 185t-166.5 71t-167 -71.5 t-65 -184.5z" />
<glyph horiz-adv-x="1085" d="M86 1241v193h913v-66l-481 -1368h-242l431 1241h-621z" />
<glyph horiz-adv-x="1085" d="M74 428q0 240 192 348q-145 92 -145 285q0 173 117.5 282t304.5 109t304.5 -109t117.5 -282q0 -192 -150 -285q197 -109 197 -348q0 -198 -130 -322t-339 -124t-339 124t-130 322zM307 428q0 -109 66 -177.5t170 -68.5t169.5 68.5t65.5 177.5t-65.5 177.5t-169.5 68.5 t-170 -68.5t-66 -177.5zM356 1061q0 -84 52.5 -137.5t134.5 -53.5t134 53t52 138q0 84 -52 137t-134 53t-134.5 -53t-52.5 -137z" />
<glyph horiz-adv-x="1085" d="M80 997q0 203 128 329t337 126q207 0 334 -127t127 -348q0 -118 -35.5 -238.5t-106.5 -247t-157.5 -245.5t-208.5 -264l-195 110q215 245 338 473q-47 -18 -102 -18q-204 0 -331.5 123t-127.5 327zM313 995q0 -114 64 -185t166 -71q101 0 165 71t64 185t-64 185t-165 71 q-102 0 -166 -71t-64 -185z" />
<glyph d="M96 1317q0 57 39 96t96 39t96.5 -39t39.5 -96t-39.5 -96t-96.5 -39t-96 39t-39 96zM119 0v1016h225v-1016h-225z" />
<glyph horiz-adv-x="1034" d="M92 385v647h217v-647q0 -92 57 -149.5t148 -57.5q92 0 150.5 57.5t58.5 149.5v647h217v-647q0 -178 -118.5 -288.5t-307.5 -110.5t-305.5 110t-116.5 289zM250 1165l227 221l103 -102l-230 -221zM514 1165l227 221l103 -102l-228 -221z" />
<glyph horiz-adv-x="1034" d="M92 385v647h217v-647q0 -92 57 -149.5t148 -57.5q92 0 150.5 57.5t58.5 149.5v647h217v-647q0 -178 -118.5 -288.5t-307.5 -110.5t-305.5 110t-116.5 289zM305 1110v119h420v-119h-420z" />
<glyph horiz-adv-x="1034" d="M92 385v647h217v-647q0 -92 57 -149.5t148 -57.5q92 0 150.5 57.5t58.5 149.5v647h217v-647q0 -146 -81.5 -248.5t-219.5 -136.5h2q-12 -18 -12 -47q0 -32 19 -50t50 -18q33 0 52 19l63 -66q-43 -43 -113 -43q-72 0 -117.5 44t-45.5 114q0 25 4 33h-27q-189 0 -305.5 110 t-116.5 289z" />
<glyph horiz-adv-x="1034" d="M92 385v647h217v-647q0 -92 57 -149.5t148 -57.5q92 0 150.5 57.5t58.5 149.5v647h217v-647q0 -178 -118.5 -288.5t-307.5 -110.5t-305.5 110t-116.5 289zM373 1190q0 64 39.5 103.5t103.5 39.5t103.5 -39.5t39.5 -103.5q0 -63 -39 -101t-104 -38t-104 38t-39 101z M455 1190q0 -26 16.5 -41.5t44.5 -15.5t45 15.5t17 41.5q0 27 -17.5 43t-44.5 16q-28 0 -44.5 -15.5t-16.5 -43.5z" />
<glyph horiz-adv-x="1034" d="M92 385v647h217v-647q0 -92 57 -149.5t148 -57.5q92 0 150.5 57.5t58.5 149.5v647h217v-647q0 -178 -118.5 -288.5t-307.5 -110.5t-305.5 110t-116.5 289zM274 1102q0 72 44 117t112 45q41 0 71 -15.5t52.5 -31t46.5 -15.5q22 0 36.5 15.5t14.5 39.5h107q0 -73 -45 -118 t-113 -45q-33 0 -59 9.5t-39.5 21t-32 21t-37.5 9.5q-22 0 -36.5 -14.5t-14.5 -38.5h-107z" />
<glyph horiz-adv-x="1222" d="M33 1032h256l321 -743l324 743h256l-477 -1032h-203z" />
<glyph horiz-adv-x="1708" d="M33 1032h254l233 -688l221 688h226l221 -688l235 688h254l-381 -1032h-217l-225 649l-223 -649h-219z" />
<glyph horiz-adv-x="1708" d="M33 1032h254l233 -688l221 688h226l221 -688l235 688h254l-381 -1032h-217l-225 649l-223 -649h-219zM719 1165l229 221l101 -102l-228 -221z" />
<glyph horiz-adv-x="1708" d="M33 1032h254l233 -688l221 688h226l221 -688l235 688h254l-381 -1032h-217l-225 649l-223 -649h-219zM625 1165l229 221l227 -221l-104 -102l-123 121l-125 -121z" />
<glyph horiz-adv-x="1708" d="M33 1032h254l233 -688l221 688h226l221 -688l235 688h254l-381 -1032h-217l-225 649l-223 -649h-219zM590 1180q0 46 33 78t79 32t79.5 -32.5t33.5 -77.5q0 -46 -33.5 -78.5t-79.5 -32.5t-79 32.5t-33 78.5zM893 1180q0 47 32.5 79.5t78.5 32.5q47 0 79.5 -32.5 t32.5 -79.5q0 -46 -32.5 -78.5t-79.5 -32.5q-46 0 -78.5 32.5t-32.5 78.5z" />
<glyph horiz-adv-x="1708" d="M33 1032h254l233 -688l221 688h226l221 -688l235 688h254l-381 -1032h-217l-225 649l-223 -649h-219zM657 1284l103 102l227 -221l-100 -102z" />
<glyph horiz-adv-x="1183" d="M33 0l397 524l-383 508h281l264 -358l264 358h281l-385 -508l401 -524h-281l-280 379l-281 -379h-278z" />
<glyph horiz-adv-x="1093" d="M33 1032h250l264 -411l264 411h250l-406 -626v-406h-217v408z" />
<glyph horiz-adv-x="1093" d="M33 1032h250l264 -411l264 411h250l-406 -626v-406h-217v408zM412 1165l227 221l104 -102l-229 -221z" />
<glyph horiz-adv-x="1093" d="M33 1032h250l264 -411l264 411h250l-406 -626v-406h-217v408zM319 1165l228 221l227 -221l-102 -102l-125 121l-125 -121z" />
<glyph horiz-adv-x="1093" d="M33 1032h250l264 -411l264 411h250l-406 -626v-406h-217v408zM285 1180q0 46 32 78t78 32t78.5 -32t32.5 -78t-32.5 -78.5t-78.5 -32.5t-78 32.5t-32 78.5zM584 1180q0 47 32.5 79.5t79.5 32.5t80 -32.5t33 -79.5q0 -46 -33 -78.5t-80 -32.5t-79.5 32.5t-32.5 78.5z" />
<glyph horiz-adv-x="1093" d="M33 1032h250l264 -411l264 411h250l-406 -626v-406h-217v408zM350 1284l103 102l229 -221l-104 -102z" />
<glyph horiz-adv-x="1003" d="M80 0v55l520 801h-512v176h836v-53l-521 -803h521v-176h-844z" />
<glyph horiz-adv-x="1003" d="M80 0v55l520 801h-512v176h836v-53l-521 -803h521v-176h-844zM367 1165l229 221l100 -102l-227 -221z" />
<glyph horiz-adv-x="1003" d="M80 0v55l520 801h-512v176h836v-53l-521 -803h521v-176h-844zM272 1284l105 102l125 -118l125 118l102 -102l-227 -221z" />
<glyph horiz-adv-x="1003" d="M80 0v55l520 801h-512v176h836v-53l-521 -803h521v-176h-844zM383 1202q0 51 34 85t85 34q50 0 85.5 -34.5t35.5 -84.5q0 -49 -35.5 -83t-85.5 -34q-51 0 -85 33.5t-34 83.5z" />
<glyph horiz-adv-x="1161" d="M80 516v80h768q-25 118 -114.5 188t-219.5 70q-159 0 -252 -90l-137 137q156 146 399 146q249 0 402 -147t153 -384t-137.5 -383.5t-361.5 -146.5q-222 0 -361 147t-139 383zM315 420q22 -111 93 -176.5t172 -65.5t171.5 65.5t92.5 176.5h-529z" />
<glyph horiz-adv-x="1222" d="M33 0l477 1032h203l477 -1032h-252l-96 205h-463l-94 -205h-252zM457 397h309l-156 351z" />
<glyph horiz-adv-x="878" d="M92 0v1032h615v-176h-390v-227h125q160 0 257.5 -86t97.5 -230t-97 -228.5t-258 -84.5h-350zM317 184h125q58 0 93.5 35t35.5 94t-35.5 94t-93.5 35h-125v-258z" />
<glyph horiz-adv-x="901" d="M92 0v1032h352q141 0 226.5 -74.5t85.5 -201.5q0 -126 -92 -205q70 -37 109.5 -103.5t39.5 -150.5q0 -136 -93 -216.5t-245 -80.5h-383zM317 184h148q59 0 95 35.5t36 93.5t-36 93.5t-95 35.5h-148v-258zM317 627h111q51 0 82 30t31 80q0 51 -31 81t-82 30h-111v-221z " />
<glyph horiz-adv-x="745" d="M92 0v1032h590v-176h-373v-856h-217z" />
<glyph horiz-adv-x="1103" d="M49 168q77 0 122.5 62t45.5 167v635h721v-856h117v-397h-201v221h-604v-221h-201v389zM369 176h344v680h-271v-459q0 -137 -73 -221z" />
<glyph horiz-adv-x="765" d="M92 0v1032h594v-176h-377v-252h332v-178h-332v-250h385v-176h-602z" />
<glyph horiz-adv-x="765" d="M92 0v1032h594v-176h-377v-252h332v-178h-332v-250h385v-176h-602zM127 1180q0 46 32.5 78t78.5 32t78 -32t32 -78t-32 -78.5t-78 -32.5t-78.5 32.5t-32.5 78.5zM428 1180q0 47 32 79.5t79 32.5t79.5 -32.5t32.5 -79.5q0 -46 -32.5 -78.5t-79.5 -32.5t-79 32.5t-32 78.5z " />
<glyph horiz-adv-x="1513" d="M33 0l389 532l-359 500h250l336 -469v469h217v-467l334 467h250l-358 -500l389 -532h-256l-359 498v-498h-217v500l-360 -500h-256z" />
<glyph horiz-adv-x="901" d="M63 131l136 135q47 -45 106.5 -69.5t118.5 -24.5q80 0 126 39.5t46 103.5q0 57 -36 92t-95 35h-152v185h113q57 0 93 29.5t36 80.5q0 59 -39.5 91t-103.5 32q-52 0 -106 -23t-95 -63l-131 127q149 146 350 146q160 0 251 -81.5t91 -207.5q0 -128 -110 -207 q71 -37 111 -103t40 -151q0 -143 -102 -227t-269 -84q-228 0 -379 145z" />
<glyph horiz-adv-x="1097" d="M92 0v1032h217v-614l559 614h138v-1032h-218v614l-559 -614h-137z" />
<glyph horiz-adv-x="1097" d="M92 0v1032h217v-614l559 614h138v-1032h-218v614l-559 -614h-137zM303 1178l100 100q51 -51 146 -51q93 0 145 49l101 -100q-99 -99 -246 -99q-148 0 -246 101z" />
<glyph horiz-adv-x="1011" d="M92 0v1032h217v-471l359 471h272l-381 -500l420 -532h-281l-389 504v-504h-217z" />
<glyph horiz-adv-x="1046" d="M61 0v135q77 0 124.5 46t47.5 122v729h721v-1032h-227v856h-270v-547q0 -141 -77.5 -229t-213.5 -88q-72 0 -105 8z" />
<glyph horiz-adv-x="1251" d="M92 0v1032h162l371 -512l372 512h162v-1032h-217v592l-280 -391h-72l-281 391v-592h-217z" />
<glyph horiz-adv-x="1083" d="M92 0v1032h217v-428h465v428h215v-1032h-215v426h-465v-426h-217z" />
<glyph horiz-adv-x="1269" d="M80 516q0 236 154 383.5t401 147.5t400 -147t153 -384q0 -236 -153 -383t-400 -147t-401 147t-154 383zM305 516q0 -151 92 -244.5t238 -93.5q145 0 237.5 94t92.5 244t-92.5 244t-237.5 94q-146 0 -238 -93.5t-92 -244.5z" />
<glyph horiz-adv-x="1019" d="M92 0v1032h836v-1032h-217v856h-402v-856h-217z" />
<glyph horiz-adv-x="862" d="M92 0v1032h334q161 0 258.5 -85t97.5 -230q0 -142 -98 -228t-258 -86h-109v-403h-225zM317 590h109q59 0 96 35t37 92q0 59 -37 95t-96 36h-109v-258z" />
<glyph horiz-adv-x="1099" d="M80 516q0 236 154 383.5t401 147.5t399 -146l-137 -137q-93 90 -250 90q-152 0 -247 -93.5t-95 -244.5t95 -244.5t247 -93.5q156 0 250 88l137 -135q-151 -145 -399 -145q-247 0 -401 147t-154 383z" />
<glyph horiz-adv-x="894" d="M63 856v176h764v-176h-272v-856h-217v856h-275z" />
<glyph horiz-adv-x="974" d="M25 1032h233l231 -452l230 452h231l-520 -1032h-233l190 324z" />
<glyph horiz-adv-x="1304" d="M80 516q0 187 129 303.5t336 116.5v96h215v-96q209 0 336 -116t127 -304t-127 -304t-336 -116v-96h-215v96q-207 0 -336 116.5t-129 303.5zM305 516q0 -101 67 -164t173 -63v454q-106 0 -173 -63t-67 -164zM760 289q107 0 172 62.5t65 164.5t-65 164.5t-172 62.5v-454z " />
<glyph horiz-adv-x="1183" d="M33 0l397 524l-383 508h281l264 -358l264 358h281l-385 -508l401 -524h-281l-280 379l-281 -379h-278z" />
<glyph horiz-adv-x="1146" d="M92 0v1032h217v-856h463v856h217v-856h109v-397h-201v221h-805z" />
<glyph horiz-adv-x="921" d="M92 731v301h209v-293q0 -93 38 -132.5t120 -39.5q87 0 159 21v444h209v-1032h-209v422q-98 -23 -204 -23q-158 0 -240 86t-82 246z" />
<glyph horiz-adv-x="1531" d="M92 0v1032h217v-856h348v856h217v-856h349v856h215v-1032h-1346z" />
<glyph horiz-adv-x="1595" d="M92 0v1032h217v-856h348v856h217v-856h349v856h215v-856h108v-397h-200v221h-1254z" />
<glyph horiz-adv-x="1079" d="M63 856v176h455v-403h125q161 0 258.5 -86t97.5 -230t-97.5 -228.5t-258.5 -84.5h-350v856h-230zM518 184h125q59 0 95 35.5t36 93.5t-36 93.5t-95 35.5h-125v-258z" />
<glyph horiz-adv-x="1220" d="M92 0v1032h225v-403h125q161 0 259 -86t98 -230t-98 -228.5t-259 -84.5h-350zM317 184h125q59 0 95 35.5t36 93.5t-36 93.5t-95 35.5h-125v-258zM909 0v1032h217v-1032h-217z" />
<glyph horiz-adv-x="878" d="M92 0v1032h225v-403h125q161 0 259 -86t98 -230t-98 -228.5t-259 -84.5h-350zM317 184h125q59 0 95 35.5t36 93.5t-36 93.5t-95 35.5h-125v-258z" />
<glyph horiz-adv-x="1099" d="M63 131l138 135q94 -88 252 -88q129 0 217.5 67t113.5 181h-450v178h450q-25 114 -114 182t-217 68q-156 0 -252 -90l-138 137q156 146 400 146q249 0 402 -147t153 -384t-153 -383.5t-402 -146.5q-246 0 -400 145z" />
<glyph horiz-adv-x="1624" d="M92 0v1032h217v-428h205q26 201 165 322t347 121q230 0 374 -147.5t144 -383.5t-144 -383t-374 -147q-208 0 -347 120t-165 320h-205v-426h-217zM733 516q0 -150 82 -244t211 -94t210 93.5t81 244.5t-81 244.5t-210 93.5t-211 -94t-82 -244z" />
<glyph horiz-adv-x="892" d="M39 0l240 428q-94 36 -146.5 111t-52.5 178q0 145 97.5 230t258.5 85h365v-1032h-228v403h-90l-198 -403h-246zM305 717q0 -57 36 -92t95 -35h137v258h-137q-59 0 -95 -35.5t-36 -95.5z" />
<glyph horiz-adv-x="737" d="M92 0v1032h397v185h160v-361h-340v-856h-217z" />
<glyph horiz-adv-x="1081" d="M63 856v176h764v-176h-272v-270q75 57 178 57q122 0 193 -79.5t71 -211.5v-162q0 -90 -51.5 -144t-152.5 -54q-52 0 -76 8v135q28 0 45.5 17t17.5 45v155q0 46 -29.5 76.5t-76.5 30.5q-76 0 -119 -43v-416h-217v856h-275z" />
<glyph horiz-adv-x="745" d="M92 0v1032h590v-176h-373v-856h-217zM254 1165l227 221l101 -102l-226 -221z" />
<glyph horiz-adv-x="1099" d="M80 516q0 236 154 383.5t401 147.5t399 -146l-137 -137q-93 90 -250 90q-129 0 -219 -68t-115 -182h527v-178h-527q26 -115 115 -181.5t219 -66.5q156 0 250 88l137 -135q-151 -145 -399 -145q-247 0 -401 147t-154 383z" />
<glyph horiz-adv-x="905" d="M72 145l133 136q114 -103 225 -103q71 0 112.5 37t41.5 82q0 33 -26.5 57.5t-68.5 41.5t-93 33.5t-102 40t-93 55.5t-68.5 86.5t-26.5 125.5q0 135 87.5 222.5t242.5 87.5q98 0 190 -38.5t162 -105.5l-135 -133q-36 34 -89 59t-105 25q-62 0 -95.5 -35t-33.5 -76 q0 -34 26.5 -59.5t69 -42.5t93.5 -34.5t102.5 -41.5t94 -56t69 -84.5t26.5 -121.5q0 -139 -96 -228t-262 -89q-216 0 -381 159z" />
<glyph horiz-adv-x="403" d="M92 0v1032h217v-1032h-217z" />
<glyph horiz-adv-x="405" d="M-45 1180q0 46 33 78t80 32q46 0 78 -32t32 -78t-32 -78.5t-78 -32.5q-47 0 -80 32.5t-33 78.5zM94 0v1032h215v-1032h-215zM227 1180q0 47 32.5 79.5t78.5 32.5q47 0 80 -32.5t33 -79.5q0 -46 -33 -78.5t-80 -32.5q-46 0 -78.5 32.5t-32.5 78.5z" />
<glyph horiz-adv-x="729" d="M63 72l140 137q36 -31 92 -31t90.5 33t34.5 88v733h217v-733q0 -140 -93.5 -226.5t-240.5 -86.5q-144 0 -240 86z" />
<glyph horiz-adv-x="1499" d="M61 0v135q77 0 124.5 46t47.5 122v729h705v-403h125q161 0 258.5 -86t97.5 -230t-97.5 -228.5t-258.5 -84.5h-348v856h-258v-547q0 -141 -77.5 -229t-213.5 -88q-72 0 -105 8zM938 184h125q59 0 95 35.5t36 93.5t-36 93.5t-95 35.5h-125v-258z" />
<glyph horiz-adv-x="1499" d="M92 0v1032h217v-403h406v403h225v-403h125q160 0 257 -86t97 -230t-96.5 -228.5t-257.5 -84.5h-350v442h-406v-442h-217zM940 184h125q59 0 95 35.5t36 93.5t-36 93.5t-95 35.5h-125v-258z" />
<glyph horiz-adv-x="1081" d="M63 856v176h764v-176h-272v-270q75 57 178 57q122 0 193 -79.5t71 -211.5v-352h-217v352q0 46 -29.5 76.5t-76.5 30.5q-76 0 -119 -43v-416h-217v856h-275z" />
<glyph horiz-adv-x="1011" d="M92 0v1032h217v-471l359 471h272l-381 -500l420 -532h-281l-389 504v-504h-217zM371 1165l227 221l102 -102l-227 -221z" />
<glyph horiz-adv-x="974" d="M25 1032h233l231 -452l230 452h231l-520 -1032h-233l190 324zM244 1178l100 100q48 -51 143 -51q97 0 146 49l100 -100q-99 -99 -246 -99q-145 0 -243 101z" />
<glyph horiz-adv-x="1081" d="M92 0v1032h217v-856h463v856h217v-1032h-346v-221h-201v221h-350z" />
<glyph horiz-adv-x="1097" d="M92 0v1032h217v-614l559 614h138v-1032h-218v614l-559 -614h-137zM352 1284l105 102l225 -221l-102 -102z" />
<glyph horiz-adv-x="765" d="M92 0v1032h594v-176h-377v-252h332v-178h-332v-250h385v-176h-602zM195 1284l102 102l227 -221l-102 -102z" />
<glyph horiz-adv-x="1161" d="M80 516v80h768q-25 118 -114.5 188t-219.5 70q-159 0 -252 -90l-137 137q156 146 399 146q249 0 402 -147t153 -384t-137.5 -383.5t-361.5 -146.5q-222 0 -361 147t-139 383zM315 420q22 -111 93 -176.5t172 -65.5t171.5 65.5t92.5 176.5h-529z" />
<glyph horiz-adv-x="808" d="M-45 1180q0 46 33 78t80 32q46 0 78 -32t32 -78t-32 -78.5t-78 -32.5q-47 0 -80 32.5t-33 78.5zM94 0v1032h215v-1032h-215zM293 1180q0 47 33 79.5t80 32.5q46 0 78 -32.5t32 -79.5q0 -46 -32 -78.5t-78 -32.5q-47 0 -80 32.5t-33 78.5zM498 0v1032h217v-1032h-217z M631 1180q0 47 32 79.5t78 32.5q49 0 81 -32t32 -80q0 -46 -32 -78.5t-81 -32.5q-46 0 -78 32.5t-32 78.5z" />
<glyph horiz-adv-x="1247" d="M49 176h74l399 856h203l399 -856h74v-397h-201v221h-747v-221h-201v397zM375 176h497l-249 576z" />
<glyph horiz-adv-x="1222" d="M33 0l477 1032h203l477 -1032h-256l-324 743l-321 -743h-256z" />
<glyph horiz-adv-x="1626" d="M33 0l477 1032h203l188 -403h289q161 0 258.5 -86t97.5 -230t-97.5 -228.5t-258.5 -84.5h-256l-324 743l-321 -743h-256zM983 442l125 -258h82q59 0 95 35.5t36 93.5t-36 93.5t-95 35.5h-207z" />
<glyph horiz-adv-x="1222" d="M33 0l475 1030q-39 39 -39 105q0 47 21.5 80.5t60.5 48.5l-45 45l229 221l103 -100l-168 -164q40 -15 62 -49.5t22 -81.5q0 -67 -41 -105l477 -1030h-252l-96 205h-463l-94 -205h-252zM457 397h309l-156 351zM551 1133q0 -25 16.5 -41.5t42.5 -16.5q29 0 46.5 16.5 t17.5 41.5q0 27 -18 43t-46 16q-27 0 -43 -16t-16 -43z" />
<glyph horiz-adv-x="956" d="M92 0v727q0 143 93.5 231.5t244.5 88.5q152 0 245 -86t93 -226q0 -78 -38 -140.5t-107 -100.5q0 -28 20.5 -48.5t50.5 -31.5t65 -27.5t64.5 -35.5t49.5 -57t20 -91q0 -92 -69.5 -154.5t-186.5 -62.5q-155 0 -258 106l127 125q55 -59 115 -59q29 0 46 13.5t17 33.5 q0 22 -28 38t-67.5 31.5t-79 37t-67.5 66t-28 107.5v156q62 0 100.5 28.5t38.5 75.5q0 52 -34 85.5t-89 33.5q-53 0 -87 -38t-34 -99v-727h-217z" />
<glyph horiz-adv-x="1253" d="M72 516q0 237 154 384t403 147q245 0 399 -140t154 -350q0 -81 -25.5 -141.5t-67.5 -93t-87.5 -47.5t-94.5 -15q-104 0 -151 62q-62 -62 -156 -62q-106 0 -169.5 70t-63.5 186q0 115 77 185.5t203 70.5q168 0 242 -104v-205q0 -34 16.5 -51t38.5 -17q33 0 54.5 36 t21.5 106q0 170 -109.5 273t-281.5 103q-178 0 -288 -110.5t-110 -286.5t111 -286.5t291 -110.5q87 0 166.5 27t132.5 77l98 -96q-147 -141 -399 -141q-251 0 -405 146.5t-154 383.5zM526 516q0 -54 33.5 -87.5t87.5 -33.5q55 0 86 31v188q-33 23 -90 23q-51 0 -84 -33.5 t-33 -87.5z" />
<glyph horiz-adv-x="485" d="M78 516q0 267 98 435.5t246 168.5v-149q-51 0 -88 -129t-37 -326t37 -326t88 -129v-149q-148 0 -246 168.5t-98 435.5z" />
<glyph horiz-adv-x="485" d="M63 61q51 0 89 129t38 326t-38 326t-89 129v149q148 0 245.5 -168.5t97.5 -435.5t-97.5 -435.5t-245.5 -168.5v149z" />
<glyph horiz-adv-x="499" d="M92 -74v1180h346v-160h-137v-860h137v-160h-346z" />
<glyph horiz-adv-x="499" d="M63 -74v160h136v860h-136v160h345v-1180h-345z" />
<glyph horiz-adv-x="505" d="M63 436v152q32 0 57 45t25 112v103q0 120 84 196t213 76v-149q-32 0 -56 -43.5t-24 -108.5v-98q0 -70 -34 -124t-95 -85q129 -66 129 -209v-92q0 -64 24 -107t56 -43v-149q-129 0 -213 76t-84 196v95q0 68 -25 112.5t-57 44.5z" />
<glyph horiz-adv-x="505" d="M63 61q32 0 57 43t25 107v92q0 144 127 209q-61 31 -94 85t-33 124v98q0 65 -25 108.5t-57 43.5v149q129 0 214 -76t85 -196v-103q0 -67 24 -112t56 -45v-152q-32 0 -56 -44.5t-24 -112.5v-95q0 -120 -85 -196t-214 -76v149z" />
<glyph horiz-adv-x="397" d="M78 928q0 51 34.5 85t84.5 34q52 0 86 -34t34 -85q0 -50 -34 -83.5t-86 -33.5q-50 0 -84.5 34t-34.5 83zM92 0v717h209v-717h-209z" />
<glyph horiz-adv-x="782" d="M72 264q0 57 24 100t57.5 70t67.5 52.5t58 60.5t24 80v90h209v-90q0 -68 -23 -122t-56 -86.5t-65.5 -57.5t-55.5 -48.5t-23 -46.5q0 -35 33.5 -66.5t91.5 -31.5q91 0 178 65l133 -135q-146 -112 -317 -112q-149 0 -242.5 78.5t-93.5 199.5zM289 928q0 51 34.5 85t84.5 34 t85 -34t35 -85q0 -49 -35 -83t-85 -34t-84.5 34t-34.5 83z" />
<glyph horiz-adv-x="395" d="M92 -74v1180h209v-1180h-209z" />
<glyph horiz-adv-x="395" d="M92 -74v516h209v-516h-209zM92 590v516h209v-516h-209z" />
<glyph horiz-adv-x="808" d="M78 655v160h223v291h209v-291h221v-160h-221v-729h-209v729h-223z" />
<glyph horiz-adv-x="808" d="M78 213v160h223v282h-223v160h223v291h209v-291h221v-160h-221v-282h221v-160h-221v-287h-209v287h-223z" />
<glyph horiz-adv-x="901" d="M80 516q0 236 102.5 383.5t268.5 147.5q164 0 266 -147.5t102 -383.5t-102 -383t-266 -147q-166 0 -268.5 147t-102.5 383zM297 516q0 -153 43 -250.5t111 -97.5q67 0 109 97t42 251t-42 251t-109 97q-68 0 -111 -97.5t-43 -250.5z" />
<glyph horiz-adv-x="583" d="M66 827v160l376 53v-1040h-206v852z" />
<glyph horiz-adv-x="847" d="M63 707q0 152 98.5 246t258.5 94t258 -94t98 -246q0 -144 -114 -250l-300 -281h414v-176h-708v166l450 430q41 41 41 111q0 69 -38.5 112t-100.5 43t-100.5 -43t-38.5 -112h-218z" />
<glyph horiz-adv-x="870" d="M72 315h217q0 -64 41 -105.5t104 -41.5q66 0 107 41t41 106t-41.5 107.5t-106.5 42.5h-69v172h69q53 0 86 32.5t33 82.5t-32.5 81t-86.5 31q-51 0 -83 -31t-32 -81h-219q0 131 92.5 213t241.5 82q150 0 243 -82t93 -213q0 -123 -98 -199q127 -81 127 -238 q0 -146 -101 -237.5t-264 -91.5q-161 0 -261.5 91.5t-100.5 237.5z" />
<glyph horiz-adv-x="919" d="M63 172v86l467 774h209v-684h84v-176h-75v-172h-209v172h-476zM328 348h219v373z" />
<glyph horiz-adv-x="847" d="M63 322h209q0 -66 41 -109t107 -43q61 0 100 43.5t39 112.5q0 75 -47.5 123.5t-120.5 48.5q-78 0 -127 -49l-151 45l57 538h520v-176h-336l-20 -178q10 2 69 2q168 0 270.5 -97t102.5 -257q0 -152 -98 -246t-258 -94t-258.5 92.5t-98.5 243.5z" />
<glyph horiz-adv-x="854" d="M72 336q0 188 115 392t266 319l180 -103q-67 -59 -137 -143t-111 -158h45q157 0 254.5 -89.5t97.5 -238.5q0 -148 -97.5 -238.5t-258.5 -90.5t-257.5 92t-96.5 258zM289 317q0 -66 38.5 -107.5t100.5 -41.5q60 0 98.5 41.5t38.5 107.5t-38.5 108t-98.5 42q-61 0 -100 -42 t-39 -108z" />
<glyph horiz-adv-x="874" d="M80 856v176h715v-53l-346 -979h-224l295 856h-440z" />
<glyph horiz-adv-x="870" d="M72 315q0 158 125 238q-97 77 -97 199q0 131 92.5 213t241.5 82q150 0 243 -82t93 -213q0 -121 -98 -199q127 -81 127 -238q0 -146 -101 -237.5t-264 -91.5q-161 0 -261.5 91.5t-100.5 237.5zM289 315q0 -64 41 -105.5t104 -41.5q66 0 107 41t41 106t-41 105.5t-107 40.5 q-63 0 -104 -41t-41 -105zM317 752q0 -49 33 -80t84 -31q54 0 86.5 30.5t32.5 80.5t-32.5 81t-86.5 31q-51 0 -84 -31.5t-33 -80.5z" />
<glyph horiz-adv-x="854" d="M72 717q0 148 98 239t260 91q160 0 256 -92.5t96 -258.5q0 -187 -115.5 -390.5t-265.5 -319.5l-180 102q66 58 135 142t113 159h-45q-157 0 -254.5 89.5t-97.5 238.5zM289 715q0 -66 39 -108t100 -42q60 0 98.5 42t38.5 108t-38.5 107.5t-98.5 41.5q-62 0 -100.5 -41.5 t-38.5 -107.5z" />
<glyph horiz-adv-x="905" d="M72 145l133 136q95 -87 192 -101v248q-51 18 -83 31t-76.5 40t-69.5 56.5t-43.5 76.5t-18.5 105q0 125 77 210t214 97v136h113v-140q159 -24 278 -137l-135 -133q-61 57 -143 78v-240l60 -22.5t58 -24.5t58.5 -31.5t48 -39t41.5 -50t24.5 -61t10.5 -76.5 q0 -127 -80.5 -212.5t-220.5 -100.5v-137h-113v137q-181 15 -325 155zM330 743q0 -55 67 -88v187q-33 -14 -50 -42t-17 -57zM510 193q35 16 54.5 45.5t19.5 58.5q0 54 -74 88v-192z" />
<glyph horiz-adv-x="1167" d="M63 365v112h84v78h-84v113h103q45 173 188.5 276t347.5 103q246 0 402 -146l-137 -137q-96 90 -252 90q-108 0 -189 -49.5t-120 -136.5h313v-113h-342q-2 -12 -2 -39t2 -39h342v-112h-313q39 -87 120 -137t189 -50q158 0 252 88l137 -135q-154 -145 -402 -145 q-204 0 -347.5 102.5t-188.5 276.5h-103z" />
<glyph horiz-adv-x="845" d="M57 0q0 74 32.5 129.5t88.5 83.5v223h-112v160h112v137q0 140 92 227t238 87q148 0 240 -86l-138 -138q-36 31 -92 31t-90.5 -33t-34.5 -88v-137h240v-160h-240v-219q18 -8 49.5 -25t53.5 -25.5t43 -8.5q32 0 50.5 18.5t18.5 48.5h166q0 -107 -65.5 -173t-165.5 -66 q-53 0 -99.5 20.5t-84.5 41t-68 20.5q-31 0 -50.5 -18t-19.5 -50h-164z" />
<glyph horiz-adv-x="1093" d="M33 1032h250l264 -411l264 411h250l-406 -626v-7h181v-110h-181v-74h181v-109h-181v-106h-217v106h-182v109h182v74h-182v110h182v9z" />
<glyph horiz-adv-x="716" d="M63 373v110h123l78 74h-201v111h320l8 8q41 38 41 88q0 43 -32.5 70.5t-82.5 27.5q-72 0 -116 -47l-131 131q98 101 247 101q147 0 238.5 -76.5t91.5 -198.5q0 -51 -24 -104h30v-111h-114l-9 -8l-69 -66h192v-110h-309l-16 -17q-41 -38 -41 -88q0 -43 31.5 -70.5 t80.5 -27.5q73 0 117 47l131 -131q-97 -100 -248 -100q-146 0 -236.5 76t-90.5 198q0 56 26 113h-35z" />
<glyph horiz-adv-x="1011" d="M63 213v160h117l41 286h-115v160h138l32 213h209l-32 -213h192l33 213h209l-33 -213h92v-160h-115l-40 -286h114v-160h-139l-31 -213h-209l31 213h-192l-31 -213h-209l31 213h-93zM389 373h193l41 286h-193z" />
<glyph horiz-adv-x="854" d="M63 516q0 237 100.5 384t262.5 147q163 0 264 -147.5t101 -383.5t-101 -383t-264 -147t-263 146.5t-100 383.5zM281 516q0 -155 39.5 -251.5t105.5 -96.5t106.5 97t40.5 251t-40.5 251t-106.5 97t-105.5 -96.5t-39.5 -251.5z" />
<glyph horiz-adv-x="856" d="M135 827v160l387 53v-880h168v-160h-540v160h163v692z" />
<glyph horiz-adv-x="854" d="M68 707q0 152 98 246t258 94t258 -94t98 -246q0 -136 -123 -250l-299 -281h422v-176h-708v166l452 430q41 41 41 111q0 69 -39 112t-102 43q-62 0 -100.5 -43t-38.5 -112h-217z" />
<glyph horiz-adv-x="856" d="M66 315h217q0 -64 41 -105.5t104 -41.5t104 41.5t41 105.5q0 65 -41 107.5t-104 42.5h-70v172h70q51 0 84 32.5t33 82.5q0 49 -33 80.5t-84 31.5t-83 -31t-32 -81h-217q0 131 91.5 213t240.5 82t241.5 -82t92.5 -213q0 -121 -98 -199q127 -81 127 -238 q0 -146 -101 -237.5t-262 -91.5t-261.5 91.5t-100.5 237.5z" />
<glyph horiz-adv-x="856" d="M39 172v86l457 774h206v-684h84v-176h-75v-172h-209v172h-463zM301 348h211v373z" />
<glyph horiz-adv-x="854" d="M68 322h208q0 -66 41 -109t107 -43q63 0 102 43.5t39 112.5q0 75 -48.5 123.5t-123.5 48.5q-76 0 -125 -49l-153 45l59 538h522v-176h-338l-20 -178q10 2 70 2q167 0 269.5 -97t102.5 -257q0 -152 -98 -246t-258 -94t-258 92.5t-98 243.5z" />
<glyph horiz-adv-x="856" d="M72 336q0 188 115 392t268 319l180 -103q-67 -59 -137 -143t-111 -158h45q156 0 254 -89.5t98 -238.5q0 -148 -98.5 -238.5t-259.5 -90.5q-160 0 -257 92.5t-97 257.5zM289 317q0 -66 38.5 -107.5t100.5 -41.5t101.5 41.5t39.5 107.5t-39.5 108t-101.5 42q-61 0 -100 -42 t-39 -108z" />
<glyph horiz-adv-x="854" d="M72 856v176h710v-53l-344 -979h-221l291 856h-436z" />
<glyph horiz-adv-x="856" d="M66 315q0 156 122 238q-92 73 -92 199q0 131 92 213t240 82t240 -82t92 -213q0 -123 -96 -199q127 -81 127 -238q0 -146 -101 -237.5t-262 -91.5t-261.5 91.5t-100.5 237.5zM283 315q0 -65 40.5 -106t104.5 -41q63 0 104 41.5t41 105.5t-41 105t-104 41 q-64 0 -104.5 -40.5t-40.5 -105.5zM311 752q0 -49 33 -80t84 -31t83 31t32 80q0 50 -32 81t-83 31t-84 -31.5t-33 -80.5z" />
<glyph horiz-adv-x="856" d="M76 717q0 148 97.5 239t256.5 91q158 0 254 -92.5t96 -258.5q0 -187 -114 -390.5t-263 -319.5l-182 102q67 60 136.5 143.5t109.5 157.5h-43q-155 0 -251.5 89.5t-96.5 238.5zM293 715q0 -66 37.5 -108t97.5 -42t97.5 42t37.5 108t-37.5 107.5t-97.5 41.5t-97.5 -41.5 t-37.5 -107.5z" />
<glyph horiz-adv-x="397" d="M78 104q0 49 34.5 83t84.5 34q52 0 86 -33.5t34 -83.5q0 -51 -34 -84.5t-86 -33.5q-50 0 -84.5 33.5t-34.5 84.5zM92 315v717h209v-717h-209z" />
<glyph horiz-adv-x="935" d="M72 315q0 157 127 238q-99 76 -99 199q0 131 92.5 213t241.5 82q150 0 243 -82t93 -213h-217q0 50 -32.5 81t-86.5 31q-51 0 -84 -31.5t-33 -80.5q0 -50 33 -82.5t84 -32.5h39v-172h-39q-63 0 -104 -42.5t-41 -107.5q0 -64 41 -105.5t104 -41.5q66 0 107 41t41 106v150 h-72v172h362v-172h-73v-150q0 -146 -101 -237.5t-264 -91.5q-161 0 -261.5 91.5t-100.5 237.5z" />
<glyph horiz-adv-x="919" d="M61 -74l588 1180h207l-584 -1180h-211z" />
<glyph horiz-adv-x="919" d="M61 1106h211l584 -1180h-207z" />
<glyph horiz-adv-x="782" d="M57 934q144 113 318 113q149 0 242.5 -79t93.5 -200q0 -48 -17 -86.5t-43 -62t-56 -48t-56 -44.5t-43 -51.5t-17 -69.5v-91h-209v91q0 68 23 122t55.5 86t65 57.5t55.5 48.5t23 46q0 35 -33 66.5t-90 31.5q-92 0 -179 -65zM254 104q0 49 35 83t86 34q50 0 84.5 -34 t34.5 -83q0 -51 -34.5 -84.5t-84.5 -33.5q-51 0 -86 33.5t-35 84.5z" />
<glyph horiz-adv-x="1460" d="M63 770q0 124 82.5 200.5t214.5 76.5q131 0 212 -76.5t81 -200.5t-81 -200t-212 -76q-132 0 -214.5 76t-82.5 200zM250 770q0 -56 30.5 -90.5t79.5 -34.5q48 0 79.5 35t31.5 90t-31.5 91t-79.5 36q-49 0 -79.5 -35.5t-30.5 -91.5zM334 0l584 1032h210l-587 -1032h-207z M805 262q0 124 82.5 200.5t214.5 76.5q131 0 212 -76.5t81 -200.5t-81 -200t-212 -76q-132 0 -214.5 76t-82.5 200zM991 262q0 -56 31 -91.5t80 -35.5q47 0 78.5 36t31.5 91t-31 90t-79 35q-49 0 -80 -34.5t-31 -90.5z" />
<glyph horiz-adv-x="2093" d="M63 770q0 124 82.5 200.5t214.5 76.5q131 0 212 -76.5t81 -200.5t-81 -200t-212 -76q-132 0 -214.5 76t-82.5 200zM250 770q0 -56 30.5 -90.5t79.5 -34.5q48 0 79.5 35t31.5 90t-31.5 91t-79.5 36q-49 0 -79.5 -35.5t-30.5 -91.5zM334 0l584 1032h210l-587 -1032h-207z M805 262q0 124 82.5 200.5t214.5 76.5q131 0 212 -76.5t81 -200.5t-81 -200t-212 -76q-132 0 -214.5 76t-82.5 200zM991 262q0 -56 31 -91.5t80 -35.5q47 0 78.5 36t31.5 91t-31 90t-79 35q-49 0 -80 -34.5t-31 -90.5zM1438 262q0 124 82 200.5t213 76.5q132 0 213.5 -76.5 t81.5 -200.5t-81.5 -200t-213.5 -76q-131 0 -213 76t-82 200zM1622 262q0 -56 31 -91.5t80 -35.5t79.5 35.5t30.5 91.5t-30.5 90.5t-79.5 34.5t-80 -34.5t-31 -90.5z" />
<glyph horiz-adv-x="706" d="M57 -283l131 131q44 -47 119 -47q47 0 79 29t32 72q0 55 -41 96l-303 291l139 137l307 -295q115 -111 115 -229q0 -127 -91 -206t-237 -79q-153 0 -250 100zM74 762q0 127 90.5 206t236.5 79q150 0 248 -101l-131 -131q-44 47 -117 47q-49 0 -79.5 -28.5t-30.5 -71.5 q0 -55 41 -96l301 -291l-139 -137l-306 294q-114 105 -114 230z" />
<glyph horiz-adv-x="1048" d="M80 735q0 135 93.5 216t246.5 81h221v-1032h-201v438h-20q-153 0 -246.5 80.5t-93.5 216.5zM756 0v1032h200v-1032h-200z" />
<glyph horiz-adv-x="624" d="M0 1001q87 90 111 170q-46 9 -76.5 46t-30.5 86q0 57 39 96t96 39q52 0 93.5 -36.5t41.5 -115.5q0 -158 -202 -356zM315 0v1032h215v-1032h-215zM446 1180q0 47 33.5 79.5t79.5 32.5t79.5 -32.5t33.5 -79.5q0 -46 -33.5 -78.5t-79.5 -32.5t-79.5 32.5t-33.5 78.5z" />
<glyph horiz-adv-x="614" d="M63 256q0 164 67.5 266.5t176.5 102.5q110 0 177 -102t67 -267t-67 -267t-177 -102q-109 0 -176.5 102.5t-67.5 266.5zM193 256q0 -116 31 -186t83 -70q51 0 83 70.5t32 185.5q0 114 -32 185t-83 71q-52 0 -83 -70.5t-31 -185.5z" />
<glyph horiz-adv-x="395" d="M51 487v97l238 37v-723h-125v608z" />
<glyph horiz-adv-x="577" d="M53 389q0 104 65 170t169 66t168.5 -65.5t64.5 -170.5q0 -95 -74 -172l-215 -213h289v-106h-463v102l301 301q31 31 31 88q0 55 -28.5 89t-73.5 34q-46 0 -75.5 -34t-29.5 -89h-129z" />
<glyph horiz-adv-x="593" d="M59 115h129q0 -52 30.5 -83.5t78.5 -31.5t78.5 31.5t30.5 83.5q0 49 -31 81.5t-78 32.5h-47v105h47q38 0 62 25.5t24 64.5q0 40 -24 64t-62 24t-62 -24t-24 -64h-131q0 89 60.5 145t156.5 56q97 0 157 -56t60 -145q0 -93 -72 -139q95 -56 95 -170q0 -101 -66.5 -164.5 t-173.5 -63.5q-106 0 -172 63.5t-66 164.5z" />
<glyph horiz-adv-x="620" d="M53 23v53l314 538h125v-485h57v-106h-53v-125h-125v125h-318zM209 129h168v299z" />
<glyph horiz-adv-x="577" d="M53 117h125q0 -53 30 -85t79 -32q45 0 73.5 34t28.5 89q0 58 -34.5 95.5t-88.5 37.5q-58 0 -90 -37l-92 29l39 366h340v-106h-230l-14 -150q21 9 55 9q109 0 177.5 -67.5t68.5 -176.5q0 -105 -64.5 -170.5t-168.5 -65.5t-169 63.5t-65 166.5z" />
<glyph horiz-adv-x="585" d="M59 129q0 222 254 496l107 -62q-117 -134 -166 -225q20 4 41 4q102 0 166.5 -61.5t64.5 -163.5q0 -103 -64 -166.5t-171 -63.5q-105 0 -168.5 64t-63.5 178zM188 117q0 -52 29.5 -84.5t75.5 -32.5t75 32.5t29 84.5q0 54 -29 86.5t-75 32.5t-75.5 -33t-29.5 -86z" />
<glyph horiz-adv-x="591" d="M63 508v106h465v-34l-235 -682h-133l207 610h-304z" />
<glyph horiz-adv-x="591" d="M57 115q0 115 90 170q-67 45 -67 139q0 89 60 145t157 56q95 0 155 -56t60 -145q0 -92 -70 -139q93 -57 93 -170q0 -101 -66 -164.5t-172 -63.5q-107 0 -173.5 63.5t-66.5 164.5zM188 115q0 -52 29.5 -83.5t79.5 -31.5q48 0 78.5 31.5t30.5 83.5q0 49 -31 80.5t-78 31.5 q-49 0 -79 -31t-30 -81zM209 424q0 -38 25 -63t63 -25t62 25t24 63q0 40 -24 64t-62 24q-39 0 -63.5 -24.5t-24.5 -63.5z" />
<glyph horiz-adv-x="585" d="M59 395q0 103 64.5 166.5t169.5 63.5q106 0 169.5 -64t63.5 -178q0 -222 -254 -496l-108 62q115 128 168 225q-24 -4 -41 -4q-104 0 -168 61.5t-64 163.5zM188 395q0 -53 29.5 -86t75.5 -33t75 32.5t29 86.5q0 52 -29 84.5t-75 32.5t-75.5 -32.5t-29.5 -84.5z" />
<glyph horiz-adv-x="274" d="M63 -39q0 31 21.5 51.5t52.5 20.5q29 0 51.5 -18.5t22.5 -61.5q0 -80 -109 -189l-39 39q46 50 58 86q-25 6 -41.5 26t-16.5 46z" />
<glyph horiz-adv-x="274" d="M63 -39q0 31 21.5 51.5t52.5 20.5t52.5 -20.5t21.5 -51.5t-21.5 -52.5t-52.5 -21.5t-52.5 21.5t-21.5 52.5z" />
<glyph horiz-adv-x="337" d="M63 256q0 185 63.5 302.5t158.5 117.5v-92q-38 0 -64 -92.5t-26 -235.5t26 -235.5t64 -92.5v-92q-95 0 -158.5 117.5t-63.5 302.5z" />
<glyph horiz-adv-x="337" d="M53 -72q38 0 64 92.5t26 235.5t-26 235.5t-64 92.5v92q95 0 158 -117.5t63 -302.5t-63 -302.5t-158 -117.5v92z" />
<glyph horiz-adv-x="389" d="M63 207v98h263v-98h-263z" />
<glyph horiz-adv-x="614" d="M63 1075q0 164 67.5 266.5t176.5 102.5q110 0 177 -102t67 -267t-67 -266.5t-177 -101.5q-109 0 -176.5 102t-67.5 266zM193 1075q0 -116 31 -186t83 -70q51 0 83 70.5t32 185.5q0 114 -32 185t-83 71q-52 0 -83 -70.5t-31 -185.5z" />
<glyph horiz-adv-x="395" d="M51 1307v96l238 37v-723h-125v608z" />
<glyph horiz-adv-x="577" d="M53 1208q0 104 65 170t169 66t168.5 -65.5t64.5 -170.5q0 -95 -74 -172l-215 -213h289v-106h-463v102l301 301q31 31 31 88q0 55 -28.5 89t-73.5 34q-46 0 -75.5 -34t-29.5 -89h-129z" />
<glyph horiz-adv-x="593" d="M59 934h129q0 -52 30.5 -83.5t78.5 -31.5t78.5 31.5t30.5 83.5q0 50 -31 82.5t-78 32.5h-47v104h47q38 0 62 25.5t24 64.5q0 40 -24 64t-62 24t-62 -24t-24 -64h-131q0 89 60.5 145t156.5 56q97 0 157 -56t60 -145q0 -93 -72 -139q95 -56 95 -170q0 -101 -66.5 -164 t-173.5 -63q-106 0 -172 63t-66 164z" />
<glyph horiz-adv-x="620" d="M53 842v53l314 539h125v-486h57v-106h-53v-125h-125v125h-318zM209 948h168v299z" />
<glyph horiz-adv-x="577" d="M53 936h125q0 -52 30 -84.5t79 -32.5q45 0 73.5 34t28.5 89q0 58 -34.5 95.5t-88.5 37.5q-58 0 -90 -37l-92 29l39 367h340v-107h-230l-14 -149q19 8 55 8q109 0 177.5 -67.5t68.5 -176.5q0 -104 -64.5 -169.5t-168.5 -65.5t-169 63t-65 166z" />
<glyph horiz-adv-x="585" d="M59 948q0 222 254 496l107 -62q-117 -134 -166 -225q20 4 41 4q102 0 166.5 -61.5t64.5 -163.5q0 -103 -64 -166t-171 -63q-105 0 -168.5 64t-63.5 177zM188 936q0 -52 29.5 -84.5t75.5 -32.5t75 32.5t29 84.5q0 54 -29 86.5t-75 32.5t-75.5 -33t-29.5 -86z" />
<glyph horiz-adv-x="591" d="M63 1327v107h465v-35l-235 -682h-133l207 610h-304z" />
<glyph horiz-adv-x="591" d="M57 934q0 115 90 170q-67 45 -67 139q0 89 60 145t157 56q95 0 155 -56t60 -145q0 -92 -70 -139q93 -57 93 -170q0 -101 -66 -164t-172 -63q-107 0 -173.5 63t-66.5 164zM188 934q0 -52 29.5 -83.5t79.5 -31.5q48 0 78.5 31.5t30.5 83.5q0 49 -31 81t-78 32 q-49 0 -79 -31.5t-30 -81.5zM209 1243q0 -38 25 -63t63 -25t62 25t24 63q0 40 -24 64t-62 24q-39 0 -63.5 -24.5t-24.5 -63.5z" />
<glyph horiz-adv-x="585" d="M59 1214q0 103 64.5 166.5t169.5 63.5q106 0 169.5 -64t63.5 -178q0 -221 -254 -495l-108 61q115 128 168 225q-24 -4 -41 -4q-104 0 -168 61.5t-64 163.5zM188 1214q0 -53 29.5 -85.5t75.5 -32.5t75 32t29 86q0 52 -29 84.5t-75 32.5t-75.5 -32.5t-29.5 -84.5z" />
<glyph horiz-adv-x="274" d="M63 623q46 50 58 86q-25 6 -41.5 25.5t-16.5 45.5q0 31 21.5 51.5t52.5 20.5q29 0 51.5 -18.5t22.5 -61.5q0 -34 -18.5 -71.5t-39 -61.5t-51.5 -55z" />
<glyph horiz-adv-x="274" d="M63 780q0 31 21.5 51.5t52.5 20.5t52.5 -20.5t21.5 -51.5t-21.5 -52t-52.5 -21t-52.5 21t-21.5 52z" />
<glyph horiz-adv-x="337" d="M63 1075q0 185 63.5 302.5t158.5 117.5v-92q-38 0 -64 -92.5t-26 -235.5t26 -235t64 -92v-93q-95 0 -158.5 117.5t-63.5 302.5z" />
<glyph horiz-adv-x="337" d="M53 655v93q38 0 64 92t26 235t-26 235.5t-64 92.5v92q95 0 158 -117.5t63 -302.5t-63 -302.5t-158 -117.5z" />
<glyph horiz-adv-x="389" d="M63 1026v98h263v-98h-263z" />
<glyph horiz-adv-x="1034" d="M92 385v647h217v-647q0 -92 57 -149.5t148 -57.5q92 0 150.5 57.5t58.5 149.5v647h217v-647q0 -178 -118.5 -288.5t-307.5 -110.5t-305.5 110t-116.5 289zM319 1284l103 102l229 -221l-102 -102z" />
<glyph horiz-adv-x="1034" d="M92 385v647h217v-647q0 -92 57 -149.5t148 -57.5q92 0 150.5 57.5t58.5 149.5v647h217v-647q0 -178 -118.5 -288.5t-307.5 -110.5t-305.5 110t-116.5 289zM254 1180q0 46 32.5 78t78.5 32t78 -32t32 -78t-32 -78.5t-78 -32.5t-78.5 32.5t-32.5 78.5zM553 1180 q0 47 33.5 79.5t79.5 32.5q47 0 79.5 -32.5t32.5 -79.5q0 -46 -32.5 -78.5t-79.5 -32.5q-46 0 -79.5 32.5t-33.5 78.5z" />
<glyph horiz-adv-x="1034" d="M92 385v647h217v-647q0 -92 57 -149.5t148 -57.5q92 0 150.5 57.5t58.5 149.5v647h217v-647q0 -178 -118.5 -288.5t-307.5 -110.5t-305.5 110t-116.5 289zM289 1165l227 221l227 -221l-102 -102l-125 121l-125 -121z" />
<glyph horiz-adv-x="540" d="M49 1061q0 81 69 126.5t169 45.5q9 0 20.5 -1t14.5 -1v31q0 28 -21 50.5t-59 22.5q-27 0 -54.5 -11t-42.5 -28l-71 72q76 76 180 76q91 0 146 -52.5t55 -129.5v-211q0 -37 32 -37v-88q-18 -6 -47 -6q-73 0 -102 57q-59 -62 -141 -62q-68 0 -108 43t-40 103zM184 1077 q0 -22 14 -37.5t44 -15.5q52 0 80 35v84q-8 2 -29 2q-45 0 -77 -18.5t-32 -49.5z" />
<glyph horiz-adv-x="628" d="M72 1016v756h133v-359q54 31 125 31q109 0 177 -73t68 -191q0 -119 -75 -192t-199 -73q-155 0 -227 101h-2zM205 1055q6 1 41 -10t59 -11q59 0 96 40t37 106q0 65 -36.5 105t-94.5 40q-66 0 -102 -49v-221z" />
<glyph horiz-adv-x="546" d="M53 1180q0 119 72 191.5t192 72.5q117 0 189 -78l-80 -82q-38 41 -100 41q-60 0 -98 -40.5t-38 -104.5q0 -66 38 -106t98 -40q64 0 100 39l80 -82q-70 -76 -189 -76q-120 0 -192 73t-72 192z" />
<glyph horiz-adv-x="628" d="M53 1180q0 118 71 191t187 73q51 0 113 -25v353h133v-846h-133v32q-58 -43 -137 -43q-104 0 -169 73.5t-65 191.5zM190 1180q0 -66 38 -106t98 -40q63 0 98 35v221q-40 35 -98 35q-60 0 -98 -40.5t-38 -104.5z" />
<glyph horiz-adv-x="587" d="M53 1182q0 118 68.5 190t181.5 72q116 0 177 -80.5t61 -224.5h-346q11 -49 45.5 -77t91.5 -28q68 0 104 39l80 -82q-73 -76 -194 -76t-195 73t-74 194zM195 1229h213q-16 100 -103 100q-44 0 -72.5 -26.5t-37.5 -73.5z" />
<glyph horiz-adv-x="587" d="M53 1182q0 118 68.5 190t181.5 72q116 0 177 -80.5t61 -224.5h-346q11 -49 45.5 -77t91.5 -28q68 0 104 39l80 -82q-73 -76 -194 -76t-195 73t-74 194zM168 1647l68 65l159 -160l-65 -65zM195 1229h213q-16 100 -103 100q-44 0 -72.5 -26.5t-37.5 -73.5z" />
<glyph horiz-adv-x="403" d="M45 1329v105h64v149q0 91 52 145t142 54q36 0 62 -13v-108q-20 8 -37 8q-36 0 -58 -23.5t-22 -62.5v-149h117v-105h-117v-403h-139v403h-64z" />
<glyph horiz-adv-x="608" d="M25 801q0 87 104 133q-53 29 -53 84q0 54 57 82q-74 48 -74 149q0 89 59.5 142t155.5 53q88 0 148 -47q44 47 92 47q6 0 16 -1t15 -1v-107q-12 6 -25 6q-24 0 -41 -24q10 -33 10 -64q0 -85 -59.5 -137.5t-157.5 -52.5q-67 0 -67 -43q0 -19 22.5 -30t63.5 -11 q114 0 185 -46.5t71 -121.5q0 -78 -77.5 -128t-195.5 -50q-113 0 -181 47t-68 121zM164 801q0 -31 28 -48.5t80 -17.5q56 0 96 21t40 53q0 31 -32 49.5t-85 18.5q-57 0 -92 -21t-35 -55zM193 1253q0 -38 23 -62t60 -24t60.5 24t23.5 62q0 37 -24 62.5t-60 25.5t-59.5 -25.5 t-23.5 -62.5z" />
<glyph horiz-adv-x="602" d="M72 926v846h133v-375q56 47 135 47q87 0 137.5 -60.5t50.5 -158.5v-299h-133v299q0 44 -25.5 72t-66.5 28q-62 0 -98 -39v-360h-133z" />
<glyph horiz-adv-x="278" d="M61 1585q0 32 23 55t55 23q34 0 57 -23t23 -55q0 -33 -23.5 -56.5t-56.5 -23.5q-32 0 -55 24t-23 56zM72 926v508h133v-508h-133z" />
<glyph horiz-adv-x="278" d="M23 645v86q22 0 35.5 13t13.5 36v654h133v-656q0 -64 -34 -102.5t-99 -38.5q-36 0 -49 8zM59 1585q0 32 23 55t57 23q32 0 55 -23t23 -55t-23 -56t-55 -24q-33 0 -56.5 23.5t-23.5 56.5z" />
<glyph horiz-adv-x="567" d="M72 926v846h133v-541l157 203h158l-190 -236l211 -272h-156l-180 237v-237h-133z" />
<glyph horiz-adv-x="311" d="M72 1061v711h133v-709q0 -23 15 -36t40 -13v-88q-15 -6 -53 -6q-65 0 -100 38.5t-35 102.5z" />
<glyph horiz-adv-x="876" d="M72 926v508h133v-37q56 47 135 47q84 0 131 -70q64 70 168 70q76 0 121 -53t45 -140v-325h-135v325q0 33 -19 53.5t-49 20.5q-63 0 -102 -31q4 -28 4 -43v-325h-133v325q0 33 -19 53.5t-49 20.5q-62 0 -98 -39v-360h-133z" />
<glyph horiz-adv-x="600" d="M72 926v508h133v-37q56 47 135 47q87 0 137.5 -60.5t50.5 -158.5v-299h-133v299q0 44 -25.5 72t-66.5 28q-62 0 -98 -39v-360h-133z" />
<glyph horiz-adv-x="628" d="M72 645v789h133v-37q60 47 137 47q106 0 171 -73t65 -191t-71.5 -191.5t-187.5 -73.5q-62 0 -114 25v-295h-133zM205 1071q34 -37 98 -37q60 0 97.5 40t37.5 106q0 64 -37.5 104.5t-97.5 40.5q-62 0 -98 -39v-215z" />
<glyph horiz-adv-x="628" d="M53 1180q0 118 76 191t199 73q74 0 134.5 -27.5t96.5 -75.5l-2 -2v-694h-133v301q-57 -31 -125 -31q-109 0 -177.5 73.5t-68.5 191.5zM190 1180q0 -66 36.5 -106t95.5 -40q72 0 102 49v222q-9 -1 -43.5 9.5t-56.5 10.5q-59 0 -96.5 -40.5t-37.5 -104.5z" />
<glyph horiz-adv-x="413" d="M72 926v508h133v-50q58 58 121 58q10 0 30 -4v-115q-18 6 -41 6q-72 0 -110 -65v-338h-133z" />
<glyph horiz-adv-x="456" d="M45 991l82 82q40 -47 92 -47q27 0 42 15.5t15 35.5t-22 34t-53 25.5t-62.5 26.5t-53.5 46.5t-22 76.5q0 67 44 112.5t124 45.5q99 0 170 -68l-82 -82q-33 37 -77 37q-21 0 -33 -13.5t-12 -29.5q0 -21 22 -36.5t53.5 -27.5t62.5 -27.5t53 -46t22 -73.5q0 -68 -49.5 -115 t-133.5 -47q-106 0 -182 76z" />
<glyph horiz-adv-x="399" d="M45 1329v105h57v112h140v-112h108v-105h-108v-225q0 -33 19.5 -55.5t51.5 -22.5q20 0 37 10v-110q-25 -11 -61 -11q-86 0 -136.5 51.5t-50.5 137.5v225h-57z" />
<glyph horiz-adv-x="608" d="M72 1143v291h139v-291q0 -49 27 -79t69 -30q43 0 71 30t28 79v291h131v-291q0 -101 -65.5 -164.5t-168.5 -63.5t-167 63.5t-64 164.5z" />
<glyph horiz-adv-x="608" d="M72 1143v291h139v-291q0 -49 27 -79t69 -30q43 0 71 30t28 79v291h131v-291q0 -101 -65.5 -164.5t-168.5 -63.5t-167 63.5t-64 164.5zM213 1552l160 160l65 -65l-157 -160z" />
<glyph horiz-adv-x="612" d="M20 1434h148l139 -340l139 340h148l-225 -508h-125z" />
<glyph horiz-adv-x="905" d="M20 1434h154l105 -344l106 344h135l107 -344l104 344h154l-191 -508h-139l-102 317l-105 -317h-137z" />
<glyph horiz-adv-x="614" d="M27 926l192 260l-184 248h155l117 -164l117 164h154l-185 -248l195 -260h-154l-127 176l-129 -176h-151z" />
<glyph horiz-adv-x="612" d="M20 1434h148l139 -347l139 347h148l-356 -789h-150l156 281z" />
<glyph horiz-adv-x="552" d="M57 926v39l242 364h-236v105h433v-39l-240 -365h240v-104h-439z" />
<glyph horiz-adv-x="643" d="M53 1180q0 118 74.5 191t194.5 73t194 -73t74 -191q0 -119 -74 -192t-194 -73t-194.5 73.5t-74.5 191.5zM190 1180q0 -66 36.5 -106t95.5 -40t95 40t36 106q0 65 -36.5 105t-94.5 40q-59 0 -95.5 -40.5t-36.5 -104.5z" />
<glyph horiz-adv-x="1034" d="M92 385v647h217v-647q0 -92 57 -149.5t148 -57.5q92 0 150.5 57.5t58.5 149.5v647h217v-647q0 -178 -118.5 -288.5t-307.5 -110.5t-305.5 110t-116.5 289zM270 1178l101 100q51 -51 145 -51t143 49l103 -100q-99 -99 -246 -99q-145 0 -246 101z" />
<glyph horiz-adv-x="1034" d="M92 385v647h217v-647q0 -92 57 -149.5t148 -57.5q92 0 150.5 57.5t58.5 149.5v647h217v-647q0 -178 -118.5 -288.5t-307.5 -110.5t-305.5 110t-116.5 289zM381 1165l229 221l103 -102l-230 -221z" />
<glyph horiz-adv-x="1034" d="M92 385v647h217v-647q0 -92 57 -149.5t148 -57.5q92 0 150.5 57.5t58.5 149.5v647h217v-647q0 -178 -118.5 -288.5t-307.5 -110.5t-305.5 110t-116.5 289z" />
<glyph horiz-adv-x="1581" d="M92 0v1032h137l582 -614v614h217v-1032h-135l-584 614v-614h-217zM1118 850q0 86 56 138t147 52q92 0 148.5 -52t56.5 -138t-56.5 -139.5t-148.5 -53.5q-91 0 -147 53.5t-56 139.5zM1243 850q0 -40 21.5 -63t56.5 -23q37 0 58.5 23t21.5 63q0 37 -22 60.5t-58 23.5 q-35 0 -56.5 -23.5t-21.5 -60.5z" />
<glyph horiz-adv-x="894" d="M63 856v176h764v-176h-272v-856h-217v856h-275zM352 -152q0 40 26.5 67.5t67.5 27.5q37 0 66 -24t29 -79q0 -61 -38 -118t-100 -119l-51 51q58 62 72 106q-32 6 -52 31.5t-20 56.5z" />
<glyph horiz-adv-x="894" d="M63 856v176h764v-176h-272v-856h-217v856h-275zM352 -152q0 40 26.5 67.5t67.5 27.5q37 0 66 -24t29 -79q0 -61 -38 -118t-100 -119l-51 51q58 62 72 106q-32 6 -52 31.5t-20 56.5z" />
<glyph horiz-adv-x="2033" d="M70 1241v193h1024v102h225v-680q108 84 248 84q159 0 252.5 -107.5t93.5 -283.5v-549h-225v549q0 85 -49.5 137.5t-129.5 52.5q-120 0 -190 -73v-666h-225v1241h-408v-1241h-233v1241h-383zM459 -444q72 75 90 141q-38 6 -63 36t-25 70q0 46 32 77.5t78 31.5 q44 0 77.5 -29.5t33.5 -93.5q0 -129 -166 -291z" />
<glyph horiz-adv-x="452" d="M53 956v99h123v123h98v-123h123v-99h-123v-122h-98v122h-123z" />
<glyph horiz-adv-x="452" d="M53 725v96h344v-96h-344zM53 977v96h123v123h98v-123h123v-96h-123v-125h-98v125h-123z" />
<glyph horiz-adv-x="452" d="M53 137v99h123v122h98v-122h123v-99h-123v-123h-98v123h-123z" />
<glyph horiz-adv-x="452" d="M53 2h344v-96h-344v96zM53 158v96h123v123h98v-123h123v-96h-123v-125h-98v125h-123z" />
<glyph horiz-adv-x="614" d="M63 358q0 164 67.5 266.5t176.5 102.5q110 0 177 -102t67 -267t-67 -266.5t-177 -101.5q-109 0 -176.5 102t-67.5 266zM193 358q0 -116 31 -186t83 -70q51 0 83 70.5t32 185.5q0 114 -32 185t-83 71q-52 0 -83 -70.5t-31 -185.5z" />
<glyph horiz-adv-x="395" d="M51 590v96l238 37v-723h-125v608z" />
<glyph horiz-adv-x="577" d="M53 492q0 104 65 169.5t169 65.5t168.5 -65.5t64.5 -169.5q0 -96 -74 -173l-215 -213h289v-106h-463v102l301 301q31 31 31 89q0 55 -28.5 88.5t-73.5 33.5q-46 0 -75.5 -33.5t-29.5 -88.5h-129z" />
<glyph horiz-adv-x="593" d="M59 217h129q0 -52 30.5 -83.5t78.5 -31.5t78.5 31.5t30.5 83.5q0 50 -31 82.5t-78 32.5h-47v104h47q38 0 62 25.5t24 64.5q0 40 -24 64t-62 24t-62 -24t-24 -64h-131q0 89 60.5 145t156.5 56q97 0 157 -56t60 -145q0 -93 -72 -139q95 -56 95 -170q0 -101 -66.5 -164 t-173.5 -63q-106 0 -172 63t-66 164z" />
<glyph horiz-adv-x="620" d="M53 125v53l314 539h125v-486h57v-106h-53v-125h-125v125h-318zM209 231h168v299z" />
<glyph horiz-adv-x="577" d="M53 219h125q0 -53 30 -85t79 -32q45 0 73.5 34t28.5 89q0 58 -34.5 95.5t-88.5 37.5q-59 0 -90 -36l-92 28l39 367h340v-107h-230l-14 -149q19 8 55 8q109 0 177.5 -67.5t68.5 -176.5q0 -104 -64.5 -169.5t-168.5 -65.5t-169 63t-65 166z" />
</font>
</defs>
</svg>
